SplineFontDB: 3.2
FontName: oriya15m
FullName: oriya15m
FamilyName: oriya15m
Weight: Regular
Copyright: Copyright 2022 The Noto Project Authors (https://github.com/notofonts/oriya)
Version: 2.003
ItalicAngle: 0
UnderlinePosition: -125
UnderlineWidth: 50
Ascent: 800
Descent: 200
InvalidEm: 0
sfntRevision: 0x000200c5
LayerCount: 2
Layer: 0 1 "Back" 1
Layer: 1 1 "Fore" 0
XUID: [1021 467 -1121320856 5675375]
StyleMap: 0x0040
FSType: 0
OS2Version: 4
OS2_WeightWidthSlopeOnly: 0
OS2_UseTypoMetrics: 1
CreationTime: 1573797574
ModificationTime: 1741115258
PfmFamily: 17
TTFWeight: 400
TTFWidth: 5
LineGap: 0
VLineGap: 0
Panose: 2 11 5 2 4 5 4 2 2 4
OS2TypoAscent: 1069
OS2TypoAOffset: 0
OS2TypoDescent: -293
OS2TypoDOffset: 0
OS2TypoLinegap: 0
OS2WinAscent: 1069
OS2WinAOffset: 0
OS2WinDescent: 293
OS2WinDOffset: 0
HheadAscent: 1069
HheadAOffset: 0
HheadDescent: -293
HheadDOffset: 0
OS2SubXSize: 650
OS2SubYSize: 600
OS2SubXOff: 0
OS2SubYOff: 75
OS2SupXSize: 650
OS2SupYSize: 600
OS2SupXOff: 0
OS2SupYOff: 350
OS2StrikeYSize: 50
OS2StrikeYPos: 395
OS2CapHeight: 714
OS2XHeight: 658
OS2Vendor: 'GOOG'
OS2CodePages: 00000001.00000000
OS2UnicodeRanges: 00080000.00000000.00000000.00000000













































MarkAttachClasses: 2
"MarkClass-1" 633 uni0B3C uni0B41 uni0B42 uni0B43 uni0B44 uni0B62 uni0B63 uni0B4D uni0B4D0B15 uni0B4D0B16 uni0B4D0B17 uni0B4D0B18 uni0B4D0B19 uni0B4D0B1A uni0B4D0B1B uni0B4D0B1C uni0B4D0B1D uni0B4D0B1F uni0B4D0B20 uni0B4D0B21 uni0B4D0B22 uni0B4D0B23 uni0B4D0B24 uni0B4D0B25 uni0B4D0B26 uni0B4D0B27 uni0B4D0B28 uni0B4D0B2A uni0B4D0B2B uni0B4D0B2C uni0B4D0B2D uni0B4D0B2E uni0B4D0B2F uni0B4D0B30 uni0B4D0B32 uni0B4D0B33 uni0B4D0B35 uni0B4D0B36 uni0B4D0B37 uni0B4D0B38 uni0B4D0B39 kassaoriya.below uni0B3F.below rephauLengthoriya rephauLengthcandraBinduoriya rauMatraoriya.below rauuMatraoriya.below rarVocalicMatraoriya.below rarrVocalicMatraoriya.below
MarkAttachSets: 3

StartChar: exclam
Encoding: 33 33 3
Width: 890
Flags: W
LayerCount: 2
Fore
SplineSet
440 112 m 0,0,1
 424 112 424 112 415 123 c 128,-1,2
 406 134 406 134 401.5 161 c 128,-1,3
 397 188 397 188 396 233.5 c 128,-1,4
 395 279 395 279 395 348 c 0,5,6
 395 445 395 445 396 499 c 128,-1,7
 397 553 397 553 403 579 c 128,-1,8
 409 605 409 605 421.5 610.5 c 128,-1,9
 434 616 434 616 457 616 c 0,10,11
 469 616 469 616 476 609 c 128,-1,12
 483 602 483 602 487.5 579 c 128,-1,13
 492 556 492 556 493.5 511 c 128,-1,14
 495 466 495 466 495 389 c 0,15,16
 495 249 495 249 485 180.5 c 128,-1,17
 475 112 475 112 440 112 c 0,0,1
427 593 m 0,18,19
 423 593 423 593 417 581 c 128,-1,20
 411 569 411 569 411 544 c 0,21,22
 411 531 411 531 412.5 518.5 c 128,-1,23
 414 506 414 506 421 506 c 0,24,25
 427 506 427 506 429 510 c 128,-1,26
 431 514 431 514 431 519.5 c 128,-1,27
 431 525 431 525 430.5 532 c 128,-1,28
 430 539 430 539 430 545 c 0,29,30
 431 562 431 562 433 577.5 c 128,-1,31
 435 593 435 593 427 593 c 0,18,19
441 -8 m 0,32,33
 422 -8 422 -8 410.5 4.5 c 128,-1,34
 399 17 399 17 399 38 c 0,35,36
 399 57 399 57 409 73.5 c 128,-1,37
 419 90 419 90 441 90 c 0,38,39
 464 90 464 90 476 74.5 c 128,-1,40
 488 59 488 59 488 38 c 0,41,42
 488 15 488 15 474.5 3.5 c 128,-1,43
 461 -8 461 -8 441 -8 c 0,32,33
423 44 m 0,44,45
 424 55 424 55 428 64 c 128,-1,46
 432 73 432 73 427 73 c 0,47,48
 420 73 420 73 415.5 58.5 c 128,-1,49
 411 44 411 44 411 33 c 0,50,51
 411 23 411 23 416 23 c 0,52,53
 420 23 420 23 421 30.5 c 128,-1,54
 422 38 422 38 423 44 c 0,44,45
EndSplineSet
EndChar

StartChar: quotedbl
Encoding: 34 34 4
Width: 890
Flags: W
LayerCount: 2
Fore
SplineSet
401 714 m 1,0,-1
 381 456 l 1,1,-1
 326 456 l 1,2,-1
 306 714 l 1,3,-1
 401 714 l 1,0,-1
584 714 m 1,4,-1
 564 456 l 1,5,-1
 509 456 l 1,6,-1
 489 714 l 1,7,-1
 584 714 l 1,4,-1
EndSplineSet
EndChar

StartChar: numbersign
Encoding: 35 35 5
Width: 890
Flags: W
LayerCount: 2
Fore
SplineSet
458.954101562 108 m 0,0,1
 440.954101562 108 440.954101562 108 434.454101562 120 c 128,-1,2
 427.954101562 132 427.954101562 132 426.954101562 147 c 0,3,4
 425.954101562 164 425.954101562 164 432.454101562 181 c 128,-1,5
 438.954101562 198 438.954101562 198 437.954101562 211 c 0,6,7
 437.954101562 214 437.954101562 214 430.454101562 215 c 128,-1,8
 422.954101562 216 422.954101562 216 420.954101562 216 c 2,9,-1
 389.954101562 216 l 1,10,11
 386.954101562 207 386.954101562 207 380.954101562 192 c 128,-1,12
 374.954101562 177 374.954101562 177 366.954101562 162 c 128,-1,13
 358.954101562 147 358.954101562 147 348.454101562 136.5 c 128,-1,14
 337.954101562 126 337.954101562 126 324.954101562 126 c 0,15,16
 308.954101562 126 308.954101562 126 302.454101562 136 c 128,-1,17
 295.954101562 146 295.954101562 146 294.954101562 160 c 0,18,19
 293.954101562 177 293.954101562 177 298.454101562 187.5 c 128,-1,20
 302.954101562 198 302.954101562 198 301.954101562 214 c 0,21,22
 301.954101562 222 301.954101562 222 292.454101562 222.5 c 128,-1,23
 282.954101562 223 282.954101562 223 270.954101562 225 c 128,-1,24
 258.954101562 227 258.954101562 227 248.954101562 234.5 c 128,-1,25
 238.954101562 242 238.954101562 242 237.954101562 264 c 0,26,27
 237.954101562 276 237.954101562 276 243.954101562 283.5 c 128,-1,28
 249.954101562 291 249.954101562 291 258.954101562 295 c 128,-1,29
 267.954101562 299 267.954101562 299 278.954101562 300.5 c 128,-1,30
 289.954101562 302 289.954101562 302 299.954101562 302 c 0,31,32
 311.954101562 302 311.954101562 302 319.454101562 309.5 c 128,-1,33
 326.954101562 317 326.954101562 317 330.954101562 328 c 128,-1,34
 334.954101562 339 334.954101562 339 337.454101562 351 c 128,-1,35
 339.954101562 363 339.954101562 363 341.954101562 372 c 1,36,37
 333.954101562 372 333.954101562 372 321.954101562 373.5 c 128,-1,38
 309.954101562 375 309.954101562 375 298.454101562 378.5 c 128,-1,39
 286.954101562 382 286.954101562 382 278.954101562 389.5 c 128,-1,40
 270.954101562 397 270.954101562 397 270.954101562 409 c 0,41,42
 269.954101562 435 269.954101562 435 284.454101562 442 c 128,-1,43
 298.954101562 449 298.954101562 449 336.954101562 449 c 0,44,45
 352.954101562 449 352.954101562 449 358.954101562 452.5 c 128,-1,46
 364.954101562 456 364.954101562 456 369.954101562 472 c 0,47,48
 372.954101562 479 372.954101562 479 375.954101562 489.5 c 128,-1,49
 378.954101562 500 378.954101562 500 384.454101562 510 c 128,-1,50
 389.954101562 520 389.954101562 520 398.954101562 527 c 128,-1,51
 407.954101562 534 407.954101562 534 422.954101562 534 c 0,52,53
 442.954101562 534 442.954101562 534 450.454101562 522 c 128,-1,54
 457.954101562 510 457.954101562 510 458.954101562 499 c 0,55,56
 458.954101562 489 458.954101562 489 455.454101562 480.5 c 128,-1,57
 451.954101562 472 451.954101562 472 452.954101562 462 c 0,58,59
 452.954101562 457 452.954101562 457 457.454101562 454.5 c 128,-1,60
 461.954101562 452 461.954101562 452 467.454101562 450.5 c 128,-1,61
 472.954101562 449 472.954101562 449 478.954101562 449 c 128,-1,62
 484.954101562 449 484.954101562 449 487.954101562 449 c 0,63,64
 497.954101562 449 497.954101562 449 503.954101562 461 c 128,-1,65
 509.954101562 473 509.954101562 473 515.954101562 488 c 128,-1,66
 521.954101562 503 521.954101562 503 529.954101562 515 c 128,-1,67
 537.954101562 527 537.954101562 527 552.954101562 527 c 0,68,69
 572.954101562 527 572.954101562 527 581.954101562 511 c 128,-1,70
 590.954101562 495 590.954101562 495 591.954101562 483 c 0,71,72
 591.954101562 475 591.954101562 475 588.954101562 467.5 c 128,-1,73
 585.954101562 460 585.954101562 460 585.954101562 451 c 0,74,75
 585.954101562 444 585.954101562 444 596.454101562 443.5 c 128,-1,76
 606.954101562 443 606.954101562 443 618.954101562 441.5 c 128,-1,77
 630.954101562 440 630.954101562 440 640.954101562 434.5 c 128,-1,78
 650.954101562 429 650.954101562 429 651.954101562 412 c 0,79,80
 652.954101562 398 652.954101562 398 642.954101562 390 c 128,-1,81
 632.954101562 382 632.954101562 382 619.454101562 377.5 c 128,-1,82
 605.954101562 373 605.954101562 373 590.954101562 371.5 c 128,-1,83
 575.954101562 370 575.954101562 370 566.954101562 370 c 1,84,85
 559.954101562 351 559.954101562 351 555.454101562 335 c 128,-1,86
 550.954101562 319 550.954101562 319 543.954101562 299 c 1,87,88
 554.954101562 299 554.954101562 299 566.954101562 299.5 c 128,-1,89
 578.954101562 300 578.954101562 300 588.954101562 297.5 c 128,-1,90
 598.954101562 295 598.954101562 295 605.454101562 288 c 128,-1,91
 611.954101562 281 611.954101562 281 612.954101562 265 c 0,92,93
 613.954101562 251 613.954101562 251 607.954101562 241.5 c 128,-1,94
 601.954101562 232 601.954101562 232 591.954101562 226 c 128,-1,95
 581.954101562 220 581.954101562 220 570.454101562 217.5 c 128,-1,96
 558.954101562 215 558.954101562 215 547.954101562 215 c 2,97,-1
 542.954101562 215 l 1,98,-1
 531.954101562 216 l 1,99,-1
 526.954101562 216 l 1,100,101
 523.954101562 204 523.954101562 204 520.454101562 186 c 128,-1,102
 516.954101562 168 516.954101562 168 510.454101562 150.5 c 128,-1,103
 503.954101562 133 503.954101562 133 491.954101562 120.5 c 128,-1,104
 479.954101562 108 479.954101562 108 458.954101562 108 c 0,0,1
390.954101562 457 m 0,105,106
 393.954101562 457 393.954101562 457 397.954101562 463 c 128,-1,107
 401.954101562 469 401.954101562 469 405.454101562 476.5 c 128,-1,108
 408.954101562 484 408.954101562 484 411.954101562 492 c 128,-1,109
 414.954101562 500 414.954101562 500 414.954101562 503 c 0,110,111
 414.954101562 508 414.954101562 508 409.954101562 508 c 0,112,113
 405.954101562 509 405.954101562 509 401.454101562 504 c 128,-1,114
 396.954101562 499 396.954101562 499 393.454101562 492 c 128,-1,115
 389.954101562 485 389.954101562 485 387.454101562 477.5 c 128,-1,116
 384.954101562 470 384.954101562 470 384.954101562 466 c 0,117,118
 384.954101562 463 384.954101562 463 386.954101562 460 c 128,-1,119
 388.954101562 457 388.954101562 457 390.954101562 457 c 0,105,106
288.954101562 404 m 0,120,121
 293.954101562 404 293.954101562 404 296.954101562 415 c 128,-1,122
 299.954101562 426 299.954101562 426 298.954101562 430 c 0,123,124
 298.954101562 434 298.954101562 434 295.954101562 434 c 0,125,126
 290.954101562 436 290.954101562 436 286.454101562 429 c 128,-1,127
 281.954101562 422 281.954101562 422 282.954101562 416 c 0,128,129
 282.954101562 404 282.954101562 404 288.954101562 404 c 0,120,121
435.954101562 298 m 0,130,131
 446.954101562 298 446.954101562 298 454.954101562 305.5 c 128,-1,132
 462.954101562 313 462.954101562 313 467.954101562 323.5 c 128,-1,133
 472.954101562 334 472.954101562 334 474.954101562 345.5 c 128,-1,134
 476.954101562 357 476.954101562 357 476.954101562 366 c 0,135,136
 476.954101562 369 476.954101562 369 475.954101562 372 c 128,-1,137
 474.954101562 375 474.954101562 375 470.954101562 375 c 0,138,139
 447.954101562 375 447.954101562 375 438.954101562 369 c 128,-1,140
 429.954101562 363 429.954101562 363 421.954101562 342 c 0,141,142
 419.954101562 336 419.954101562 336 415.454101562 323 c 128,-1,143
 410.954101562 310 410.954101562 310 411.954101562 304 c 2,144,-1
 411.954101562 303 l 1,145,146
 416.954101562 300 416.954101562 300 423.454101562 299 c 128,-1,147
 429.954101562 298 429.954101562 298 435.954101562 298 c 0,130,131
270.954101562 279 m 0,148,149
 270.954101562 285 270.954101562 285 263.954101562 285 c 0,150,151
 254.954101562 285 254.954101562 285 251.954101562 273 c 128,-1,152
 248.954101562 261 248.954101562 261 250.954101562 256 c 256,153,154
 252.954101562 251 252.954101562 251 254.954101562 250 c 0,155,156
 256.954101562 250 256.954101562 250 259.954101562 253.5 c 128,-1,157
 262.954101562 257 262.954101562 257 265.454101562 262 c 128,-1,158
 267.954101562 267 267.954101562 267 269.454101562 272 c 128,-1,159
 270.954101562 277 270.954101562 277 270.954101562 279 c 0,148,149
EndSplineSet
EndChar

StartChar: percent
Encoding: 37 37 6
Width: 890
Flags: W
LayerCount: 2
Fore
SplineSet
307.5 -6 m 0,0,1
 303.5 -6 303.5 -6 296 -4 c 128,-1,2
 288.5 -2 288.5 -2 281.5 2 c 128,-1,3
 274.5 6 274.5 6 269.5 11.5 c 128,-1,4
 264.5 17 264.5 17 264.5 23 c 0,5,6
 264.5 30 264.5 30 268.5 46.5 c 128,-1,7
 272.5 63 272.5 63 284.5 93 c 128,-1,8
 296.5 123 296.5 123 318 168.5 c 128,-1,9
 339.5 214 339.5 214 374.5 280 c 0,10,11
 428.5 383 428.5 383 462 450 c 128,-1,12
 495.5 517 495.5 517 516.5 556 c 0,13,14
 537.5 596 537.5 596 555 607.5 c 128,-1,15
 572.5 619 572.5 619 585.5 619 c 0,16,17
 602.5 619 602.5 619 609 607 c 128,-1,18
 615.5 595 615.5 595 614.5 577.5 c 128,-1,19
 613.5 560 613.5 560 608 541.5 c 128,-1,20
 602.5 523 602.5 523 596.5 510 c 0,21,22
 582.5 481 582.5 481 559.5 434.5 c 128,-1,23
 536.5 388 536.5 388 510 335.5 c 128,-1,24
 483.5 283 483.5 283 456 229 c 128,-1,25
 428.5 175 428.5 175 405.5 130.5 c 128,-1,26
 382.5 86 382.5 86 367 56 c 128,-1,27
 351.5 26 351.5 26 348.5 22 c 0,28,29
 337.5 5 337.5 5 327 -0.5 c 128,-1,30
 316.5 -6 316.5 -6 307.5 -6 c 0,0,1
313.5 393 m 0,31,32
 290.5 393 290.5 393 273 402.5 c 128,-1,33
 255.5 412 255.5 412 243.5 428 c 128,-1,34
 231.5 444 231.5 444 225.5 465 c 128,-1,35
 219.5 486 219.5 486 219.5 510 c 0,36,37
 219.5 529 219.5 529 226 548 c 128,-1,38
 232.5 567 232.5 567 244.5 582.5 c 128,-1,39
 256.5 598 256.5 598 273.5 608 c 128,-1,40
 290.5 618 290.5 618 311.5 618 c 0,41,42
 353.5 618 353.5 618 377.5 594.5 c 128,-1,43
 401.5 571 401.5 571 401.5 517 c 0,44,45
 401.5 490 401.5 490 394.5 467.5 c 128,-1,46
 387.5 445 387.5 445 375.5 428.5 c 128,-1,47
 363.5 412 363.5 412 347.5 402.5 c 128,-1,48
 331.5 393 331.5 393 313.5 393 c 0,31,32
313.5 460 m 0,49,50
 320.5 460 320.5 460 325.5 465.5 c 128,-1,51
 330.5 471 330.5 471 333.5 479.5 c 128,-1,52
 336.5 488 336.5 488 338 498 c 128,-1,53
 339.5 508 339.5 508 339.5 517 c 0,54,55
 339.5 534 339.5 534 332.5 546 c 128,-1,56
 325.5 558 325.5 558 313.5 558 c 0,57,58
 302.5 558 302.5 558 294.5 543.5 c 128,-1,59
 286.5 529 286.5 529 286.5 512 c 256,60,61
 286.5 495 286.5 495 293.5 477.5 c 128,-1,62
 300.5 460 300.5 460 313.5 460 c 0,49,50
245.5 512 m 256,63,64
 245.5 528 245.5 528 245.5 535.5 c 128,-1,65
 245.5 543 245.5 543 242.5 543 c 0,66,67
 236.5 543 236.5 543 234.5 530.5 c 128,-1,68
 232.5 518 232.5 518 232.5 514 c 0,69,70
 232.5 511 232.5 511 232.5 505.5 c 128,-1,71
 232.5 500 232.5 500 234 494.5 c 128,-1,72
 235.5 489 235.5 489 238 484.5 c 128,-1,73
 240.5 480 240.5 480 245.5 480 c 0,74,75
 249.5 480 249.5 480 247.5 488 c 128,-1,76
 245.5 496 245.5 496 245.5 512 c 256,63,64
270.5 453 m 0,77,78
 270.5 464 270.5 464 261.5 464 c 0,79,80
 255.5 464 255.5 464 255.5 456 c 0,81,82
 255.5 454 255.5 454 258 450 c 128,-1,83
 260.5 446 260.5 446 263.5 446 c 0,84,85
 270.5 446 270.5 446 270.5 453 c 0,77,78
582.5 -6 m 0,86,87
 559.5 -6 559.5 -6 542 3.5 c 128,-1,88
 524.5 13 524.5 13 512.5 29 c 128,-1,89
 500.5 45 500.5 45 494.5 66 c 128,-1,90
 488.5 87 488.5 87 488.5 111 c 0,91,92
 488.5 130 488.5 130 495 149 c 128,-1,93
 501.5 168 501.5 168 513.5 183.5 c 128,-1,94
 525.5 199 525.5 199 542.5 209 c 128,-1,95
 559.5 219 559.5 219 580.5 219 c 0,96,97
 622.5 219 622.5 219 646.5 195.5 c 128,-1,98
 670.5 172 670.5 172 670.5 118 c 0,99,100
 670.5 91 670.5 91 663.5 68.5 c 128,-1,101
 656.5 46 656.5 46 644.5 29.5 c 128,-1,102
 632.5 13 632.5 13 616.5 3.5 c 128,-1,103
 600.5 -6 600.5 -6 582.5 -6 c 0,86,87
582.5 61 m 0,104,105
 589.5 61 589.5 61 594.5 66.5 c 128,-1,106
 599.5 72 599.5 72 602.5 80.5 c 128,-1,107
 605.5 89 605.5 89 607 99 c 128,-1,108
 608.5 109 608.5 109 608.5 118 c 0,109,110
 608.5 135 608.5 135 601.5 147 c 128,-1,111
 594.5 159 594.5 159 582.5 159 c 0,112,113
 571.5 159 571.5 159 563.5 144.5 c 128,-1,114
 555.5 130 555.5 130 555.5 113 c 256,115,116
 555.5 96 555.5 96 562.5 78.5 c 128,-1,117
 569.5 61 569.5 61 582.5 61 c 0,104,105
514.5 113 m 256,118,119
 514.5 129 514.5 129 514.5 136.5 c 128,-1,120
 514.5 144 514.5 144 511.5 144 c 0,121,122
 505.5 144 505.5 144 503.5 131.5 c 128,-1,123
 501.5 119 501.5 119 501.5 115 c 0,124,125
 501.5 112 501.5 112 501.5 106.5 c 128,-1,126
 501.5 101 501.5 101 503 95.5 c 128,-1,127
 504.5 90 504.5 90 507 85.5 c 128,-1,128
 509.5 81 509.5 81 514.5 81 c 0,129,130
 518.5 81 518.5 81 516.5 89 c 128,-1,131
 514.5 97 514.5 97 514.5 113 c 256,118,119
305.5 82 m 0,132,133
 300.5 87 300.5 87 295 82 c 128,-1,134
 289.5 77 289.5 77 286.5 69 c 256,135,136
 283.5 61 283.5 61 280.5 50 c 128,-1,137
 277.5 39 277.5 39 277.5 34 c 0,138,139
 278.5 23 278.5 23 282 23 c 128,-1,140
 285.5 23 285.5 23 292.5 40 c 0,141,142
 297.5 52 297.5 52 302.5 66 c 128,-1,143
 307.5 80 307.5 80 305.5 82 c 0,132,133
539.5 54 m 0,144,145
 539.5 65 539.5 65 530.5 65 c 0,146,147
 524.5 65 524.5 65 524.5 57 c 0,148,149
 524.5 55 524.5 55 527 51 c 128,-1,150
 529.5 47 529.5 47 532.5 47 c 0,151,152
 539.5 47 539.5 47 539.5 54 c 0,144,145
EndSplineSet
EndChar

StartChar: quotesingle
Encoding: 39 39 7
Width: 890
Flags: W
LayerCount: 2
Fore
SplineSet
492.5 714 m 1,0,-1
 472.5 456 l 1,1,-1
 417.5 456 l 1,2,-1
 397.5 714 l 1,3,-1
 492.5 714 l 1,0,-1
EndSplineSet
EndChar

StartChar: parenleft
Encoding: 40 40 8
Width: 890
Flags: W
LayerCount: 2
Fore
SplineSet
509.5 -72 m 0,0,1
 455.5 -51 455.5 -51 419 -13 c 128,-1,2
 382.5 25 382.5 25 360 71.5 c 128,-1,3
 337.5 118 337.5 118 327.5 169.5 c 128,-1,4
 317.5 221 317.5 221 317.5 269 c 0,5,6
 317.5 315 317.5 315 326 363 c 128,-1,7
 334.5 411 334.5 411 350 456 c 128,-1,8
 365.5 501 365.5 501 388.5 540.5 c 128,-1,9
 411.5 580 411.5 580 439.5 609 c 0,10,11
 466.5 636 466.5 636 491.5 654 c 128,-1,12
 516.5 672 516.5 672 536.5 672 c 0,13,14
 551.5 672 551.5 672 560.5 660 c 128,-1,15
 569.5 648 569.5 648 569.5 636 c 0,16,17
 569.5 628 569.5 628 557 617 c 128,-1,18
 544.5 606 544.5 606 521.5 582 c 0,19,20
 491.5 550 491.5 550 471.5 512 c 128,-1,21
 451.5 474 451.5 474 439.5 433.5 c 128,-1,22
 427.5 393 427.5 393 423 351.5 c 128,-1,23
 418.5 310 418.5 310 418.5 272 c 256,24,25
 418.5 234 418.5 234 424.5 192.5 c 128,-1,26
 430.5 151 430.5 151 444.5 113 c 128,-1,27
 458.5 75 458.5 75 481.5 43.5 c 128,-1,28
 504.5 12 504.5 12 538.5 -7 c 0,29,30
 555.5 -16 555.5 -16 564 -22.5 c 128,-1,31
 572.5 -29 572.5 -29 572.5 -43 c 0,32,33
 572.5 -56 572.5 -56 559.5 -66 c 128,-1,34
 546.5 -76 546.5 -76 529.5 -76 c 0,35,36
 518.5 -76 518.5 -76 509.5 -72 c 0,0,1
495.5 620 m 0,37,38
 500.5 625 500.5 625 506.5 630.5 c 128,-1,39
 512.5 636 512.5 636 505.5 636 c 0,40,41
 497.5 636 497.5 636 487 628.5 c 128,-1,42
 476.5 621 476.5 621 466.5 611 c 128,-1,43
 456.5 601 456.5 601 450 590.5 c 128,-1,44
 443.5 580 443.5 580 443.5 574 c 0,45,46
 443.5 569 443.5 569 447.5 569 c 0,47,48
 452.5 569 452.5 569 457 575.5 c 128,-1,49
 461.5 582 461.5 582 464.5 587 c 0,50,51
 468.5 594 468.5 594 475.5 601.5 c 128,-1,52
 482.5 609 482.5 609 495.5 620 c 0,37,38
437.5 547 m 0,53,54
 437.5 555 437.5 555 431.5 555 c 0,55,56
 419.5 555 419.5 555 419.5 547 c 0,57,58
 419.5 541 419.5 541 422.5 539.5 c 128,-1,59
 425.5 538 425.5 538 427.5 538 c 256,60,61
 429.5 538 429.5 538 433.5 539.5 c 128,-1,62
 437.5 541 437.5 541 437.5 547 c 0,53,54
EndSplineSet

EndChar

StartChar: parenright
Encoding: 41 41 9
Width: 890
Flags: W
LayerCount: 2
Fore
SplineSet
374 -93 m 0,0,1
 360 -93 360 -93 347.5 -84.5 c 128,-1,2
 335 -76 335 -76 335 -66 c 0,3,4
 335 -57 335 -57 345 -43 c 128,-1,5
 355 -29 355 -29 369.5 -8.5 c 128,-1,6
 384 12 384 12 401.5 41 c 128,-1,7
 419 70 419 70 433.5 108 c 128,-1,8
 448 146 448 146 458 195 c 128,-1,9
 468 244 468 244 468 305 c 0,10,11
 468 352 468 352 460.5 398.5 c 128,-1,12
 453 445 453 445 439 484 c 128,-1,13
 425 523 425 523 405.5 552 c 128,-1,14
 386 581 386 581 362 594 c 0,15,16
 350 601 350 601 336 610.5 c 128,-1,17
 322 620 322 620 322 638 c 0,18,19
 322 653 322 653 335 662.5 c 128,-1,20
 348 672 348 672 369 672 c 0,21,22
 406 672 406 672 442 646 c 128,-1,23
 478 620 478 620 506 572 c 128,-1,24
 534 524 534 524 551 455.5 c 128,-1,25
 568 387 568 387 568 302 c 0,26,27
 568 227 568 227 559.5 175 c 128,-1,28
 551 123 551 123 535.5 85 c 128,-1,29
 520 47 520 47 499 17 c 128,-1,30
 478 -13 478 -13 453 -44 c 0,31,32
 430 -73 430 -73 410.5 -83 c 128,-1,33
 391 -93 391 -93 374 -93 c 0,0,1
342 621 m 0,34,35
 346 621 346 621 349.5 628.5 c 128,-1,36
 353 636 353 636 353 644 c 0,37,38
 353 657 353 657 346 657 c 0,39,40
 342 657 342 657 338.5 649.5 c 128,-1,41
 335 642 335 642 335 634 c 0,42,43
 335 621 335 621 342 621 c 0,34,35
369 -60 m 256,44,45
 374 -50 374 -50 374.5 -40 c 128,-1,46
 375 -30 375 -30 371 -29 c 0,47,48
 369 -29 369 -29 365.5 -33 c 128,-1,49
 362 -37 362 -37 358.5 -43 c 128,-1,50
 355 -49 355 -49 352.5 -55 c 128,-1,51
 350 -61 350 -61 350 -64 c 0,52,53
 350 -72 350 -72 354 -73 c 0,54,55
 357 -74 357 -74 360.5 -72 c 128,-1,56
 364 -70 364 -70 369 -60 c 256,44,45
EndSplineSet
EndChar

StartChar: asterisk
Encoding: 42 42 10
Width: 890
Flags: W
LayerCount: 2
Fore
SplineSet
492.5 760 m 1,0,-1
 472.5 568 l 1,1,-1
 664.5 622 l 1,2,-1
 678.5 530 l 1,3,-1
 494.5 515 l 1,4,-1
 613.5 357 l 1,5,-1
 527.5 310 l 1,6,-1
 442.5 485 l 1,7,-1
 365.5 310 l 1,8,-1
 276.5 357 l 1,9,-1
 393.5 515 l 1,10,-1
 211.5 530 l 1,11,-1
 225.5 622 l 1,12,-1
 415.5 568 l 1,13,-1
 394.5 760 l 1,14,-1
 492.5 760 l 1,0,-1
EndSplineSet
EndChar

StartChar: plus
Encoding: 43 43 11
Width: 890
Flags: W
LayerCount: 2
Fore
SplineSet
481 388 m 1,0,-1
 680 388 l 1,1,-1
 680 317 l 1,2,-1
 481 317 l 1,3,-1
 481 111 l 1,4,-1
 409 111 l 1,5,-1
 409 317 l 1,6,-1
 210 317 l 1,7,-1
 210 388 l 1,8,-1
 409 388 l 1,9,-1
 409 595 l 1,10,-1
 481 595 l 1,11,-1
 481 388 l 1,0,-1
EndSplineSet
EndChar

StartChar: comma
Encoding: 44 44 12
Width: 890
Flags: W
LayerCount: 2
Fore
SplineSet
520.5 105 m 1,0,1
 511.5 70 511.5 70 497.5 29 c 128,-1,2
 483.5 -12 483.5 -12 467 -52.5 c 128,-1,3
 450.5 -93 450.5 -93 434.5 -129 c 1,4,-1
 369.5 -129 l 1,5,6
 379.5 -91 379.5 -91 389 -47.5 c 128,-1,7
 398.5 -4 398.5 -4 406.5 38.5 c 128,-1,8
 414.5 81 414.5 81 419.5 116 c 1,9,-1
 513.5 116 l 1,10,-1
 520.5 105 l 1,0,1
EndSplineSet
EndChar

StartChar: period
Encoding: 46 46 13
Width: 890
Flags: W
LayerCount: 2
Fore
SplineSet
439.5 -8 m 0,0,1
 399.5 -8 399.5 -8 371 20 c 128,-1,2
 342.5 48 342.5 48 342.5 92 c 0,3,4
 342.5 116 342.5 116 351 137.5 c 128,-1,5
 359.5 159 359.5 159 374.5 174.5 c 128,-1,6
 389.5 190 389.5 190 410.5 199.5 c 128,-1,7
 431.5 209 431.5 209 456.5 209 c 0,8,9
 476.5 209 476.5 209 493.5 200.5 c 128,-1,10
 510.5 192 510.5 192 522.5 177 c 128,-1,11
 534.5 162 534.5 162 541 143 c 128,-1,12
 547.5 124 547.5 124 547.5 103 c 0,13,14
 547.5 76 547.5 76 539 55.5 c 128,-1,15
 530.5 35 530.5 35 515.5 21 c 128,-1,16
 500.5 7 500.5 7 481 -0.5 c 128,-1,17
 461.5 -8 461.5 -8 439.5 -8 c 0,0,1
402.5 165 m 0,18,19
 409.5 172 409.5 172 411 177 c 128,-1,20
 412.5 182 412.5 182 410.5 182 c 0,21,22
 402.5 182 402.5 182 393.5 174.5 c 128,-1,23
 384.5 167 384.5 167 377 156.5 c 128,-1,24
 369.5 146 369.5 146 364.5 134 c 128,-1,25
 359.5 122 359.5 122 359.5 112 c 0,26,27
 359.5 110 359.5 110 361 104 c 128,-1,28
 362.5 98 362.5 98 365.5 98 c 0,29,30
 369.5 98 369.5 98 375.5 120 c 0,31,32
 378.5 134 378.5 134 386.5 145.5 c 128,-1,33
 394.5 157 394.5 157 402.5 165 c 0,18,19
443.5 49 m 0,34,35
 455.5 49 455.5 49 472 63 c 128,-1,36
 488.5 77 488.5 77 488.5 103 c 0,37,38
 488.5 123 488.5 123 478 136.5 c 128,-1,39
 467.5 150 467.5 150 450.5 150 c 256,40,41
 433.5 150 433.5 150 419.5 136.5 c 128,-1,42
 405.5 123 405.5 123 405.5 99 c 256,43,44
 405.5 75 405.5 75 416.5 62 c 128,-1,45
 427.5 49 427.5 49 443.5 49 c 0,34,35
EndSplineSet
EndChar

StartChar: slash
Encoding: 47 47 14
Width: 890
Flags: W
LayerCount: 2
Fore
SplineSet
331.5 -77 m 0,0,1
 327.5 -77 327.5 -77 316 -75 c 128,-1,2
 304.5 -73 304.5 -73 292.5 -68.5 c 128,-1,3
 280.5 -64 280.5 -64 271.5 -57 c 128,-1,4
 262.5 -50 262.5 -50 262.5 -41 c 0,5,6
 262.5 -38 262.5 -38 273 -9.5 c 128,-1,7
 283.5 19 283.5 19 300.5 64 c 128,-1,8
 317.5 109 317.5 109 340 166 c 128,-1,9
 362.5 223 362.5 223 386.5 283 c 128,-1,10
 410.5 343 410.5 343 434.5 402 c 128,-1,11
 458.5 461 458.5 461 478.5 509.5 c 128,-1,12
 498.5 558 498.5 558 513.5 592 c 128,-1,13
 528.5 626 528.5 626 534.5 636 c 0,14,15
 541.5 647 541.5 647 553 656.5 c 128,-1,16
 564.5 666 564.5 666 578.5 666 c 0,17,18
 585.5 666 585.5 666 594 663.5 c 128,-1,19
 602.5 661 602.5 661 610 656.5 c 128,-1,20
 617.5 652 617.5 652 622.5 646 c 128,-1,21
 627.5 640 627.5 640 627.5 633 c 0,22,23
 627.5 625 627.5 625 619 599.5 c 128,-1,24
 610.5 574 610.5 574 599 544.5 c 128,-1,25
 587.5 515 587.5 515 576 487.5 c 128,-1,26
 564.5 460 564.5 460 558.5 447 c 0,27,28
 554.5 438 554.5 438 543.5 410.5 c 128,-1,29
 532.5 383 532.5 383 517.5 344.5 c 128,-1,30
 502.5 306 502.5 306 484.5 259.5 c 128,-1,31
 466.5 213 466.5 213 447.5 166.5 c 128,-1,32
 428.5 120 428.5 120 410 76 c 128,-1,33
 391.5 32 391.5 32 376 -2 c 128,-1,34
 360.5 -36 360.5 -36 348.5 -56.5 c 128,-1,35
 336.5 -77 336.5 -77 331.5 -77 c 0,0,1
306.5 -37 m 0,36,37
 310.5 -25 310.5 -25 318.5 -7 c 128,-1,38
 326.5 11 326.5 11 333.5 27.5 c 128,-1,39
 340.5 44 340.5 44 344 56.5 c 128,-1,40
 347.5 69 347.5 69 342.5 70 c 0,41,42
 340.5 71 340.5 71 335.5 71 c 128,-1,43
 330.5 71 330.5 71 327.5 66 c 0,44,45
 325.5 62 325.5 62 319 48.5 c 128,-1,46
 312.5 35 312.5 35 306 19.5 c 128,-1,47
 299.5 4 299.5 4 294.5 -10.5 c 128,-1,48
 289.5 -25 289.5 -25 289.5 -31 c 0,49,50
 289.5 -38 289.5 -38 297 -40 c 128,-1,51
 304.5 -42 304.5 -42 306.5 -37 c 0,36,37
EndSplineSet
EndChar

StartChar: zero
Encoding: 48 48 15
Width: 890
Flags: W
LayerCount: 2
Fore
SplineSet
450 -17 m 0,0,1
 398 -17 398 -17 363.5 11.5 c 128,-1,2
 329 40 329 40 308 86 c 128,-1,3
 287 132 287 132 278.5 190 c 128,-1,4
 270 248 270 248 270 307 c 256,5,6
 270 366 270 366 280 422.5 c 128,-1,7
 290 479 290 479 312.5 523 c 128,-1,8
 335 567 335 567 371 594 c 128,-1,9
 407 621 407 621 458 621 c 0,10,11
 492 621 492 621 517 604 c 128,-1,12
 542 587 542 587 560 560 c 128,-1,13
 578 533 578 533 590 499 c 128,-1,14
 602 465 602 465 608.5 430 c 128,-1,15
 615 395 615 395 617.5 362.5 c 128,-1,16
 620 330 620 330 620 307 c 0,17,18
 620 258 620 258 611 201 c 128,-1,19
 602 144 602 144 582 95.5 c 128,-1,20
 562 47 562 47 529.5 15 c 128,-1,21
 497 -17 497 -17 450 -17 c 0,0,1
343 512 m 0,22,23
 352 531 352 531 357 540.5 c 128,-1,24
 362 550 362 550 362 553 c 0,25,26
 362 555 362 555 358 555.5 c 128,-1,27
 354 556 354 556 349 549 c 0,28,29
 345 543 345 543 338 530.5 c 128,-1,30
 331 518 331 518 324 504 c 128,-1,31
 317 490 317 490 312.5 476.5 c 128,-1,32
 308 463 308 463 308 456 c 256,33,34
 308 449 308 449 313 451 c 128,-1,35
 318 453 318 453 321 460 c 0,36,37
 324 468 324 468 329 481 c 128,-1,38
 334 494 334 494 343 512 c 0,22,23
451 59 m 0,39,40
 482 59 482 59 500 85 c 128,-1,41
 518 111 518 111 527.5 150 c 128,-1,42
 537 189 537 189 539.5 234 c 128,-1,43
 542 279 542 279 542 316 c 0,44,45
 542 339 542 339 539 377 c 128,-1,46
 536 415 536 415 527 451.5 c 128,-1,47
 518 488 518 488 501.5 514.5 c 128,-1,48
 485 541 485 541 458 541 c 0,49,50
 436 541 436 541 420 514 c 128,-1,51
 404 487 404 487 393.5 449.5 c 128,-1,52
 383 412 383 412 378 371 c 128,-1,53
 373 330 373 330 373 301 c 0,54,55
 373 286 373 286 373 262.5 c 128,-1,56
 373 239 373 239 375 212 c 128,-1,57
 377 185 377 185 381.5 158 c 128,-1,58
 386 131 386 131 394.5 109 c 128,-1,59
 403 87 403 87 417 73 c 128,-1,60
 431 59 431 59 451 59 c 0,39,40
EndSplineSet


EndChar

StartChar: one
Encoding: 49 49 16
Width: 890
Flags: W
LayerCount: 2
Fore
SplineSet
494.5 0 m 0,0,1
 449.5 0 449.5 0 449.5 47 c 2,2,-1
 449.5 450 l 2,3,4
 449.5 459 449.5 459 449 466 c 128,-1,5
 448.5 473 448.5 473 446.5 473 c 0,6,7
 443.5 473 443.5 473 437.5 465.5 c 128,-1,8
 431.5 458 431.5 458 424 448.5 c 128,-1,9
 416.5 439 416.5 439 408 429.5 c 128,-1,10
 399.5 420 399.5 420 391.5 416 c 0,11,12
 382.5 411 382.5 411 372.5 411 c 0,13,14
 358.5 411 358.5 411 349.5 421 c 128,-1,15
 340.5 431 340.5 431 340.5 445 c 0,16,17
 340.5 450 340.5 450 350 463 c 128,-1,18
 359.5 476 359.5 476 366.5 486 c 0,19,20
 375.5 499 375.5 499 393.5 521 c 128,-1,21
 411.5 543 411.5 543 432 564 c 128,-1,22
 452.5 585 452.5 585 471.5 600.5 c 128,-1,23
 490.5 616 490.5 616 502.5 616 c 0,24,25
 508.5 616 508.5 616 516.5 615 c 128,-1,26
 524.5 614 524.5 614 532 611 c 128,-1,27
 539.5 608 539.5 608 544.5 602.5 c 128,-1,28
 549.5 597 549.5 597 549.5 587 c 2,29,-1
 549.5 48 l 2,30,31
 549.5 30 549.5 30 533 15 c 128,-1,32
 516.5 0 516.5 0 494.5 0 c 0,0,1
493.5 592 m 0,33,34
 498.5 600 498.5 600 501.5 602.5 c 128,-1,35
 504.5 605 504.5 605 501.5 606 c 0,36,37
 499.5 606 499.5 606 492.5 603.5 c 128,-1,38
 485.5 601 485.5 601 479.5 595 c 0,39,40
 474.5 590 474.5 590 466.5 583 c 128,-1,41
 458.5 576 458.5 576 458.5 572 c 0,42,43
 458.5 569 458.5 569 462.5 568 c 0,44,45
 469.5 567 469.5 567 479.5 577 c 128,-1,46
 489.5 587 489.5 587 493.5 592 c 0,33,34
482.5 45 m 0,47,48
 482.5 53 482.5 53 480 58 c 128,-1,49
 477.5 63 477.5 63 477.5 74 c 0,50,51
 477.5 79 477.5 79 477 83 c 128,-1,52
 476.5 87 476.5 87 471.5 87 c 0,53,54
 467.5 87 467.5 87 465.5 77.5 c 128,-1,55
 463.5 68 463.5 68 463.5 57 c 128,-1,56
 463.5 46 463.5 46 465.5 36.5 c 128,-1,57
 467.5 27 467.5 27 471.5 27 c 0,58,59
 482.5 27 482.5 27 482.5 45 c 0,47,48
EndSplineSet


EndChar

StartChar: two
Encoding: 50 50 17
Width: 890
Flags: W
LayerCount: 2
Fore
SplineSet
314.2109375 0 m 2,0,1
 305.2109375 0 305.2109375 0 297.7109375 13 c 128,-1,2
 290.2109375 26 290.2109375 26 292.2109375 38 c 256,3,4
 294.2109375 50 294.2109375 50 308.2109375 68 c 128,-1,5
 322.2109375 86 322.2109375 86 338.2109375 106 c 0,6,7
 374.2109375 151 374.2109375 151 403.2109375 198.5 c 128,-1,8
 432.2109375 246 432.2109375 246 452.7109375 292.5 c 128,-1,9
 473.2109375 339 473.2109375 339 484.2109375 383 c 128,-1,10
 495.2109375 427 495.2109375 427 495.2109375 465 c 0,11,12
 495.2109375 506 495.2109375 506 477.7109375 520 c 128,-1,13
 460.2109375 534 460.2109375 534 440.2109375 534 c 256,14,15
 420.2109375 534 420.2109375 534 405.2109375 517.5 c 128,-1,16
 390.2109375 501 390.2109375 501 390.2109375 464 c 0,17,18
 390.2109375 442 390.2109375 442 395.2109375 430.5 c 128,-1,19
 400.2109375 419 400.2109375 419 400.2109375 403 c 0,20,21
 400.2109375 389 400.2109375 389 384.7109375 383 c 128,-1,22
 369.2109375 377 369.2109375 377 358.2109375 377 c 0,23,24
 332.2109375 377 332.2109375 377 314.7109375 403.5 c 128,-1,25
 297.2109375 430 297.2109375 430 297.2109375 470 c 0,26,27
 297.2109375 502 297.2109375 502 307.7109375 529.5 c 128,-1,28
 318.2109375 557 318.2109375 557 337.7109375 577.5 c 128,-1,29
 357.2109375 598 357.2109375 598 383.7109375 610 c 128,-1,30
 410.2109375 622 410.2109375 622 441.2109375 622 c 0,31,32
 471.2109375 622 471.2109375 622 499.7109375 610.5 c 128,-1,33
 528.2109375 599 528.2109375 599 550.2109375 577.5 c 128,-1,34
 572.2109375 556 572.2109375 556 585.2109375 525.5 c 128,-1,35
 598.2109375 495 598.2109375 495 598.2109375 457 c 0,36,37
 598.2109375 410 598.2109375 410 586.2109375 364 c 128,-1,38
 574.2109375 318 574.2109375 318 555.7109375 277 c 128,-1,39
 537.2109375 236 537.2109375 236 516.2109375 201 c 128,-1,40
 495.2109375 166 495.2109375 166 476.7109375 140 c 128,-1,41
 458.2109375 114 458.2109375 114 446.2109375 98 c 128,-1,42
 434.2109375 82 434.2109375 82 434.2109375 79 c 1,43,44
 437.2109375 79 437.2109375 79 442.2109375 79 c 2,45,-1
 466.2109375 79 l 1,46,-1
 553.2109375 82 l 2,47,48
 571.2109375 83 571.2109375 83 580.2109375 79 c 128,-1,49
 589.2109375 75 589.2109375 75 593.2109375 67.5 c 128,-1,50
 597.2109375 60 597.2109375 60 597.2109375 50 c 128,-1,51
 597.2109375 40 597.2109375 40 597.2109375 29 c 0,52,53
 597.2109375 11 597.2109375 11 586.7109375 5.5 c 128,-1,54
 576.2109375 0 576.2109375 0 544.2109375 0 c 2,55,-1
 314.2109375 0 l 2,0,1
330.2109375 488 m 0,56,57
 331.2109375 500 331.2109375 500 329.2109375 507 c 128,-1,58
 327.2109375 514 327.2109375 514 324.2109375 513 c 0,59,60
 320.2109375 513 320.2109375 513 317.7109375 506.5 c 128,-1,61
 315.2109375 500 315.2109375 500 314.7109375 491.5 c 128,-1,62
 314.2109375 483 314.2109375 483 314.2109375 475.5 c 128,-1,63
 314.2109375 468 314.2109375 468 314.2109375 465 c 0,64,65
 316.2109375 452 316.2109375 452 319.2109375 450 c 0,66,67
 324.2109375 445 324.2109375 445 326.2109375 452 c 128,-1,68
 328.2109375 459 328.2109375 459 330.2109375 488 c 0,56,57
332.2109375 424 m 0,69,70
 332.2109375 431 332.2109375 431 325.2109375 431 c 256,71,72
 318.2109375 431 318.2109375 431 318.2109375 423 c 0,73,74
 318.2109375 421 318.2109375 421 320.2109375 418 c 128,-1,75
 322.2109375 415 322.2109375 415 324.2109375 415 c 0,76,77
 328.2109375 415 328.2109375 415 330.2109375 418 c 128,-1,78
 332.2109375 421 332.2109375 421 332.2109375 424 c 0,69,70
331.2109375 50 m 0,79,80
 339.2109375 69 339.2109375 69 336.2109375 69 c 0,81,82
 329.2109375 69 329.2109375 69 321.7109375 60 c 128,-1,83
 314.2109375 51 314.2109375 51 314.2109375 40 c 0,84,85
 314.2109375 32 314.2109375 32 318.2109375 32 c 0,86,87
 323.2109375 32 323.2109375 32 331.2109375 50 c 0,79,80
EndSplineSet


EndChar

StartChar: three
Encoding: 51 51 18
Width: 890
Flags: W
LayerCount: 2
Fore
SplineSet
497 486 m 0,0,1
 497 515 497 515 483 527.5 c 128,-1,2
 469 540 469 540 441 540 c 0,3,4
 408 540 408 540 392 514.5 c 128,-1,5
 376 489 376 489 376 430 c 0,6,7
 376 416 376 416 365.5 410 c 128,-1,8
 355 404 355 404 344 404 c 0,9,10
 283 404 283 404 283 493 c 0,11,12
 283 520 283 520 296.5 543.5 c 128,-1,13
 310 567 310 567 331.5 584.5 c 128,-1,14
 353 602 353 602 381 612 c 128,-1,15
 409 622 409 622 437 622 c 0,16,17
 481 622 481 622 512.5 611 c 128,-1,18
 544 600 544 600 564 581 c 128,-1,19
 584 562 584 562 594 537.5 c 128,-1,20
 604 513 604 513 604 487 c 0,21,22
 604 447 604 447 586.5 418 c 128,-1,23
 569 389 569 389 547.5 368.5 c 128,-1,24
 526 348 526 348 508.5 336 c 128,-1,25
 491 324 491 324 491 318 c 256,26,27
 491 312 491 312 509 305.5 c 128,-1,28
 527 299 527 299 549 284 c 128,-1,29
 571 269 571 269 589 241.5 c 128,-1,30
 607 214 607 214 607 167 c 0,31,32
 607 121 607 121 589.5 88.5 c 128,-1,33
 572 56 572 56 543.5 35 c 128,-1,34
 515 14 515 14 479 4 c 128,-1,35
 443 -6 443 -6 406 -6 c 0,36,37
 390 -6 390 -6 370 -1.5 c 128,-1,38
 350 3 350 3 332.5 12.5 c 128,-1,39
 315 22 315 22 303 36.5 c 128,-1,40
 291 51 291 51 291 71 c 0,41,42
 291 86 291 86 297 95.5 c 128,-1,43
 303 105 303 105 314 105 c 0,44,45
 327 105 327 105 337.5 100.5 c 128,-1,46
 348 96 348 96 358.5 90.5 c 128,-1,47
 369 85 369 85 381 80.5 c 128,-1,48
 393 76 393 76 408 76 c 0,49,50
 435 76 435 76 453 84 c 128,-1,51
 471 92 471 92 481.5 105 c 128,-1,52
 492 118 492 118 496 134 c 128,-1,53
 500 150 500 150 500 166 c 0,54,55
 500 198 500 198 482 220 c 128,-1,56
 464 242 464 242 435 242 c 0,57,58
 393 242 393 242 376 257 c 128,-1,59
 359 272 359 272 359 292 c 0,60,61
 359 311 359 311 380.5 334.5 c 128,-1,62
 402 358 402 358 428 383 c 128,-1,63
 454 408 454 408 475.5 434.5 c 128,-1,64
 497 461 497 461 497 486 c 0,0,1
324 515 m 0,65,66
 325 527 325 527 323 534 c 128,-1,67
 321 541 321 541 318 540 c 0,68,69
 314 540 314 540 310.5 534 c 128,-1,70
 307 528 307 528 304.5 520 c 128,-1,71
 302 512 302 512 300.5 504 c 128,-1,72
 299 496 299 496 300 492 c 0,73,74
 302 479 302 479 305 477 c 0,75,76
 310 472 310 472 316 479 c 128,-1,77
 322 486 322 486 324 515 c 0,65,66
318 451 m 0,78,79
 318 458 318 458 311 458 c 256,80,81
 304 458 304 458 304 450 c 0,82,83
 304 448 304 448 306 445 c 128,-1,84
 308 442 308 442 310 442 c 0,85,86
 314 442 314 442 316 445 c 128,-1,87
 318 448 318 448 318 451 c 0,78,79
392 291 m 0,88,89
 394 296 394 296 398 304 c 128,-1,90
 402 312 402 312 407 319 c 0,91,92
 411 325 411 325 412 330 c 128,-1,93
 413 335 413 335 411 335 c 0,94,95
 407 335 407 335 401 329 c 128,-1,96
 395 323 395 323 389.5 315 c 128,-1,97
 384 307 384 307 380 298.5 c 128,-1,98
 376 290 376 290 376 284 c 0,99,100
 376 275 376 275 381 275 c 256,101,102
 386 275 386 275 392 291 c 0,88,89
322 80 m 0,103,104
 322 101 322 101 313 92 c 0,105,106
 308 87 308 87 306 78 c 128,-1,107
 304 69 304 69 305 62 c 0,108,109
 306 58 306 58 308 56.5 c 128,-1,110
 310 55 310 55 312 55 c 256,111,112
 314 55 314 55 318 63.5 c 128,-1,113
 322 72 322 72 322 80 c 0,103,104
EndSplineSet


EndChar

StartChar: four
Encoding: 52 52 19
Width: 890
Flags: W
LayerCount: 2
Fore
SplineSet
552.5 0 m 0,0,1
 528.5 0 528.5 0 520 19.5 c 128,-1,2
 511.5 39 511.5 39 511.5 62 c 2,3,-1
 511.5 130 l 2,4,5
 511.5 142 511.5 142 498.5 142 c 2,6,-1
 317.5 142 l 2,7,8
 295.5 142 295.5 142 285 152 c 128,-1,9
 274.5 162 274.5 162 274.5 173 c 0,10,11
 274.5 178 274.5 178 283 209.5 c 128,-1,12
 291.5 241 291.5 241 304 286 c 128,-1,13
 316.5 331 316.5 331 331.5 382 c 128,-1,14
 346.5 433 346.5 433 360 478 c 128,-1,15
 373.5 523 373.5 523 383.5 555 c 128,-1,16
 393.5 587 393.5 587 396.5 592 c 0,17,18
 404.5 607 404.5 607 414.5 610.5 c 128,-1,19
 424.5 614 424.5 614 434.5 614 c 0,20,21
 439.5 614 439.5 614 448.5 612 c 128,-1,22
 457.5 610 457.5 610 466 606.5 c 128,-1,23
 474.5 603 474.5 603 481 598 c 128,-1,24
 487.5 593 487.5 593 487.5 587 c 256,25,26
 487.5 581 487.5 581 482.5 558.5 c 128,-1,27
 477.5 536 477.5 536 469.5 503.5 c 128,-1,28
 461.5 471 461.5 471 451.5 433 c 128,-1,29
 441.5 395 441.5 395 431.5 358.5 c 128,-1,30
 421.5 322 421.5 322 412.5 291.5 c 128,-1,31
 403.5 261 403.5 261 397.5 243 c 0,32,33
 395.5 238 395.5 238 394.5 235 c 128,-1,34
 393.5 232 393.5 232 393.5 229 c 0,35,36
 393.5 224 393.5 224 401.5 224 c 2,37,-1
 498.5 224 l 2,38,39
 506.5 224 506.5 224 509 226.5 c 128,-1,40
 511.5 229 511.5 229 511.5 235 c 2,41,-1
 511.5 536 l 2,42,43
 511.5 561 511.5 561 516 576.5 c 128,-1,44
 520.5 592 520.5 592 527.5 601 c 128,-1,45
 534.5 610 534.5 610 543.5 613 c 128,-1,46
 552.5 616 552.5 616 562.5 616 c 0,47,48
 589.5 616 589.5 616 602.5 597 c 128,-1,49
 615.5 578 615.5 578 615.5 550 c 2,50,-1
 615.5 70 l 2,51,52
 615.5 49 615.5 49 610.5 35 c 128,-1,53
 605.5 21 605.5 21 596.5 13.5 c 128,-1,54
 587.5 6 587.5 6 576 3 c 128,-1,55
 564.5 0 564.5 0 552.5 0 c 0,0,1
531.5 541 m 256,56,57
 535.5 541 535.5 541 539 547 c 128,-1,58
 542.5 553 542.5 553 545 561 c 128,-1,59
 547.5 569 547.5 569 549 577.5 c 128,-1,60
 550.5 586 550.5 586 550.5 591 c 0,61,62
 550.5 598 550.5 598 543.5 598 c 0,63,64
 540.5 598 540.5 598 537.5 593.5 c 128,-1,65
 534.5 589 534.5 589 532 582.5 c 128,-1,66
 529.5 576 529.5 576 527.5 569.5 c 128,-1,67
 525.5 563 525.5 563 525.5 558 c 0,68,69
 525.5 552 525.5 552 526.5 546.5 c 128,-1,70
 527.5 541 527.5 541 531.5 541 c 256,56,57
318.5 215 m 0,71,72
 322.5 228 322.5 228 325 235 c 128,-1,73
 327.5 242 327.5 242 326.5 251 c 0,74,75
 326.5 259 326.5 259 321.5 259 c 0,76,77
 318.5 259 318.5 259 315 251.5 c 128,-1,78
 311.5 244 311.5 244 308 234 c 128,-1,79
 304.5 224 304.5 224 302.5 214 c 128,-1,80
 300.5 204 300.5 204 300.5 199 c 0,81,82
 300.5 188 300.5 188 305.5 188 c 0,83,84
 312.5 189 312.5 189 318.5 215 c 0,71,72
308.5 169 m 0,85,86
 308.5 179 308.5 179 300.5 179 c 256,87,88
 292.5 179 292.5 179 292.5 169 c 0,89,90
 292.5 167 292.5 167 293.5 166 c 0,91,92
 297.5 162 297.5 162 300.5 162 c 0,93,94
 302.5 162 302.5 162 305.5 164 c 128,-1,95
 308.5 166 308.5 166 308.5 169 c 0,85,86
544.5 29 m 0,96,97
 541.5 35 541.5 35 538.5 37.5 c 128,-1,98
 535.5 40 535.5 40 535.5 45 c 0,99,100
 535.5 49 535.5 49 534.5 53 c 0,101,102
 534.5 61 534.5 61 529.5 61 c 0,103,104
 523.5 61 523.5 61 523.5 50 c 0,105,106
 523.5 42 523.5 42 528 28.5 c 128,-1,107
 532.5 15 532.5 15 538.5 15 c 0,108,109
 541.5 15 541.5 15 544.5 19.5 c 128,-1,110
 547.5 24 547.5 24 544.5 29 c 0,96,97
EndSplineSet


EndChar

StartChar: five
Encoding: 53 53 20
Width: 890
Flags: W
LayerCount: 2
Fore
SplineSet
345 -8 m 0,0,1
 323 -8 323 -8 310.5 -1.5 c 128,-1,2
 298 5 298 5 292 14 c 128,-1,3
 286 23 286 23 284.5 32.5 c 128,-1,4
 283 42 283 42 283 48 c 0,5,6
 283 62 283 62 288.5 70 c 128,-1,7
 294 78 294 78 303 81.5 c 128,-1,8
 312 85 312 85 323 85.5 c 128,-1,9
 334 86 334 86 345 86 c 0,10,11
 432 86 432 86 468.5 112.5 c 128,-1,12
 505 139 505 139 505 196 c 0,13,14
 505 251 505 251 479 277 c 128,-1,15
 453 303 453 303 404 303 c 0,16,17
 385 303 385 303 373 300 c 128,-1,18
 361 297 361 297 352 293.5 c 128,-1,19
 343 290 343 290 335 287 c 128,-1,20
 327 284 327 284 317 284 c 256,21,22
 307 284 307 284 301 293 c 128,-1,23
 295 302 295 302 292 314.5 c 128,-1,24
 289 327 289 327 288.5 341.5 c 128,-1,25
 288 356 288 356 288 366 c 2,26,-1
 288 568 l 2,27,28
 288 595 288 595 301.5 605.5 c 128,-1,29
 315 616 315 616 334 616 c 2,30,-1
 567 616 l 2,31,32
 575 616 575 616 582 608.5 c 128,-1,33
 589 601 589 601 589 587 c 0,34,35
 589 569 589 569 581.5 552.5 c 128,-1,36
 574 536 574 536 565 536 c 2,37,-1
 397 535 l 2,38,39
 392 535 392 535 390 530.5 c 128,-1,40
 388 526 388 526 388 521 c 2,41,-1
 388 399 l 2,42,43
 388 383 388 383 391 381 c 128,-1,44
 394 379 394 379 401 379 c 2,45,-1
 425 380 l 2,46,47
 465 382 465 382 498.5 371.5 c 128,-1,48
 532 361 532 361 556 338 c 128,-1,49
 580 315 580 315 593.5 280 c 128,-1,50
 607 245 607 245 607 197 c 0,51,52
 607 158 607 158 591 121.5 c 128,-1,53
 575 85 575 85 542.5 56 c 128,-1,54
 510 27 510 27 461 9.5 c 128,-1,55
 412 -8 412 -8 345 -8 c 0,0,1
316 403 m 0,56,57
 316 422 316 422 315 432 c 128,-1,58
 314 442 314 442 308 436 c 0,59,60
 305 433 305 433 303 421 c 128,-1,61
 301 409 301 409 301 395 c 128,-1,62
 301 381 301 381 303 369 c 128,-1,63
 305 357 305 357 308 354 c 256,64,65
 311 351 311 351 312 351 c 0,66,67
 316 351 316 351 316 403 c 0,56,57
324 326 m 0,68,69
 324 336 324 336 319 336 c 0,70,71
 308 336 308 336 308 322 c 0,72,73
 308 315 308 315 316 315 c 0,74,75
 321 315 321 315 322.5 319.5 c 128,-1,76
 324 324 324 324 324 326 c 0,68,69
315 48 m 0,77,78
 314 50 314 50 314.5 54 c 128,-1,79
 315 58 315 58 315.5 61.5 c 128,-1,80
 316 65 316 65 315 67.5 c 128,-1,81
 314 70 314 70 310 70 c 0,82,83
 305 70 305 70 303 61.5 c 128,-1,84
 301 53 301 53 302 42 c 256,85,86
 303 31 303 31 306 21.5 c 128,-1,87
 309 12 309 12 315 12 c 0,88,89
 317 12 317 12 318.5 23 c 128,-1,90
 320 34 320 34 315 48 c 0,77,78
EndSplineSet


EndChar

StartChar: six
Encoding: 54 54 21
Width: 890
Flags: W
LayerCount: 2
Fore
SplineSet
446.5 -11 m 0,0,1
 394.5 -11 394.5 -11 358 8.5 c 128,-1,2
 321.5 28 321.5 28 298.5 61 c 128,-1,3
 275.5 94 275.5 94 265 136.5 c 128,-1,4
 254.5 179 254.5 179 254.5 225 c 0,5,6
 254.5 276 254.5 276 262.5 328.5 c 128,-1,7
 270.5 381 270.5 381 287.5 429 c 128,-1,8
 304.5 477 304.5 477 332 518 c 128,-1,9
 359.5 559 359.5 559 398.5 587 c 0,10,11
 426.5 607 426.5 607 454.5 613.5 c 128,-1,12
 482.5 620 482.5 620 504.5 620 c 0,13,14
 509.5 620 509.5 620 517 618.5 c 128,-1,15
 524.5 617 524.5 617 531.5 614 c 128,-1,16
 538.5 611 538.5 611 544 606 c 128,-1,17
 549.5 601 549.5 601 549.5 593 c 0,18,19
 549.5 579 549.5 579 544.5 567.5 c 128,-1,20
 539.5 556 539.5 556 512.5 547 c 0,21,22
 486.5 538 486.5 538 465.5 521 c 128,-1,23
 444.5 504 444.5 504 428 482.5 c 128,-1,24
 411.5 461 411.5 461 399.5 435.5 c 128,-1,25
 387.5 410 387.5 410 378.5 385 c 0,26,27
 373.5 373 373.5 373 369.5 354.5 c 128,-1,28
 365.5 336 365.5 336 365.5 325 c 0,29,30
 365.5 315 365.5 315 369.5 315 c 0,31,32
 372.5 315 372.5 315 379.5 324.5 c 128,-1,33
 386.5 334 386.5 334 399.5 345 c 128,-1,34
 412.5 356 412.5 356 431.5 365.5 c 128,-1,35
 450.5 375 450.5 375 477.5 375 c 0,36,37
 554.5 375 554.5 375 595 323 c 128,-1,38
 635.5 271 635.5 271 635.5 187 c 0,39,40
 635.5 146 635.5 146 620.5 110 c 128,-1,41
 605.5 74 605.5 74 579.5 47 c 128,-1,42
 553.5 20 553.5 20 519 4.5 c 128,-1,43
 484.5 -11 484.5 -11 446.5 -11 c 0,0,1
441.5 80 m 0,44,45
 483.5 80 483.5 80 509 106.5 c 128,-1,46
 534.5 133 534.5 133 534.5 190 c 0,47,48
 534.5 207 534.5 207 531.5 224 c 128,-1,49
 528.5 241 528.5 241 520.5 255 c 128,-1,50
 512.5 269 512.5 269 499 277.5 c 128,-1,51
 485.5 286 485.5 286 464.5 286 c 0,52,53
 445.5 286 445.5 286 426 276 c 128,-1,54
 406.5 266 406.5 266 391.5 250.5 c 128,-1,55
 376.5 235 376.5 235 367 215.5 c 128,-1,56
 357.5 196 357.5 196 357.5 178 c 0,57,58
 357.5 137 357.5 137 375 108.5 c 128,-1,59
 392.5 80 392.5 80 441.5 80 c 0,44,45
315.5 107 m 0,60,61
 312.5 118 312.5 118 308.5 127.5 c 128,-1,62
 304.5 137 304.5 137 301.5 148 c 0,63,64
 299.5 154 299.5 154 298 159 c 128,-1,65
 296.5 164 296.5 164 292.5 163 c 0,66,67
 289.5 163 289.5 163 287.5 155 c 0,68,69
 286.5 148 286.5 148 290 135 c 128,-1,70
 293.5 122 293.5 122 298.5 110 c 128,-1,71
 303.5 98 303.5 98 309 89.5 c 128,-1,72
 314.5 81 314.5 81 316.5 81 c 0,73,74
 321.5 81 321.5 81 321.5 86 c 0,75,76
 321.5 90 321.5 90 319.5 95 c 128,-1,77
 317.5 100 317.5 100 315.5 107 c 0,60,61
EndSplineSet


EndChar

StartChar: seven
Encoding: 55 55 22
Width: 890
Flags: W
LayerCount: 2
Fore
SplineSet
366.5 -2 m 0,0,1
 352.5 -2 352.5 -2 343 6.5 c 128,-1,2
 333.5 15 333.5 15 333.5 25 c 0,3,4
 333.5 34 333.5 34 343.5 70 c 128,-1,5
 353.5 106 353.5 106 368.5 156 c 128,-1,6
 383.5 206 383.5 206 401.5 263 c 128,-1,7
 419.5 320 419.5 320 436 371 c 128,-1,8
 452.5 422 452.5 422 465.5 461 c 128,-1,9
 478.5 500 478.5 500 483.5 514 c 0,10,11
 488.5 529 488.5 529 476.5 529 c 2,12,-1
 346.5 529 l 2,13,14
 319.5 529 319.5 529 304.5 537.5 c 128,-1,15
 289.5 546 289.5 546 289.5 573 c 256,16,17
 289.5 600 289.5 600 306 608 c 128,-1,18
 322.5 616 322.5 616 348.5 616 c 2,19,-1
 559.5 616 l 2,20,21
 576.5 616 576.5 616 588.5 605.5 c 128,-1,22
 600.5 595 600.5 595 600.5 581 c 0,23,24
 600.5 571 600.5 571 589.5 529 c 128,-1,25
 578.5 487 578.5 487 561 429 c 128,-1,26
 543.5 371 543.5 371 522 303.5 c 128,-1,27
 500.5 236 500.5 236 480.5 176 c 128,-1,28
 460.5 116 460.5 116 444.5 71 c 128,-1,29
 428.5 26 428.5 26 420.5 11 c 0,30,31
 418.5 6 418.5 6 404 2 c 128,-1,32
 389.5 -2 389.5 -2 366.5 -2 c 0,0,1
321.5 594 m 0,33,34
 321.5 602 321.5 602 316.5 602 c 256,35,36
 311.5 602 311.5 602 305 594.5 c 128,-1,37
 298.5 587 298.5 587 298.5 576 c 0,38,39
 298.5 556 298.5 556 306.5 556 c 0,40,41
 309.5 556 309.5 556 312.5 560.5 c 128,-1,42
 315.5 565 315.5 565 317.5 571 c 128,-1,43
 319.5 577 319.5 577 320.5 583.5 c 128,-1,44
 321.5 590 321.5 590 321.5 594 c 0,33,34
366.5 38 m 0,45,46
 368.5 48 368.5 48 370.5 58.5 c 128,-1,47
 372.5 69 372.5 69 374.5 73 c 0,48,49
 378.5 78 378.5 78 377 83 c 128,-1,50
 375.5 88 375.5 88 370.5 88 c 0,51,52
 367.5 88 367.5 88 364 81 c 128,-1,53
 360.5 74 360.5 74 358 64.5 c 128,-1,54
 355.5 55 355.5 55 353.5 45.5 c 128,-1,55
 351.5 36 351.5 36 351.5 31 c 0,56,57
 351.5 19 351.5 19 356.5 19 c 256,58,59
 361.5 19 361.5 19 366.5 38 c 0,45,46
EndSplineSet


EndChar

StartChar: eight
Encoding: 56 56 23
Width: 890
Flags: W
LayerCount: 2
Fore
SplineSet
436.5 -6 m 0,0,1
 396.5 -6 396.5 -6 363 8.5 c 128,-1,2
 329.5 23 329.5 23 306 46.5 c 128,-1,3
 282.5 70 282.5 70 269.5 100.5 c 128,-1,4
 256.5 131 256.5 131 256.5 163 c 0,5,6
 256.5 201 256.5 201 273.5 228 c 128,-1,7
 290.5 255 290.5 255 311 274 c 128,-1,8
 331.5 293 331.5 293 348.5 305.5 c 128,-1,9
 365.5 318 365.5 318 365.5 325 c 0,10,11
 365.5 333 365.5 333 350 342 c 128,-1,12
 334.5 351 334.5 351 315.5 367 c 128,-1,13
 296.5 383 296.5 383 281 407.5 c 128,-1,14
 265.5 432 265.5 432 265.5 471 c 0,15,16
 265.5 503 265.5 503 280 531 c 128,-1,17
 294.5 559 294.5 559 319.5 580 c 128,-1,18
 344.5 601 344.5 601 376.5 613 c 128,-1,19
 408.5 625 408.5 625 443.5 625 c 0,20,21
 469.5 625 469.5 625 499.5 614.5 c 128,-1,22
 529.5 604 529.5 604 555 584.5 c 128,-1,23
 580.5 565 580.5 565 597 536 c 128,-1,24
 613.5 507 613.5 507 613.5 469 c 0,25,26
 613.5 432 613.5 432 599.5 409.5 c 128,-1,27
 585.5 387 585.5 387 569 373.5 c 128,-1,28
 552.5 360 552.5 360 538.5 353 c 128,-1,29
 524.5 346 524.5 346 524.5 340 c 0,30,31
 524.5 331 524.5 331 541.5 319.5 c 128,-1,32
 558.5 308 558.5 308 579 289.5 c 128,-1,33
 599.5 271 599.5 271 616.5 242 c 128,-1,34
 633.5 213 633.5 213 633.5 169 c 0,35,36
 633.5 136 633.5 136 618 104.5 c 128,-1,37
 602.5 73 602.5 73 575.5 48 c 128,-1,38
 548.5 23 548.5 23 513 8.5 c 128,-1,39
 477.5 -6 477.5 -6 436.5 -6 c 0,0,1
308.5 512 m 0,40,41
 309.5 518 309.5 518 314.5 525 c 128,-1,42
 319.5 532 319.5 532 325.5 538.5 c 128,-1,43
 331.5 545 331.5 545 337 550.5 c 128,-1,44
 342.5 556 342.5 556 345.5 559 c 0,45,46
 356.5 571 356.5 571 356.5 578 c 0,47,48
 356.5 582 356.5 582 352.5 582 c 0,49,50
 343.5 582 343.5 582 333 572.5 c 128,-1,51
 322.5 563 322.5 563 313.5 549.5 c 128,-1,52
 304.5 536 304.5 536 298.5 522.5 c 128,-1,53
 292.5 509 292.5 509 292.5 501 c 256,54,55
 292.5 493 292.5 493 296.5 493 c 0,56,57
 303.5 493 303.5 493 308.5 512 c 0,40,41
443.5 371 m 0,58,59
 456.5 371 456.5 371 469 379.5 c 128,-1,60
 481.5 388 481.5 388 491.5 402 c 128,-1,61
 501.5 416 501.5 416 508 433.5 c 128,-1,62
 514.5 451 514.5 451 514.5 469 c 0,63,64
 514.5 504 514.5 504 494.5 529.5 c 128,-1,65
 474.5 555 474.5 555 442.5 555 c 256,66,67
 410.5 555 410.5 555 387.5 533 c 128,-1,68
 364.5 511 364.5 511 364.5 473 c 0,69,70
 364.5 459 364.5 459 369.5 441.5 c 128,-1,71
 374.5 424 374.5 424 384.5 408 c 128,-1,72
 394.5 392 394.5 392 409.5 381.5 c 128,-1,73
 424.5 371 424.5 371 443.5 371 c 0,58,59
298.5 469 m 0,74,75
 298.5 478 298.5 478 291.5 478 c 0,76,77
 286.5 478 286.5 478 285 475 c 128,-1,78
 283.5 472 283.5 472 283.5 469 c 0,79,80
 283.5 467 283.5 467 284.5 465 c 0,81,82
 286.5 461 286.5 461 290.5 461 c 0,83,84
 292.5 461 292.5 461 295.5 463 c 128,-1,85
 298.5 465 298.5 465 298.5 469 c 0,74,75
438.5 73 m 0,86,87
 486.5 73 486.5 73 504 98 c 128,-1,88
 521.5 123 521.5 123 521.5 169 c 0,89,90
 521.5 188 521.5 188 514 208.5 c 128,-1,91
 506.5 229 506.5 229 495 246 c 128,-1,92
 483.5 263 483.5 263 470.5 274 c 128,-1,93
 457.5 285 457.5 285 446.5 285 c 0,94,95
 431.5 285 431.5 285 416.5 273.5 c 128,-1,96
 401.5 262 401.5 262 389.5 244.5 c 128,-1,97
 377.5 227 377.5 227 370 205.5 c 128,-1,98
 362.5 184 362.5 184 362.5 163 c 0,99,100
 362.5 147 362.5 147 368 131 c 128,-1,101
 373.5 115 373.5 115 383 102 c 128,-1,102
 392.5 89 392.5 89 406.5 81 c 128,-1,103
 420.5 73 420.5 73 438.5 73 c 0,86,87
302.5 222 m 256,104,105
 305.5 230 305.5 230 302.5 233 c 128,-1,106
 299.5 236 299.5 236 292.5 229 c 0,107,108
 289.5 226 289.5 226 284.5 218.5 c 128,-1,109
 279.5 211 279.5 211 275 202 c 128,-1,110
 270.5 193 270.5 193 267 183.5 c 128,-1,111
 263.5 174 263.5 174 263.5 166 c 0,112,113
 262.5 158 262.5 158 266 150.5 c 128,-1,114
 269.5 143 269.5 143 276.5 143 c 0,115,116
 284.5 143 284.5 143 283.5 155.5 c 128,-1,117
 282.5 168 282.5 168 284.5 179 c 0,118,119
 287.5 194 287.5 194 293.5 204 c 128,-1,120
 299.5 214 299.5 214 302.5 222 c 256,104,105
EndSplineSet


EndChar

StartChar: nine
Encoding: 57 57 24
Width: 890
Flags: W
LayerCount: 2
Fore
SplineSet
443 623 m 0,0,1
 498 623 498 623 535 601.5 c 128,-1,2
 572 580 572 580 594 546 c 128,-1,3
 616 512 616 512 625.5 470 c 128,-1,4
 635 428 635 428 635 387 c 0,5,6
 635 336 635 336 623.5 284 c 128,-1,7
 612 232 612 232 591.5 185 c 128,-1,8
 571 138 571 138 543 99 c 128,-1,9
 515 60 515 60 482 34 c 0,10,11
 455 13 455 13 426.5 2.5 c 128,-1,12
 398 -8 398 -8 376 -8 c 0,13,14
 358 -8 358 -8 345.5 -1.5 c 128,-1,15
 333 5 333 5 333 21 c 0,16,17
 333 36 333 36 341 51.5 c 128,-1,18
 349 67 349 67 376 76 c 0,19,20
 402 85 402 85 422.5 100 c 128,-1,21
 443 115 443 115 459 135 c 128,-1,22
 475 155 475 155 486.5 178.5 c 128,-1,23
 498 202 498 202 507 227 c 0,24,25
 512 239 512 239 516 257.5 c 128,-1,26
 520 276 520 276 520 287 c 0,27,28
 520 297 520 297 516 297 c 0,29,30
 513 297 513 297 506.5 289 c 128,-1,31
 500 281 500 281 487 272 c 128,-1,32
 474 263 474 263 454 255 c 128,-1,33
 434 247 434 247 404 247 c 0,34,35
 334 247 334 247 294.5 295 c 128,-1,36
 255 343 255 343 255 425 c 0,37,38
 255 463 255 463 267 499 c 128,-1,39
 279 535 279 535 303 562.5 c 128,-1,40
 327 590 327 590 362 606.5 c 128,-1,41
 397 623 397 623 443 623 c 0,0,1
448 535 m 0,42,43
 406 535 406 535 380.5 508 c 128,-1,44
 355 481 355 481 355 432 c 0,45,46
 355 390 355 390 373.5 364.5 c 128,-1,47
 392 339 392 339 425 339 c 0,48,49
 445 339 445 339 463.5 347 c 128,-1,50
 482 355 482 355 496 368 c 128,-1,51
 510 381 510 381 519 398.5 c 128,-1,52
 528 416 528 416 528 434 c 0,53,54
 528 455 528 455 524.5 473 c 128,-1,55
 521 491 521 491 512 505 c 128,-1,56
 503 519 503 519 487.5 527 c 128,-1,57
 472 535 472 535 448 535 c 0,42,43
305 486 m 0,58,59
 307 496 307 496 309.5 503.5 c 128,-1,60
 312 511 312 511 312 517 c 0,61,62
 312 524 312 524 305 524 c 0,63,64
 302 524 302 524 296.5 511 c 128,-1,65
 291 498 291 498 286.5 480 c 128,-1,66
 282 462 282 462 279 444 c 128,-1,67
 276 426 276 426 278 415 c 0,68,69
 281 403 281 403 286 403 c 256,70,71
 291 403 291 403 293.5 410.5 c 128,-1,72
 296 418 296 418 298 426 c 0,73,74
 302 443 302 443 302 457 c 128,-1,75
 302 471 302 471 305 486 c 0,58,59
301 380 m 0,76,77
 301 385 301 385 299.5 388.5 c 128,-1,78
 298 392 298 392 295 392 c 0,79,80
 290 392 290 392 286 389 c 128,-1,81
 282 386 282 386 282 376 c 0,82,83
 282 373 282 373 284.5 370 c 128,-1,84
 287 367 287 367 291 367 c 0,85,86
 297 367 297 367 299 372.5 c 128,-1,87
 301 378 301 378 301 380 c 0,76,77
373 58 m 2,88,89
 373 61 373 61 368.5 60 c 128,-1,90
 364 59 364 59 359 55 c 128,-1,91
 354 51 354 51 350 44 c 128,-1,92
 346 37 346 37 346 28 c 0,93,94
 346 26 346 26 347.5 20 c 128,-1,95
 349 14 349 14 353 14 c 0,96,97
 356 14 356 14 359.5 20.5 c 128,-1,98
 363 27 363 27 366 35.5 c 128,-1,99
 369 44 369 44 371 51 c 128,-1,100
 373 58 373 58 373 58 c 2,88,89
EndSplineSet


EndChar

StartChar: colon
Encoding: 58 58 25
Width: 890
Flags: W
LayerCount: 2
Fore
SplineSet
383 54 m 0,0,1
 383 91 383 91 401 106 c 128,-1,2
 419 121 419 121 444 121 c 0,3,4
 470 121 470 121 488.5 106 c 128,-1,5
 507 91 507 91 507 54 c 0,6,7
 507 18 507 18 488.5 2 c 128,-1,8
 470 -14 470 -14 444 -14 c 0,9,10
 419 -14 419 -14 401 2 c 128,-1,11
 383 18 383 18 383 54 c 0,0,1
383 482 m 0,12,13
 383 520 383 520 401 535 c 128,-1,14
 419 550 419 550 444 550 c 0,15,16
 470 550 470 550 488.5 535 c 128,-1,17
 507 520 507 520 507 482 c 0,18,19
 507 446 507 446 488.5 430 c 128,-1,20
 470 414 470 414 444 414 c 0,21,22
 419 414 419 414 401 430 c 128,-1,23
 383 446 383 446 383 482 c 0,12,13
EndSplineSet
EndChar

StartChar: semicolon
Encoding: 59 59 26
Width: 890
Flags: W
LayerCount: 2
Fore
SplineSet
515.5 105 m 1,0,1
 506.5 70 506.5 70 492.5 29 c 128,-1,2
 478.5 -12 478.5 -12 462 -52.5 c 128,-1,3
 445.5 -93 445.5 -93 429.5 -129 c 1,4,-1
 363.5 -129 l 1,5,6
 370.5 -101 370.5 -101 378 -69 c 128,-1,7
 385.5 -37 385.5 -37 392.5 -4.5 c 128,-1,8
 399.5 28 399.5 28 405 59 c 128,-1,9
 410.5 90 410.5 90 414.5 116 c 1,10,-1
 508.5 116 l 1,11,-1
 515.5 105 l 1,0,1
402.5 482 m 0,12,13
 402.5 520 402.5 520 420.5 535 c 128,-1,14
 438.5 550 438.5 550 463.5 550 c 0,15,16
 489.5 550 489.5 550 508 535 c 128,-1,17
 526.5 520 526.5 520 526.5 482 c 0,18,19
 526.5 446 526.5 446 508 430 c 128,-1,20
 489.5 414 489.5 414 463.5 414 c 0,21,22
 438.5 414 438.5 414 420.5 430 c 128,-1,23
 402.5 446 402.5 446 402.5 482 c 0,12,13
EndSplineSet
EndChar

StartChar: less
Encoding: 60 60 27
Width: 890
Flags: W
LayerCount: 2
Fore
SplineSet
680.5 116 m 1,0,-1
 209.5 323 l 1,1,-1
 209.5 373 l 1,2,-1
 680.5 608 l 1,3,-1
 680.5 530 l 1,4,-1
 303.5 352 l 1,5,-1
 680.5 194 l 1,6,-1
 680.5 116 l 1,0,-1
EndSplineSet
EndChar

StartChar: equal
Encoding: 61 61 28
Width: 890
Flags: W
LayerCount: 2
Fore
SplineSet
216 416 m 1,0,-1
 216 487 l 1,1,-1
 674 487 l 1,2,-1
 674 416 l 1,3,-1
 216 416 l 1,0,-1
216 217 m 1,4,-1
 216 288 l 1,5,-1
 674 288 l 1,6,-1
 674 217 l 1,7,-1
 216 217 l 1,4,-1
EndSplineSet
EndChar

StartChar: greater
Encoding: 62 62 29
Width: 890
Flags: W
LayerCount: 2
Fore
SplineSet
209.5 194 m 1,0,-1
 586.5 351 l 1,1,-1
 209.5 530 l 1,2,-1
 209.5 608 l 1,3,-1
 680.5 373 l 1,4,-1
 680.5 323 l 1,5,-1
 209.5 116 l 1,6,-1
 209.5 194 l 1,0,-1
EndSplineSet
EndChar

StartChar: question
Encoding: 63 63 30
Width: 890
Flags: W
LayerCount: 2
Fore
SplineSet
375 199 m 6,0,1
 375 237 375 237 382.5 264.5 c 132,-1,2
 390 292 390 292 408.5 317 c 132,-1,3
 427 342 427 342 459 369 c 4,4,5
 498 402 498 402 519.5 424 c 132,-1,6
 541 446 541 446 550 467 c 132,-1,7
 559 488 559 488 559 518 c 4,8,9
 559 566 559 566 528 592 c 132,-1,10
 497 618 497 618 438 618 c 4,11,12
 389 618 389 618 351 605.5 c 132,-1,13
 313 593 313 593 278 576 c 5,14,-1
 247 646 l 5,15,16
 287 667 287 667 335.5 681 c 132,-1,17
 384 695 384 695 444 695 c 4,18,19
 539 695 539 695 591 648 c 132,-1,20
 643 601 643 601 643 520 c 4,21,22
 643 475 643 475 628.5 443.5 c 132,-1,23
 614 412 614 412 587.5 385.5 c 132,-1,24
 561 359 561 359 525 329 c 4,25,26
 492 301 492 301 474.5 280 c 132,-1,27
 457 259 457 259 451 238.5 c 132,-1,28
 445 218 445 218 445 189 c 6,29,-1
 445 172 l 5,30,-1
 375 172 l 5,31,-1
 375 199 l 6,0,1
352 25 m 4,32,33
 352 62 352 62 369.5 77 c 132,-1,34
 387 92 387 92 414 92 c 4,35,36
 439 92 439 92 457 77 c 132,-1,37
 475 62 475 62 475 25 c 4,38,39
 475 -11 475 -11 457 -27 c 132,-1,40
 439 -43 439 -43 414 -43 c 4,41,42
 387 -43 387 -43 369.5 -27 c 132,-1,43
 352 -11 352 -11 352 25 c 4,32,33
EndSplineSet
EndChar

StartChar: bracketleft
Encoding: 91 91 31
Width: 890
Flags: W
LayerCount: 2
Fore
SplineSet
349.930664062 -70 m 0,0,1
 346.930664062 -67 346.930664062 -67 345.430664062 -56.5 c 128,-1,2
 343.930664062 -46 343.930664062 -46 342.930664062 -12.5 c 128,-1,3
 341.930664062 21 341.930664062 21 341.930664062 86.5 c 128,-1,4
 341.930664062 152 341.930664062 152 341.930664062 266 c 0,5,6
 341.930664062 347 341.930664062 347 341.930664062 405 c 128,-1,7
 341.930664062 463 341.930664062 463 341.930664062 503.5 c 128,-1,8
 341.930664062 544 341.930664062 544 342.930664062 570 c 128,-1,9
 343.930664062 596 343.930664062 596 345.930664062 611.5 c 128,-1,10
 347.930664062 627 347.930664062 627 350.930664062 635 c 128,-1,11
 353.930664062 643 353.930664062 643 358.930664062 649 c 0,12,13
 362.930664062 654 362.930664062 654 374.430664062 657 c 128,-1,14
 385.930664062 660 385.930664062 660 401.430664062 661.5 c 128,-1,15
 416.930664062 663 416.930664062 663 436.430664062 663.5 c 128,-1,16
 455.930664062 664 455.930664062 664 475.930664062 664 c 0,17,18
 516.930664062 664 516.930664062 664 537.430664062 650 c 128,-1,19
 557.930664062 636 557.930664062 636 538.930664062 616 c 0,20,21
 533.930664062 610 533.930664062 610 519.930664062 606 c 128,-1,22
 505.930664062 602 505.930664062 602 475.930664062 602 c 0,23,24
 461.930664062 602 461.930664062 602 454.430664062 600 c 128,-1,25
 446.930664062 598 446.930664062 598 443.930664062 593 c 128,-1,26
 440.930664062 588 440.930664062 588 440.930664062 579.5 c 128,-1,27
 440.930664062 571 440.930664062 571 440.930664062 557 c 2,28,-1
 440.930664062 -20 l 1,29,-1
 458.930664062 -20 l 2,30,31
 501.930664062 -20 501.930664062 -20 516.430664062 -27.5 c 128,-1,32
 530.930664062 -35 530.930664062 -35 530.930664062 -56 c 0,33,34
 530.930664062 -66 530.930664062 -66 527.430664062 -71.5 c 128,-1,35
 523.930664062 -77 523.930664062 -77 513.430664062 -79.5 c 128,-1,36
 502.930664062 -82 502.930664062 -82 484.930664062 -82.5 c 128,-1,37
 466.930664062 -83 466.930664062 -83 436.930664062 -83 c 0,38,39
 409.930664062 -83 409.930664062 -83 394.430664062 -83 c 128,-1,40
 378.930664062 -83 378.930664062 -83 369.930664062 -81.5 c 128,-1,41
 360.930664062 -80 360.930664062 -80 356.930664062 -77.5 c 128,-1,42
 352.930664062 -75 352.930664062 -75 349.930664062 -70 c 0,0,1
386.930664062 616 m 256,43,44
 388.930664062 624 388.930664062 624 397.930664062 630 c 128,-1,45
 406.930664062 636 406.930664062 636 412.930664062 636 c 0,46,47
 421.930664062 636 421.930664062 636 421.930664062 643 c 0,48,49
 421.930664062 644 421.930664062 644 420.430664062 644 c 128,-1,50
 418.930664062 644 418.930664062 644 412.930664062 644 c 0,51,52
 397.930664062 644 397.930664062 644 383.930664062 634 c 128,-1,53
 369.930664062 624 369.930664062 624 369.930664062 610 c 0,54,55
 369.930664062 598 369.930664062 598 373.930664062 598 c 256,56,57
 377.930664062 598 377.930664062 598 381.430664062 603 c 128,-1,58
 384.930664062 608 384.930664062 608 386.930664062 616 c 256,43,44
EndSplineSet

EndChar

StartChar: backslash
Encoding: 92 92 32
Width: 890
Flags: W
LayerCount: 2
Fore
SplineSet
331.5 666 m 0,0,1
 338.5 666 338.5 666 356.5 630.5 c 128,-1,2
 374.5 595 374.5 595 398 541 c 128,-1,3
 421.5 487 421.5 487 447.5 422.5 c 128,-1,4
 473.5 358 473.5 358 496.5 299.5 c 128,-1,5
 519.5 241 519.5 241 536 197.5 c 128,-1,6
 552.5 154 552.5 154 558.5 142 c 0,7,8
 564.5 129 564.5 129 576 101.5 c 128,-1,9
 587.5 74 587.5 74 599 44.5 c 128,-1,10
 610.5 15 610.5 15 619 -10.5 c 128,-1,11
 627.5 -36 627.5 -36 627.5 -44 c 0,12,13
 627.5 -51 627.5 -51 622.5 -57 c 128,-1,14
 617.5 -63 617.5 -63 610 -67.5 c 128,-1,15
 602.5 -72 602.5 -72 594 -74.5 c 128,-1,16
 585.5 -77 585.5 -77 578.5 -77 c 0,17,18
 564.5 -77 564.5 -77 553 -67.5 c 128,-1,19
 541.5 -58 541.5 -58 534.5 -47 c 0,20,21
 528.5 -37 528.5 -37 513.5 -3 c 128,-1,22
 498.5 31 498.5 31 478.5 79.5 c 128,-1,23
 458.5 128 458.5 128 434.5 187 c 128,-1,24
 410.5 246 410.5 246 386.5 306 c 128,-1,25
 362.5 366 362.5 366 340 423 c 128,-1,26
 317.5 480 317.5 480 300.5 525 c 128,-1,27
 283.5 570 283.5 570 273 598.5 c 128,-1,28
 262.5 627 262.5 627 262.5 630 c 0,29,30
 262.5 639 262.5 639 271.5 646 c 128,-1,31
 280.5 653 280.5 653 292.5 657.5 c 128,-1,32
 304.5 662 304.5 662 316 664 c 128,-1,33
 327.5 666 327.5 666 331.5 666 c 0,0,1
306.5 626 m 0,34,35
 304.5 631 304.5 631 297 629 c 128,-1,36
 289.5 627 289.5 627 289.5 620 c 0,37,38
 289.5 614 289.5 614 294.5 599.5 c 128,-1,39
 299.5 585 299.5 585 306 569.5 c 128,-1,40
 312.5 554 312.5 554 319 540.5 c 128,-1,41
 325.5 527 325.5 527 327.5 523 c 0,42,43
 330.5 518 330.5 518 335.5 518 c 128,-1,44
 340.5 518 340.5 518 342.5 519 c 0,45,46
 347.5 520 347.5 520 344 532.5 c 128,-1,47
 340.5 545 340.5 545 333.5 561.5 c 128,-1,48
 326.5 578 326.5 578 318.5 596 c 128,-1,49
 310.5 614 310.5 614 306.5 626 c 0,34,35
EndSplineSet
EndChar

StartChar: bracketright
Encoding: 93 93 33
Width: 890
Flags: W
LayerCount: 2
Fore
SplineSet
374.75 -80 m 0,0,1
 359.75 -80 359.75 -80 349.25 -71.5 c 128,-1,2
 338.75 -63 338.75 -63 338.75 -55 c 0,3,4
 338.75 -33 338.75 -33 352.25 -25 c 128,-1,5
 365.75 -17 365.75 -17 385.75 -17 c 0,6,7
 409.75 -17 409.75 -17 423.25 -15 c 128,-1,8
 436.75 -13 436.75 -13 443.25 -8.5 c 128,-1,9
 449.75 -4 449.75 -4 451.25 3.5 c 128,-1,10
 452.75 11 452.75 11 452.75 21 c 2,11,-1
 452.75 551 l 2,12,13
 452.75 580 452.75 580 440.75 590 c 128,-1,14
 428.75 600 428.75 600 417.75 600 c 256,15,16
 406.75 600 406.75 600 394.75 598 c 128,-1,17
 382.75 596 382.75 596 371.75 596 c 0,18,19
 357.75 596 357.75 596 348.25 603 c 128,-1,20
 338.75 610 338.75 610 338.75 633 c 0,21,22
 338.75 645 338.75 645 355.25 653.5 c 128,-1,23
 371.75 662 371.75 662 400.75 662 c 0,24,25
 425.75 662 425.75 662 449.75 662 c 128,-1,26
 473.75 662 473.75 662 493.25 660.5 c 128,-1,27
 512.75 659 512.75 659 525.75 656 c 128,-1,28
 538.75 653 538.75 653 541.75 647 c 0,29,30
 544.75 642 544.75 642 545.25 625.5 c 128,-1,31
 545.75 609 545.75 609 545.75 570.5 c 128,-1,32
 545.75 532 545.75 532 546.25 466 c 128,-1,33
 546.75 400 546.75 400 547.75 295 c 0,34,35
 549.75 193 549.75 193 550.75 127.5 c 128,-1,36
 551.75 62 551.75 62 550.75 21 c 0,37,38
 550.75 -7 550.75 -7 546.75 -25 c 128,-1,39
 542.75 -43 542.75 -43 536.75 -54 c 128,-1,40
 530.75 -65 530.75 -65 522.25 -70 c 128,-1,41
 513.75 -75 513.75 -75 503.75 -76 c 0,42,43
 485.75 -78 485.75 -78 464.25 -79 c 128,-1,44
 442.75 -80 442.75 -80 423.75 -80 c 128,-1,45
 404.75 -80 404.75 -80 390.75 -80 c 128,-1,46
 376.75 -80 376.75 -80 374.75 -80 c 0,0,1
369.75 644 m 256,47,48
 365.75 649 365.75 649 358.75 645 c 128,-1,49
 351.75 641 351.75 641 351.75 633 c 0,50,51
 351.75 623 351.75 623 355.75 623 c 256,52,53
 359.75 623 359.75 623 359.75 630 c 0,54,55
 360.75 634 360.75 634 367.25 636.5 c 128,-1,56
 373.75 639 373.75 639 369.75 644 c 256,47,48
EndSplineSet
EndChar

StartChar: asciicircum
Encoding: 94 94 34
Width: 890
Flags: W
LayerCount: 2
Fore
SplineSet
197 267 m 1,0,-1
 409 719 l 1,1,-1
 459 719 l 1,2,-1
 693 267 l 1,3,-1
 615 267 l 1,4,-1
 435 626 l 1,5,-1
 275 267 l 1,6,-1
 197 267 l 1,0,-1
EndSplineSet
EndChar

StartChar: underscore
Encoding: 95 95 35
Width: 890
Flags: W
LayerCount: 2
Fore
SplineSet
669 -154 m 1,0,-1
 221 -154 l 1,1,-1
 221 -90 l 1,2,-1
 669 -90 l 1,3,-1
 669 -154 l 1,0,-1
EndSplineSet
EndChar

StartChar: braceleft
Encoding: 123 123 36
Width: 890
Flags: W
LayerCount: 2
Fore
SplineSet
521.5 -77 m 0,0,1
 468.5 -77 468.5 -77 438.5 -62 c 128,-1,2
 408.5 -47 408.5 -47 393 -21 c 128,-1,3
 377.5 5 377.5 5 373 39 c 128,-1,4
 368.5 73 368.5 73 366.5 111 c 0,5,6
 364.5 156 364.5 156 354 178 c 128,-1,7
 343.5 200 343.5 200 332 213 c 128,-1,8
 320.5 226 320.5 226 311.5 238 c 128,-1,9
 302.5 250 302.5 250 302.5 276 c 256,10,11
 302.5 302 302.5 302 315.5 315.5 c 128,-1,12
 328.5 329 328.5 329 344.5 345 c 128,-1,13
 360.5 361 360.5 361 374.5 387.5 c 128,-1,14
 388.5 414 388.5 414 390.5 466 c 0,15,16
 392.5 505 392.5 505 395.5 540.5 c 128,-1,17
 398.5 576 398.5 576 412 602.5 c 128,-1,18
 425.5 629 425.5 629 454 644.5 c 128,-1,19
 482.5 660 482.5 660 536.5 660 c 0,20,21
 551.5 660 551.5 660 561.5 656 c 128,-1,22
 571.5 652 571.5 652 577.5 646 c 128,-1,23
 583.5 640 583.5 640 585.5 633.5 c 128,-1,24
 587.5 627 587.5 627 587.5 622 c 0,25,26
 587.5 606 587.5 606 575 602 c 128,-1,27
 562.5 598 562.5 598 545.5 596.5 c 128,-1,28
 528.5 595 528.5 595 510.5 591 c 128,-1,29
 492.5 587 492.5 587 480.5 572 c 0,30,31
 472.5 562 472.5 562 473.5 540.5 c 128,-1,32
 474.5 519 474.5 519 477.5 492.5 c 128,-1,33
 480.5 466 480.5 466 482 436 c 128,-1,34
 483.5 406 483.5 406 477.5 378 c 0,35,36
 474.5 364 474.5 364 461 348 c 128,-1,37
 447.5 332 447.5 332 433.5 318 c 128,-1,38
 419.5 304 419.5 304 408 293 c 128,-1,39
 396.5 282 396.5 282 396.5 277 c 256,40,41
 396.5 272 396.5 272 407.5 260.5 c 128,-1,42
 418.5 249 418.5 249 431.5 232 c 128,-1,43
 444.5 215 444.5 215 455.5 192.5 c 128,-1,44
 466.5 170 466.5 170 466.5 143 c 0,45,46
 466.5 135 466.5 135 465.5 115.5 c 128,-1,47
 464.5 96 464.5 96 464 74.5 c 128,-1,48
 463.5 53 463.5 53 465 34 c 128,-1,49
 466.5 15 466.5 15 471.5 9 c 0,50,51
 480.5 -2 480.5 -2 493.5 -10 c 128,-1,52
 506.5 -18 506.5 -18 523.5 -18 c 0,53,54
 531.5 -18 531.5 -18 541 -18.5 c 128,-1,55
 550.5 -19 550.5 -19 558 -21.5 c 128,-1,56
 565.5 -24 565.5 -24 570.5 -30 c 128,-1,57
 575.5 -36 575.5 -36 575.5 -47 c 0,58,59
 575.5 -56 575.5 -56 570 -62 c 128,-1,60
 564.5 -68 564.5 -68 556.5 -71.5 c 128,-1,61
 548.5 -75 548.5 -75 539 -76 c 128,-1,62
 529.5 -77 529.5 -77 521.5 -77 c 0,0,1
440.5 584 m 0,63,64
 447.5 594 447.5 594 456 601.5 c 128,-1,65
 464.5 609 464.5 609 472 615 c 128,-1,66
 479.5 621 479.5 621 484 626 c 128,-1,67
 488.5 631 488.5 631 488.5 636 c 0,68,69
 488.5 640 488.5 640 483.5 640 c 0,70,71
 476.5 640 476.5 640 465.5 633 c 128,-1,72
 454.5 626 454.5 626 444.5 616 c 128,-1,73
 434.5 606 434.5 606 427.5 594.5 c 128,-1,74
 420.5 583 420.5 583 420.5 574 c 0,75,76
 420.5 572 420.5 572 422.5 571 c 128,-1,77
 424.5 570 424.5 570 425.5 570 c 0,78,79
 430.5 570 430.5 570 434 575 c 128,-1,80
 437.5 580 437.5 580 440.5 584 c 0,63,64
EndSplineSet

EndChar

StartChar: bar
Encoding: 124 124 37
Width: 890
Flags: W
LayerCount: 2
Fore
SplineSet
447 -99 m 256,0,1
 420 -99 420 -99 408.5 -80 c 128,-1,2
 397 -61 397 -61 397 -43 c 2,3,-1
 398 666 l 2,4,5
 398 682 398 682 408.5 694 c 128,-1,6
 419 706 419 706 439 706 c 0,7,8
 463 706 463 706 477 698 c 128,-1,9
 491 690 491 690 493 672 c 2,10,-1
 493 -38 l 2,11,12
 493 -60 493 -60 483.5 -79.5 c 128,-1,13
 474 -99 474 -99 447 -99 c 256,0,1
425 653 m 0,14,15
 425 664 425 664 427.5 671.5 c 128,-1,16
 430 679 430 679 431.5 683.5 c 128,-1,17
 433 688 433 688 433 690 c 128,-1,18
 433 692 433 692 428 692 c 0,19,20
 422 692 422 692 418.5 686.5 c 128,-1,21
 415 681 415 681 413 673.5 c 128,-1,22
 411 666 411 666 410.5 658.5 c 128,-1,23
 410 651 410 651 410 646 c 0,24,25
 410 633 410 633 413 622.5 c 128,-1,26
 416 612 416 612 422 612 c 0,27,28
 425 612 425 612 425.5 616.5 c 128,-1,29
 426 621 426 621 426 628 c 128,-1,30
 426 635 426 635 425.5 642 c 128,-1,31
 425 649 425 649 425 653 c 0,14,15
EndSplineSet
EndChar

StartChar: braceright
Encoding: 125 125 38
Width: 890
Flags: W
LayerCount: 2
Fore
SplineSet
371 -74 m 0,0,1
 364 -74 364 -74 355 -72.5 c 128,-1,2
 346 -71 346 -71 337.5 -67 c 128,-1,3
 329 -63 329 -63 323 -57 c 128,-1,4
 317 -51 317 -51 317 -42 c 0,5,6
 317 -34 317 -34 322 -29.5 c 128,-1,7
 327 -25 327 -25 333.5 -23 c 128,-1,8
 340 -21 340 -21 348 -21 c 128,-1,9
 356 -21 356 -21 362 -21 c 0,10,11
 389 -21 389 -21 401 -12.5 c 128,-1,12
 413 -4 413 -4 417.5 10.5 c 128,-1,13
 422 25 422 25 422 43 c 128,-1,14
 422 61 422 61 424 80 c 0,15,16
 426 97 426 97 428 122.5 c 128,-1,17
 430 148 430 148 435.5 175 c 128,-1,18
 441 202 441 202 449.5 226.5 c 128,-1,19
 458 251 458 251 471 264 c 0,20,21
 473 267 473 267 481 271.5 c 128,-1,22
 489 276 489 276 489 280 c 0,23,24
 489 286 489 286 477.5 289.5 c 128,-1,25
 466 293 466 293 462 296 c 0,26,27
 446 306 446 306 435.5 334 c 128,-1,28
 425 362 425 362 419.5 395 c 128,-1,29
 414 428 414 428 411.5 459 c 128,-1,30
 409 490 409 490 408 505 c 0,31,32
 407 514 407 514 407.5 529 c 128,-1,33
 408 544 408 544 406.5 558 c 128,-1,34
 405 572 405 572 401.5 583 c 128,-1,35
 398 594 398 594 389 596 c 0,36,37
 371 601 371 601 353 599 c 0,38,39
 324 597 324 597 311.5 605.5 c 128,-1,40
 299 614 299 614 299 631 c 0,41,42
 299 653 299 653 321.5 660.5 c 128,-1,43
 344 668 344 668 377 663 c 0,44,45
 413 659 413 659 436.5 642.5 c 128,-1,46
 460 626 460 626 474 603 c 128,-1,47
 488 580 488 580 494.5 553.5 c 128,-1,48
 501 527 501 527 503 502 c 0,49,50
 505 472 505 472 506 443 c 128,-1,51
 507 414 507 414 511.5 389 c 128,-1,52
 516 364 516 364 526.5 344.5 c 128,-1,53
 537 325 537 325 558 315 c 0,54,55
 567 311 567 311 579 301.5 c 128,-1,56
 591 292 591 292 591 281 c 0,57,58
 591 273 591 273 585 267.5 c 128,-1,59
 579 262 579 262 573 257 c 0,60,61
 553 242 553 242 544 227.5 c 128,-1,62
 535 213 535 213 531.5 197.5 c 128,-1,63
 528 182 528 182 528 164.5 c 128,-1,64
 528 147 528 147 527 126 c 0,65,66
 525 87 525 87 521.5 51 c 128,-1,67
 518 15 518 15 503.5 -12.5 c 128,-1,68
 489 -40 489 -40 458 -57 c 128,-1,69
 427 -74 427 -74 371 -74 c 0,0,1
324 616 m 0,70,71
 327 616 327 616 330.5 620.5 c 128,-1,72
 334 625 334 625 336.5 630.5 c 128,-1,73
 339 636 339 636 340.5 641.5 c 128,-1,74
 342 647 342 647 342 649 c 0,75,76
 342 656 342 656 335 656 c 0,77,78
 329 656 329 656 325 652 c 128,-1,79
 321 648 321 648 318.5 643 c 128,-1,80
 316 638 316 638 315 632.5 c 128,-1,81
 314 627 314 627 315 625 c 0,82,83
 318 616 318 616 324 616 c 0,70,71
EndSplineSet
EndChar

StartChar: asciitilde
Encoding: 126 126 39
Width: 890
Flags: W
LayerCount: 2
Fore
SplineSet
428.5 319 m 0,0,1
 392.5 335 392.5 335 369 340.5 c 128,-1,2
 345.5 346 345.5 346 323.5 346 c 0,3,4
 295.5 346 295.5 346 264.5 329 c 128,-1,5
 233.5 312 233.5 312 209.5 287 c 1,6,-1
 209.5 365 l 1,7,8
 233.5 391 233.5 391 263.5 404.5 c 128,-1,9
 293.5 418 293.5 418 329.5 418 c 0,10,11
 358.5 418 358.5 418 387 412 c 128,-1,12
 415.5 406 415.5 406 461.5 386 c 0,13,14
 497.5 370 497.5 370 521 364.5 c 128,-1,15
 544.5 359 544.5 359 565.5 359 c 0,16,17
 594.5 359 594.5 359 625.5 376 c 128,-1,18
 656.5 393 656.5 393 680.5 418 c 1,19,-1
 680.5 341 l 1,20,21
 656.5 315 656.5 315 626.5 301 c 128,-1,22
 596.5 287 596.5 287 560.5 287 c 0,23,24
 532.5 287 532.5 287 503 293.5 c 128,-1,25
 473.5 300 473.5 300 428.5 319 c 0,0,1
EndSplineSet
EndChar

StartChar: A
Encoding: 65 65 40
Width: 890
GlyphClass: 2
Flags: W
LayerCount: 2
Fore
SplineSet
400.5 -8 m 0,0,1
 333.5 -8 333.5 -8 296 71 c 128,-1,2
 258.5 150 258.5 150 258.5 291 c 0,3,4
 258.5 444 258.5 444 302.5 530 c 128,-1,5
 346.5 616 346.5 616 426.5 621 c 0,6,7
 455.5 623 455.5 623 474 614.5 c 128,-1,8
 492.5 606 492.5 606 504.5 595 c 128,-1,9
 516.5 584 516.5 584 522.5 575 c 128,-1,10
 528.5 566 528.5 566 531.5 566 c 256,11,12
 534.5 566 534.5 566 535.5 575 c 128,-1,13
 536.5 584 536.5 584 540.5 595 c 128,-1,14
 544.5 606 544.5 606 553 615 c 128,-1,15
 561.5 624 561.5 624 580.5 624 c 256,16,17
 599.5 624 599.5 624 612.5 615 c 128,-1,18
 625.5 606 625.5 606 625.5 592 c 2,19,-1
 625.5 204 l 2,20,21
 625.5 163 625.5 163 628.5 126.5 c 128,-1,22
 631.5 90 631.5 90 631.5 71 c 0,23,24
 631.5 36 631.5 36 618 14 c 128,-1,25
 604.5 -8 604.5 -8 583.5 -8 c 0,26,27
 559.5 -8 559.5 -8 544.5 19 c 128,-1,28
 529.5 46 529.5 46 529.5 88 c 0,29,30
 529.5 114 529.5 114 524.5 114 c 0,31,32
 520.5 114 520.5 114 513.5 95 c 128,-1,33
 506.5 76 506.5 76 493 53 c 128,-1,34
 479.5 30 479.5 30 457.5 11 c 128,-1,35
 435.5 -8 435.5 -8 400.5 -8 c 0,0,1
554.5 557 m 0,36,37
 558.5 557 558.5 557 560 563.5 c 128,-1,38
 561.5 570 561.5 570 563.5 577 c 0,39,40
 566.5 587 566.5 587 569.5 594 c 128,-1,41
 572.5 601 572.5 601 572.5 606 c 256,42,43
 572.5 611 572.5 611 568.5 611 c 0,44,45
 563.5 611 563.5 611 555.5 601 c 128,-1,46
 547.5 591 547.5 591 547.5 575 c 0,47,48
 547.5 567 547.5 567 549.5 562 c 128,-1,49
 551.5 557 551.5 557 554.5 557 c 0,36,37
424.5 90 m 0,50,51
 438.5 90 438.5 90 454.5 117 c 128,-1,52
 470.5 144 470.5 144 484 185.5 c 128,-1,53
 497.5 227 497.5 227 506.5 275.5 c 128,-1,54
 515.5 324 515.5 324 515.5 366 c 0,55,56
 515.5 399 515.5 399 510 428.5 c 128,-1,57
 504.5 458 504.5 458 494.5 480.5 c 128,-1,58
 484.5 503 484.5 503 472 516 c 128,-1,59
 459.5 529 459.5 529 445.5 529 c 0,60,61
 429.5 529 429.5 529 414.5 511.5 c 128,-1,62
 399.5 494 399.5 494 389 463.5 c 128,-1,63
 378.5 433 378.5 433 372 392.5 c 128,-1,64
 365.5 352 365.5 352 365.5 306 c 0,65,66
 365.5 265 365.5 265 370.5 226 c 128,-1,67
 375.5 187 375.5 187 384 157 c 128,-1,68
 392.5 127 392.5 127 403 108.5 c 128,-1,69
 413.5 90 413.5 90 424.5 90 c 0,50,51
352.5 33 m 0,70,71
 356.5 33 356.5 33 359 36.5 c 128,-1,72
 361.5 40 361.5 40 360.5 43 c 256,73,74
 359.5 46 359.5 46 355 51.5 c 128,-1,75
 350.5 57 350.5 57 344.5 64.5 c 128,-1,76
 338.5 72 338.5 72 333 80.5 c 128,-1,77
 327.5 89 327.5 89 325.5 97 c 0,78,79
 324.5 101 324.5 101 323 107.5 c 128,-1,80
 321.5 114 321.5 114 319.5 120.5 c 128,-1,81
 317.5 127 317.5 127 315.5 131.5 c 128,-1,82
 313.5 136 313.5 136 310.5 136 c 0,83,84
 305.5 136 305.5 136 305.5 122.5 c 128,-1,85
 305.5 109 305.5 109 312.5 89 c 0,86,87
 320.5 69 320.5 69 332.5 51 c 128,-1,88
 344.5 33 344.5 33 352.5 33 c 0,70,71
581.5 22 m 256,89,90
 581.5 25 581.5 25 578 29 c 128,-1,91
 574.5 33 574.5 33 570 38 c 128,-1,92
 565.5 43 565.5 43 562 49.5 c 128,-1,93
 558.5 56 558.5 56 558.5 63 c 0,94,95
 558.5 66 558.5 66 557.5 69 c 0,96,97
 555.5 74 555.5 74 551.5 74 c 0,98,99
 544.5 74 544.5 74 544.5 62 c 0,100,101
 544.5 46 544.5 46 553.5 29.5 c 128,-1,102
 562.5 13 562.5 13 571.5 13 c 0,103,104
 575.5 13 575.5 13 578.5 16 c 128,-1,105
 581.5 19 581.5 19 581.5 22 c 256,89,90
377.5 17 m 256,106,107
 380.5 17 380.5 17 384 21 c 128,-1,108
 387.5 25 387.5 25 389 29.5 c 128,-1,109
 390.5 34 390.5 34 389 38 c 128,-1,110
 387.5 42 387.5 42 381.5 42 c 0,111,112
 369.5 42 369.5 42 369.5 30 c 0,113,114
 369.5 25 369.5 25 372 21 c 128,-1,115
 374.5 17 374.5 17 377.5 17 c 256,106,107
EndSplineSet

EndChar

StartChar: a
Encoding: 97 97 41
Width: 890
GlyphClass: 2
Flags: W
LayerCount: 2
Fore
SplineSet
451 621 m 0,0,1
 483 621 483 621 504 611 c 128,-1,2
 525 601 525 601 533 587 c 0,3,4
 539 575 539 575 550.5 534 c 128,-1,5
 562 493 562 493 575.5 437 c 128,-1,6
 589 381 589 381 603.5 318 c 128,-1,7
 618 255 618 255 630 199 c 128,-1,8
 642 143 642 143 649.5 101.5 c 128,-1,9
 657 60 657 60 657 48 c 0,10,11
 657 28 657 28 636 12.5 c 128,-1,12
 615 -3 615 -3 591 -3 c 256,13,14
 567 -3 567 -3 558 11 c 0,15,16
 554 17 554 17 548 32 c 128,-1,17
 542 47 542 47 536 67 c 128,-1,18
 530 87 530 87 524.5 109 c 128,-1,19
 519 131 519 131 515 152 c 0,20,21
 511 172 511 172 503.5 176.5 c 128,-1,22
 496 181 496 181 486 181 c 0,23,24
 457 181 457 181 435 181.5 c 128,-1,25
 413 182 413 182 402 182 c 0,26,27
 382 182 382 182 372.5 177.5 c 128,-1,28
 363 173 363 173 360 162 c 2,29,-1
 334 62 l 2,30,31
 326 33 326 33 308.5 15.5 c 128,-1,32
 291 -2 291 -2 269 -2 c 0,33,34
 233 -2 233 -2 233 48 c 0,35,36
 233 65 233 65 237 95.5 c 128,-1,37
 241 126 241 126 247.5 164.5 c 128,-1,38
 254 203 254 203 263.5 246.5 c 128,-1,39
 273 290 273 290 283.5 334.5 c 128,-1,40
 294 379 294 379 305 421 c 128,-1,41
 316 463 316 463 327 497 c 0,42,43
 339 535 339 535 351.5 559 c 128,-1,44
 364 583 364 583 378 597 c 128,-1,45
 392 611 392 611 409.5 616 c 128,-1,46
 427 621 427 621 451 621 c 0,0,1
390 561 m 0,47,48
 401 574 401 574 410 585.5 c 128,-1,49
 419 597 419 597 412 598 c 0,50,51
 396 601 396 601 380 579 c 0,52,53
 369 562 369 562 364 543 c 128,-1,54
 359 524 359 524 367 522 c 0,55,56
 369 522 369 522 371 525.5 c 128,-1,57
 373 529 373 529 375 535 c 128,-1,58
 377 541 377 541 380.5 548 c 128,-1,59
 384 555 384 555 390 561 c 0,47,48
406 377 m 0,60,61
 395 320 395 320 391.5 298.5 c 128,-1,62
 388 277 388 277 397 277 c 2,63,-1
 485 277 l 2,64,65
 493 277 493 277 489 296.5 c 128,-1,66
 485 316 485 316 477 357 c 0,67,68
 475 368 475 368 472 393.5 c 128,-1,69
 469 419 469 419 464.5 445 c 128,-1,70
 460 471 460 471 455 491.5 c 128,-1,71
 450 512 450 512 444 512 c 0,72,73
 439 512 439 512 433 494 c 128,-1,74
 427 476 427 476 421.5 452.5 c 128,-1,75
 416 429 416 429 412 407 c 128,-1,76
 408 385 408 385 406 377 c 0,60,61
265 63 m 0,77,78
 267 75 267 75 265 82 c 128,-1,79
 263 89 263 89 259 90 c 0,80,81
 257 90 257 90 254.5 87.5 c 128,-1,82
 252 85 252 85 250 77 c 0,83,84
 246 57 246 57 249 38.5 c 128,-1,85
 252 20 252 20 260 18 c 0,86,87
 270 16 270 16 264 33 c 0,88,89
 262 39 262 39 262.5 46.5 c 128,-1,90
 263 54 263 54 265 63 c 0,77,78
570 64 m 0,91,92
 563 78 563 78 561 83 c 128,-1,93
 559 88 559 88 557 88 c 0,94,95
 554 88 554 88 552 78 c 0,96,97
 552 74 552 74 554.5 63.5 c 128,-1,98
 557 53 557 53 561 42.5 c 128,-1,99
 565 32 565 32 570.5 24 c 128,-1,100
 576 16 576 16 581 16 c 0,101,102
 584 16 584 16 584 21 c 128,-1,103
 584 26 584 26 581.5 34 c 128,-1,104
 579 42 579 42 576 50 c 128,-1,105
 573 58 573 58 570 64 c 0,91,92
EndSplineSet

EndChar

StartChar: b
Encoding: 98 98 42
Width: 890
GlyphClass: 2
Flags: W
LayerCount: 2
Fore
SplineSet
414 49 m 1,0,1
 361 49 361 49 320.5 70.5 c 128,-1,2
 280 92 280 92 257.5 130.5 c 128,-1,3
 235 169 235 169 235 220 c 256,4,5
 235 271 235 271 258 309.5 c 128,-1,6
 281 348 281 348 321.5 369.5 c 128,-1,7
 362 391 362 391 416 391 c 0,8,9
 469 391 469 391 509 369.5 c 128,-1,10
 549 348 549 348 571.5 310 c 128,-1,11
 594 272 594 272 594 222 c 0,12,13
 594 171 594 171 571.5 132 c 128,-1,14
 549 93 549 93 508.5 71 c 128,-1,15
 468 49 468 49 414 49 c 1,16,-1
 414 49 l 1,0,1
415 110 m 1,17,18
 462 110 462 110 492.5 141 c 128,-1,19
 523 172 523 172 523 221 c 256,20,21
 523 270 523 270 492.5 299.5 c 128,-1,22
 462 329 462 329 415 329 c 256,23,24
 368 329 368 329 337 299.5 c 128,-1,25
 306 270 306 270 306 221 c 256,26,27
 306 172 306 172 337 141 c 128,-1,28
 368 110 368 110 415 110 c 1,29,-1
 415 110 l 1,17,18
247 198 m 1,30,31
 183 233 183 233 150.5 290.5 c 128,-1,32
 118 348 118 348 118 412 c 0,33,34
 118 465 118 465 140 511.5 c 128,-1,35
 162 558 162 558 203.5 592.5 c 128,-1,36
 245 627 245 627 304.5 646.5 c 128,-1,37
 364 666 364 666 439 666 c 0,38,39
 501 666 501 666 560.5 649 c 128,-1,40
 620 632 620 632 667.5 598.5 c 128,-1,41
 715 565 715 565 743.5 514.5 c 128,-1,42
 772 464 772 464 772 396 c 0,43,44
 772 351 772 351 758.5 313.5 c 128,-1,45
 745 276 745 276 722 247 c 1,46,-1
 651 278 l 1,47,48
 671 303 671 303 681.5 332.5 c 128,-1,49
 692 362 692 362 692 396 c 0,50,51
 692 446 692 446 670.5 482.5 c 128,-1,52
 649 519 649 519 613 544 c 128,-1,53
 577 569 577 569 532 581 c 128,-1,54
 487 593 487 593 440 593 c 0,55,56
 380 593 380 593 334.5 577.5 c 128,-1,57
 289 562 289 562 257.5 535.5 c 128,-1,58
 226 509 226 509 210 474.5 c 128,-1,59
 194 440 194 440 194 402 c 0,60,61
 194 358 194 358 214 318.5 c 128,-1,62
 234 279 234 279 271 256 c 1,63,-1
 247 198 l 1,64,-1
 247 198 l 1,30,31
520 187 m 1,65,-1
 594 222 l 1,66,-1
 594 0 l 1,67,-1
 516 0 l 1,68,-1
 520 187 l 1,65,-1
EndSplineSet
EndChar

StartChar: c
Encoding: 99 99 43
Width: 890
GlyphClass: 2
Flags: W
LayerCount: 2
Fore
SplineSet
514 -10 m 4,0,1
 396 -10 396 -10 331 57 c 132,-1,2
 266 124 266 124 266 245 c 4,3,4
 266 325 266 325 295 380.5 c 132,-1,5
 324 436 324 436 378 465 c 5,6,-1
 219 465 l 5,7,-1
 219 537 l 5,8,-1
 671 537 l 5,9,-1
 671 465 l 5,10,-1
 558 465 l 6,11,12
 464 465 464 465 410.5 411.5 c 132,-1,13
 357 358 357 358 357 252 c 4,14,15
 357 165 357 165 400 114.5 c 132,-1,16
 443 64 443 64 523 64 c 4,17,18
 560 64 560 64 594 73.5 c 132,-1,19
 628 83 628 83 660 99 c 5,20,-1
 660 21 l 5,21,22
 631 5 631 5 596 -2.5 c 132,-1,23
 561 -10 561 -10 514 -10 c 4,0,1
EndSplineSet

EndChar

StartChar: d
Encoding: 100 100 44
Width: 890
GlyphClass: 2
Flags: W
LayerCount: 2
Fore
SplineSet
246 196 m 1,0,1
 180 231 180 231 145 289.5 c 128,-1,2
 110 348 110 348 110 414 c 0,3,4
 110 467 110 467 132.5 513 c 128,-1,5
 155 559 155 559 198 593.5 c 128,-1,6
 241 628 241 628 302.5 647 c 128,-1,7
 364 666 364 666 442 666 c 0,8,9
 506 666 506 666 566.5 649 c 128,-1,10
 627 632 627 632 675 598.5 c 128,-1,11
 723 565 723 565 751.5 514.5 c 128,-1,12
 780 464 780 464 780 396 c 0,13,14
 780 348 780 348 764.5 306.5 c 128,-1,15
 749 265 749 265 720 232 c 1,16,-1
 652 268 l 1,17,18
 676 295 676 295 688 326.5 c 128,-1,19
 700 358 700 358 700 395 c 0,20,21
 700 445 700 445 678.5 482 c 128,-1,22
 657 519 657 519 621 543.5 c 128,-1,23
 585 568 585 568 539 580.5 c 128,-1,24
 493 593 493 593 443 593 c 0,25,26
 357 593 357 593 300 566.5 c 128,-1,27
 243 540 243 540 214.5 497.5 c 128,-1,28
 186 455 186 455 186 406 c 0,29,30
 186 361 186 361 209.5 318.5 c 128,-1,31
 233 276 233 276 273 253 c 1,32,-1
 246 196 l 1,33,-1
 246 196 l 1,0,1
227 170 m 1,34,35
 227 207 227 207 241 246.5 c 128,-1,36
 255 286 255 286 286 325 c 128,-1,37
 317 364 317 364 369 398 c 1,38,-1
 404 352 l 1,39,40
 349 308 349 308 326 261.5 c 128,-1,41
 303 215 303 215 303 177 c 0,42,43
 303 141 303 141 320.5 115 c 128,-1,44
 338 89 338 89 367 75 c 128,-1,45
 396 61 396 61 431 61 c 0,46,47
 462 61 462 61 490 71.5 c 128,-1,48
 518 82 518 82 536 103.5 c 128,-1,49
 554 125 554 125 554 156 c 256,50,51
 554 187 554 187 534 214.5 c 128,-1,52
 514 242 514 242 471 263 c 1,53,-1
 522 310 l 1,54,55
 578 282 578 282 602 241.5 c 128,-1,56
 626 201 626 201 626 157 c 0,57,58
 626 104 626 104 597.5 67 c 128,-1,59
 569 30 569 30 523.5 11 c 128,-1,60
 478 -8 478 -8 426 -8 c 0,61,62
 371 -8 371 -8 325.5 13.5 c 128,-1,63
 280 35 280 35 253.5 75 c 128,-1,64
 227 115 227 115 227 170 c 1,65,-1
 227 170 l 1,34,35
405 227 m 1,66,-1
 557 386 l 1,67,-1
 598 345 l 1,68,-1
 446 186 l 1,69,-1
 405 227 l 1,66,-1
EndSplineSet
EndChar

StartChar: e
Encoding: 101 101 45
Width: 890
GlyphClass: 2
Flags: W
LayerCount: 2
Fore
SplineSet
461.83984375 -10 m 0,0,1
 416.83984375 -10 416.83984375 -10 380.33984375 11.5 c 128,-1,2
 343.83984375 33 343.83984375 33 317.83984375 73 c 128,-1,3
 291.83984375 113 291.83984375 113 277.33984375 168.5 c 128,-1,4
 262.83984375 224 262.83984375 224 262.83984375 292 c 0,5,6
 262.83984375 364 262.83984375 364 278.83984375 424.5 c 128,-1,7
 294.83984375 485 294.83984375 485 323.33984375 529.5 c 128,-1,8
 351.83984375 574 351.83984375 574 391.33984375 598.5 c 128,-1,9
 430.83984375 623 430.83984375 623 476.83984375 623 c 0,10,11
 510.83984375 623 510.83984375 623 539.33984375 610 c 128,-1,12
 567.83984375 597 567.83984375 597 587.83984375 573.5 c 128,-1,13
 607.83984375 550 607.83984375 550 618.33984375 518.5 c 128,-1,14
 628.83984375 487 628.83984375 487 626.83984375 450 c 0,15,16
 624.83984375 407 624.83984375 407 606.83984375 366.5 c 128,-1,17
 588.83984375 326 588.83984375 326 558.83984375 295 c 128,-1,18
 528.83984375 264 528.83984375 264 489.33984375 245.5 c 128,-1,19
 449.83984375 227 449.83984375 227 404.83984375 227 c 0,20,21
 387.83984375 227 387.83984375 227 387.83984375 213 c 0,22,23
 387.83984375 149 387.83984375 149 410.33984375 118.5 c 128,-1,24
 432.83984375 88 432.83984375 88 467.83984375 88 c 0,25,26
 493.83984375 88 493.83984375 88 511.33984375 107 c 128,-1,27
 528.83984375 126 528.83984375 126 528.83984375 155 c 0,28,29
 528.83984375 179 528.83984375 179 541.83984375 193.5 c 128,-1,30
 554.83984375 208 554.83984375 208 574.83984375 208 c 0,31,32
 597.83984375 208 597.83984375 208 611.33984375 189.5 c 128,-1,33
 624.83984375 171 624.83984375 171 624.83984375 139 c 0,34,35
 624.83984375 109 624.83984375 109 611.83984375 81.5 c 128,-1,36
 598.83984375 54 598.83984375 54 576.83984375 34 c 128,-1,37
 554.83984375 14 554.83984375 14 524.83984375 2 c 128,-1,38
 494.83984375 -10 494.83984375 -10 461.83984375 -10 c 0,0,1
331.83984375 477 m 0,39,40
 334.83984375 477 334.83984375 477 344.33984375 491.5 c 128,-1,41
 353.83984375 506 353.83984375 506 366.83984375 523.5 c 128,-1,42
 379.83984375 541 379.83984375 541 394.83984375 556.5 c 128,-1,43
 409.83984375 572 409.83984375 572 424.83984375 573 c 0,44,45
 429.83984375 574 429.83984375 574 434.33984375 576.5 c 128,-1,46
 438.83984375 579 438.83984375 579 437.83984375 582 c 0,47,48
 437.83984375 592 437.83984375 592 424.83984375 590 c 0,49,50
 407.83984375 589 407.83984375 589 390.33984375 576 c 128,-1,51
 372.83984375 563 372.83984375 563 358.33984375 545.5 c 128,-1,52
 343.83984375 528 343.83984375 528 334.83984375 510 c 128,-1,53
 325.83984375 492 325.83984375 492 326.83984375 481 c 0,54,55
 328.83984375 474 328.83984375 474 331.83984375 477 c 0,39,40
384.83984375 315 m 0,56,57
 387.83984375 311 387.83984375 311 398.83984375 311 c 0,58,59
 424.83984375 311 424.83984375 311 448.83984375 324 c 128,-1,60
 472.83984375 337 472.83984375 337 490.83984375 357 c 128,-1,61
 508.83984375 377 508.83984375 377 519.83984375 403 c 128,-1,62
 530.83984375 429 530.83984375 429 530.83984375 454 c 0,63,64
 530.83984375 486 530.83984375 486 515.33984375 507 c 128,-1,65
 499.83984375 528 499.83984375 528 476.83984375 528 c 0,66,67
 459.83984375 528 459.83984375 528 445.33984375 513.5 c 128,-1,68
 430.83984375 499 430.83984375 499 419.33984375 477.5 c 128,-1,69
 407.83984375 456 407.83984375 456 399.83984375 429.5 c 128,-1,70
 391.83984375 403 391.83984375 403 387.33984375 379.5 c 128,-1,71
 382.83984375 356 382.83984375 356 381.83984375 338 c 128,-1,72
 380.83984375 320 380.83984375 320 384.83984375 315 c 0,56,57
318.83984375 467 m 0,73,74
 313.83984375 466 313.83984375 466 310.83984375 459.5 c 128,-1,75
 307.83984375 453 307.83984375 453 308.83984375 445 c 0,76,77
 310.83984375 436 310.83984375 436 312.83984375 437 c 0,78,79
 317.83984375 437 317.83984375 437 321.83984375 446 c 128,-1,80
 325.83984375 455 325.83984375 455 323.83984375 462 c 0,81,82
 321.83984375 468 321.83984375 468 318.83984375 467 c 0,73,74
EndSplineSet
EndChar

StartChar: f
Encoding: 102 102 46
Width: 890
GlyphClass: 2
Flags: W
LayerCount: 2
Fore
SplineSet
746.5 606 m 1,0,1
 784.5 606 784.5 606 813 588 c 128,-1,2
 841.5 570 841.5 570 857.5 539 c 128,-1,3
 873.5 508 873.5 508 873.5 469 c 0,4,5
 873.5 431 873.5 431 858 400 c 128,-1,6
 842.5 369 842.5 369 814 351 c 128,-1,7
 785.5 333 785.5 333 747.5 333 c 0,8,9
 714.5 333 714.5 333 684.5 348 c 128,-1,10
 654.5 363 654.5 363 635.5 393 c 128,-1,11
 616.5 423 616.5 423 616.5 468 c 0,12,13
 616.5 511 616.5 511 634 542 c 128,-1,14
 651.5 573 651.5 573 681.5 589.5 c 128,-1,15
 711.5 606 711.5 606 746.5 606 c 1,16,-1
 746.5 606 l 1,0,1
737.5 551 m 1,17,18
 707.5 551 707.5 551 685.5 530 c 128,-1,19
 663.5 509 663.5 509 663.5 468 c 0,20,21
 663.5 428 663.5 428 685.5 408 c 128,-1,22
 707.5 388 707.5 388 737.5 388 c 0,23,24
 772.5 388 772.5 388 791 412.5 c 128,-1,25
 809.5 437 809.5 437 809.5 469 c 256,26,27
 809.5 501 809.5 501 791 526 c 128,-1,28
 772.5 551 772.5 551 737.5 551 c 1,29,-1
 737.5 551 l 1,17,18
163.5 185 m 1,30,31
 114.5 210 114.5 210 82 245 c 128,-1,32
 49.5 280 49.5 280 33 323.5 c 128,-1,33
 16.5 367 16.5 367 16.5 416 c 0,34,35
 16.5 476 16.5 476 41 522.5 c 128,-1,36
 65.5 569 65.5 569 107.5 601 c 128,-1,37
 149.5 633 149.5 633 202.5 649.5 c 128,-1,38
 255.5 666 255.5 666 313.5 666 c 0,39,40
 378.5 666 378.5 666 440 646 c 128,-1,41
 501.5 626 501.5 626 550.5 586.5 c 128,-1,42
 599.5 547 599.5 547 628.5 487 c 128,-1,43
 657.5 427 657.5 427 657.5 347 c 1,44,-1
 595.5 344 l 1,45,46
 595.5 405 595.5 405 573.5 451.5 c 128,-1,47
 551.5 498 551.5 498 513 529.5 c 128,-1,48
 474.5 561 474.5 561 425 577 c 128,-1,49
 375.5 593 375.5 593 321.5 593 c 0,50,51
 261.5 593 261.5 593 210 571 c 128,-1,52
 158.5 549 158.5 549 127.5 506.5 c 128,-1,53
 96.5 464 96.5 464 96.5 402 c 0,54,55
 96.5 356 96.5 356 120 313.5 c 128,-1,56
 143.5 271 143.5 271 192.5 243 c 1,57,-1
 163.5 185 l 1,58,-1
 163.5 185 l 1,30,31
357.5 -7 m 1,59,60
 301.5 -7 301.5 -7 254 15.5 c 128,-1,61
 206.5 38 206.5 38 178 79 c 128,-1,62
 149.5 120 149.5 120 149.5 178 c 0,63,64
 149.5 227 149.5 227 171.5 269.5 c 128,-1,65
 193.5 312 193.5 312 234 344.5 c 128,-1,66
 274.5 377 274.5 377 329.5 395 c 1,67,-1
 356.5 333 l 1,68,69
 301.5 314 301.5 314 265 275.5 c 128,-1,70
 228.5 237 228.5 237 228.5 187 c 0,71,72
 228.5 148 228.5 148 249 121 c 128,-1,73
 269.5 94 269.5 94 301 80 c 128,-1,74
 332.5 66 332.5 66 365.5 66 c 0,75,76
 408.5 66 408.5 66 454 84 c 128,-1,77
 499.5 102 499.5 102 537.5 137 c 128,-1,78
 575.5 172 575.5 172 596.5 224 c 1,79,-1
 634.5 180 l 1,80,81
 610.5 116 610.5 116 566 74.5 c 128,-1,82
 521.5 33 521.5 33 467 13 c 128,-1,83
 412.5 -7 412.5 -7 357.5 -7 c 1,84,-1
 357.5 -7 l 1,59,60
590.5 115 m 1,85,-1
 585.5 153 l 1,86,-1
 585.5 462 l 1,87,-1
 589.5 501 l 1,88,-1
 585.5 658 l 1,89,-1
 663.5 658 l 1,90,-1
 663.5 0 l 1,91,-1
 585.5 0 l 1,92,-1
 590.5 115 l 1,85,-1
EndSplineSet
EndChar

StartChar: g
Encoding: 103 103 47
Width: 890
GlyphClass: 2
Flags: W
LayerCount: 2
Fore
SplineSet
464.5 -5 m 0,0,1
 397.5 -5 397.5 -5 353.5 28 c 128,-1,2
 309.5 61 309.5 61 283.5 111 c 128,-1,3
 257.5 161 257.5 161 247.5 219 c 128,-1,4
 237.5 277 237.5 277 237.5 328 c 0,5,6
 237.5 384 237.5 384 249 437.5 c 128,-1,7
 260.5 491 260.5 491 287.5 532.5 c 128,-1,8
 314.5 574 314.5 574 358 599.5 c 128,-1,9
 401.5 625 401.5 625 465.5 625 c 0,10,11
 496.5 625 496.5 625 525 616.5 c 128,-1,12
 553.5 608 553.5 608 575.5 589.5 c 128,-1,13
 597.5 571 597.5 571 610.5 540.5 c 128,-1,14
 623.5 510 623.5 510 623.5 466 c 0,15,16
 623.5 450 623.5 450 617 440.5 c 128,-1,17
 610.5 431 610.5 431 601 425.5 c 128,-1,18
 591.5 420 591.5 420 581.5 418.5 c 128,-1,19
 571.5 417 571.5 417 565.5 417 c 0,20,21
 551.5 417 551.5 417 539 427 c 128,-1,22
 526.5 437 526.5 437 526.5 466 c 0,23,24
 526.5 511 526.5 511 506 529 c 128,-1,25
 485.5 547 485.5 547 456.5 547 c 0,26,27
 436.5 547 436.5 547 418 530.5 c 128,-1,28
 399.5 514 399.5 514 385.5 483.5 c 128,-1,29
 371.5 453 371.5 453 363.5 410 c 128,-1,30
 355.5 367 355.5 367 355.5 314 c 0,31,32
 355.5 285 355.5 285 359 245 c 128,-1,33
 362.5 205 362.5 205 374.5 169 c 128,-1,34
 386.5 133 386.5 133 408.5 107.5 c 128,-1,35
 430.5 82 430.5 82 466.5 82 c 0,36,37
 495.5 82 495.5 82 512 96.5 c 128,-1,38
 528.5 111 528.5 111 536 132 c 128,-1,39
 543.5 153 543.5 153 545 175.5 c 128,-1,40
 546.5 198 546.5 198 545.5 214 c 256,41,42
 544.5 230 544.5 230 532 231.5 c 128,-1,43
 519.5 233 519.5 233 496.5 233 c 2,44,-1
 445.5 233 l 2,45,46
 439.5 233 439.5 233 434.5 239 c 128,-1,47
 429.5 245 429.5 245 426.5 253.5 c 128,-1,48
 423.5 262 423.5 262 421.5 271 c 128,-1,49
 419.5 280 419.5 280 419.5 286 c 0,50,51
 419.5 302 419.5 302 430 314.5 c 128,-1,52
 440.5 327 440.5 327 463.5 327 c 2,53,-1
 571.5 326 l 2,54,55
 602.5 326 602.5 326 627.5 306 c 128,-1,56
 652.5 286 652.5 286 652.5 249 c 0,57,58
 652.5 206 652.5 206 643 161 c 128,-1,59
 633.5 116 633.5 116 611.5 79 c 128,-1,60
 589.5 42 589.5 42 553.5 18.5 c 128,-1,61
 517.5 -5 517.5 -5 464.5 -5 c 0,0,1
369.5 58 m 0,62,63
 369.5 62 369.5 62 349.5 84 c 0,64,65
 340.5 93 340.5 93 331.5 106.5 c 128,-1,66
 322.5 120 322.5 120 315 133 c 128,-1,67
 307.5 146 307.5 146 303 157.5 c 128,-1,68
 298.5 169 298.5 169 298.5 173 c 0,69,70
 298.5 178 298.5 178 295.5 179.5 c 128,-1,71
 292.5 181 292.5 181 291.5 181 c 0,72,73
 283.5 181 283.5 181 283.5 170 c 256,74,75
 283.5 159 283.5 159 292.5 139 c 128,-1,76
 301.5 119 301.5 119 314 99.5 c 128,-1,77
 326.5 80 326.5 80 340 66 c 128,-1,78
 353.5 52 353.5 52 363.5 52 c 0,79,80
 369.5 52 369.5 52 369.5 58 c 0,62,63
392.5 45 m 0,81,82
 392.5 52 392.5 52 385.5 52 c 0,83,84
 381.5 52 381.5 52 380 49 c 128,-1,85
 378.5 46 378.5 46 378.5 44 c 0,86,87
 378.5 39 378.5 39 381 38 c 128,-1,88
 383.5 37 383.5 37 385.5 37 c 0,89,90
 392.5 37 392.5 37 392.5 45 c 0,81,82
EndSplineSet
EndChar

StartChar: h
Encoding: 104 104 48
Width: 890
GlyphClass: 2
Flags: W
LayerCount: 2
Fore
SplineSet
317.509765625 0 m 0,0,1
 292.509765625 0 292.509765625 0 282.509765625 14.5 c 128,-1,2
 272.509765625 29 272.509765625 29 272.509765625 65 c 2,3,-1
 272.509765625 343 l 2,4,5
 272.509765625 434 272.509765625 434 270.509765625 518 c 0,6,7
 269.509765625 616 269.509765625 616 320.509765625 616 c 0,8,9
 339.509765625 616 339.509765625 616 357.509765625 606.5 c 128,-1,10
 375.509765625 597 375.509765625 597 375.509765625 571 c 2,11,-1
 375.509765625 358 l 2,12,13
 375.509765625 318 375.509765625 318 379.509765625 318 c 256,14,15
 383.509765625 318 383.509765625 318 388.509765625 334 c 128,-1,16
 393.509765625 350 393.509765625 350 405.509765625 369.5 c 128,-1,17
 417.509765625 389 417.509765625 389 439.509765625 405 c 128,-1,18
 461.509765625 421 461.509765625 421 497.509765625 421 c 0,19,20
 561.509765625 421 561.509765625 421 590.509765625 358 c 128,-1,21
 619.509765625 295 619.509765625 295 619.509765625 157 c 2,22,-1
 619.509765625 31 l 2,23,24
 619.509765625 0 619.509765625 0 563.509765625 0 c 0,25,26
 536.509765625 0 536.509765625 0 524.509765625 11.5 c 128,-1,27
 512.509765625 23 512.509765625 23 512.509765625 34 c 2,28,-1
 512.509765625 148 l 2,29,30
 512.509765625 200 512.509765625 200 509.509765625 232 c 128,-1,31
 506.509765625 264 506.509765625 264 500.509765625 282 c 128,-1,32
 494.509765625 300 494.509765625 300 485.009765625 306.5 c 128,-1,33
 475.509765625 313 475.509765625 313 461.509765625 313 c 0,34,35
 440.509765625 313 440.509765625 313 425.009765625 293.5 c 128,-1,36
 409.509765625 274 409.509765625 274 399.509765625 241 c 128,-1,37
 389.509765625 208 389.509765625 208 385.009765625 163.5 c 0,38,39
 380.509765625 123 380.509765625 123 380.509765625 121 c 2,40,-1
 380.509765625 45 l 2,41,42
 380.509765625 30 380.509765625 30 373.009765625 21 c 128,-1,43
 365.509765625 12 365.509765625 12 355.509765625 7.5 c 128,-1,44
 345.509765625 3 345.509765625 3 335.009765625 1.5 c 128,-1,45
 324.509765625 0 324.509765625 0 317.509765625 0 c 0,0,1
292.509765625 316 m 0,46,47
 295.509765625 316 295.509765625 316 297.509765625 328 c 128,-1,48
 299.509765625 340 299.509765625 340 301.509765625 355 c 128,-1,49
 303.509765625 370 303.509765625 370 304.509765625 482 c 128,-1,50
 305.509765625 594 305.509765625 594 305.509765625 595 c 0,51,52
 305.509765625 597 305.509765625 597 305.009765625 600 c 128,-1,53
 304.509765625 603 304.509765625 603 302.509765625 603 c 0,54,55
 297.509765625 603 297.509765625 603 294.009765625 595.5 c 128,-1,56
 290.509765625 588 290.509765625 588 288.509765625 479 c 128,-1,57
 286.509765625 370 286.509765625 370 285.509765625 360.5 c 128,-1,58
 284.509765625 351 284.509765625 351 284.509765625 348 c 0,59,60
 284.509765625 340 284.509765625 340 286.509765625 328 c 128,-1,61
 288.509765625 316 288.509765625 316 292.509765625 316 c 0,46,47
549.509765625 29 m 0,62,63
 549.509765625 35 549.509765625 35 547.509765625 38 c 128,-1,64
 545.509765625 41 545.509765625 41 543.009765625 43 c 128,-1,65
 540.509765625 45 540.509765625 45 538.509765625 49 c 128,-1,66
 536.509765625 53 536.509765625 53 536.509765625 60 c 0,67,68
 536.509765625 76 536.509765625 76 535.009765625 80 c 128,-1,69
 533.509765625 84 533.509765625 84 528.509765625 84 c 256,70,71
 523.509765625 84 523.509765625 84 522.009765625 76.5 c 128,-1,72
 520.509765625 69 520.509765625 69 520.509765625 59 c 0,73,74
 520.509765625 39 520.509765625 39 526.509765625 27 c 128,-1,75
 532.509765625 15 532.509765625 15 540.509765625 15 c 0,76,77
 543.509765625 15 543.509765625 15 546.509765625 18.5 c 128,-1,78
 549.509765625 22 549.509765625 22 549.509765625 29 c 0,62,63
316.509765625 26 m 0,79,80
 316.509765625 31 316.509765625 31 314.009765625 33.5 c 128,-1,81
 311.509765625 36 311.509765625 36 308.509765625 38.5 c 128,-1,82
 305.509765625 41 305.509765625 41 303.009765625 45 c 128,-1,83
 300.509765625 49 300.509765625 49 300.509765625 56 c 0,84,85
 300.509765625 77 300.509765625 77 293.509765625 77 c 0,86,87
 291.509765625 77 291.509765625 77 289.509765625 69.5 c 128,-1,88
 287.509765625 62 287.509765625 62 287.509765625 51 c 0,89,90
 287.509765625 36 287.509765625 36 294.009765625 24 c 128,-1,91
 300.509765625 12 300.509765625 12 308.509765625 12 c 0,92,93
 310.509765625 12 310.509765625 12 313.509765625 16 c 128,-1,94
 316.509765625 20 316.509765625 20 316.509765625 26 c 0,79,80
EndSplineSet
EndChar

StartChar: i
Encoding: 105 105 49
Width: 890
GlyphClass: 2
Flags: W
LayerCount: 2
Fore
SplineSet
436.674804688 -4 m 256,0,1
 412.674804688 -4 412.674804688 -4 399.674804688 6.5 c 128,-1,2
 386.674804688 17 386.674804688 17 386.674804688 32 c 2,3,-1
 386.674804688 387 l 2,4,5
 386.674804688 396 386.674804688 396 389.174804688 408 c 128,-1,6
 391.674804688 420 391.674804688 420 397.174804688 430 c 128,-1,7
 402.674804688 440 402.674804688 440 412.174804688 447 c 128,-1,8
 421.674804688 454 421.674804688 454 436.674804688 454 c 256,9,10
 451.674804688 454 451.674804688 454 462.174804688 448 c 128,-1,11
 472.674804688 442 472.674804688 442 479.174804688 433 c 128,-1,12
 485.674804688 424 485.674804688 424 489.174804688 413 c 128,-1,13
 492.674804688 402 492.674804688 402 492.674804688 392 c 2,14,-1
 492.674804688 32 l 2,15,16
 492.674804688 16 492.674804688 16 476.674804688 6 c 128,-1,17
 460.674804688 -4 460.674804688 -4 436.674804688 -4 c 256,0,1
404.674804688 357 m 0,18,19
 407.674804688 357 407.674804688 357 408.674804688 363 c 128,-1,20
 409.674804688 369 409.674804688 369 409.674804688 377.5 c 128,-1,21
 409.674804688 386 409.674804688 386 410.174804688 395.5 c 128,-1,22
 410.674804688 405 410.674804688 405 412.674804688 411 c 0,23,24
 413.674804688 415 413.674804688 415 415.674804688 422 c 128,-1,25
 417.674804688 429 417.674804688 429 414.674804688 429 c 0,26,27
 409.674804688 429 409.674804688 429 406.174804688 423.5 c 128,-1,28
 402.674804688 418 402.674804688 418 400.174804688 410.5 c 128,-1,29
 397.674804688 403 397.674804688 403 396.674804688 395.5 c 128,-1,30
 395.674804688 388 395.674804688 388 395.674804688 383 c 0,31,32
 395.674804688 374 395.674804688 374 397.674804688 365.5 c 128,-1,33
 399.674804688 357 399.674804688 357 404.674804688 357 c 0,18,19
440.141601562 523.2265625 m 4,34,35
 404.674804688 523 404.674804688 523 379.676757812 552.055664062 c 132,-1,36
 354.674804688 581 354.674804688 581 354.51953125 626.186523438 c 4,37,38
 354.674804688 651 354.674804688 651 362.022460938 673.033203125 c 4,39,40
 369.674804688 695 369.674804688 695 382.765625 711.12890625 c 4,41,42
 395.674804688 727 395.674804688 727 414.54296875 736.868164062 c 4,43,44
 432.674804688 747 432.674804688 747 455.147460938 746.649414062 c 4,45,46
 472.674804688 747 472.674804688 747 487.806640625 737.8984375 c 4,47,48
 502.674804688 729 502.674804688 729 513.40625 713.702148438 c 4,49,50
 523.674804688 698 523.674804688 698 529.735351562 678.696289062 c 4,51,52
 535.674804688 659 535.674804688 659 535.473632812 637.51171875 c 4,53,54
 535.674804688 610 535.674804688 610 527.969726562 588.606445312 c 4,55,56
 520.674804688 567 520.674804688 567 507.2265625 553.083984375 c 132,-1,57
 493.674804688 539 493.674804688 539 476.7734375 530.948242188 c 4,58,59
 458.674804688 523 458.674804688 523 440.141601562 523.2265625 c 4,34,35
407.481445312 701.34765625 m 4,60,61
 413.674804688 709 413.674804688 709 414.984375 713.702148438 c 4,62,63
 416.674804688 719 416.674804688 719 414.54296875 718.850585938 c 4,64,65
 407.674804688 719 407.674804688 719 399.537109375 711.12890625 c 4,66,67
 391.674804688 703 391.674804688 703 384.97265625 692.595703125 c 4,68,69
 378.674804688 682 378.674804688 682 373.939453125 669.4296875 c 4,70,71
 368.674804688 654 368.674804688 654 369.525390625 646.778320312 c 4,72,73
 369.674804688 645 369.674804688 645 370.848632812 638.541015625 c 4,74,75
 371.674804688 632 371.674804688 632 374.822265625 632.36328125 c 4,76,77
 378.674804688 633 378.674804688 633 383.6484375 655.015625 c 4,78,79
 386.674804688 669 386.674804688 669 393.358398438 681.26953125 c 4,80,81
 399.674804688 693 399.674804688 693 407.481445312 701.34765625 c 4,60,61
443.671875 581.913085938 m 4,82,83
 454.674804688 582 454.674804688 582 468.829101562 596.328125 c 4,84,85
 483.674804688 611 483.674804688 611 483.393554688 637.51171875 c 4,86,87
 483.674804688 658 483.674804688 658 474.125976562 672.002929688 c 132,-1,88
 464.674804688 686 464.674804688 686 449.850585938 685.903320312 c 260,89,90
 434.674804688 686 434.674804688 686 422.487304688 672.002929688 c 4,91,92
 409.674804688 657 409.674804688 657 410.12890625 633.393554688 c 260,93,94
 410.674804688 609 410.674804688 609 419.838867188 595.298828125 c 4,95,96
 429.674804688 582 429.674804688 582 443.671875 581.913085938 c 4,82,83
EndSplineSet


EndChar

StartChar: j
Encoding: 106 106 50
Width: 890
GlyphClass: 2
Flags: W
LayerCount: 2
Fore
SplineSet
481 559 m 256,0,1
 455 559 455 559 439 574.5 c 128,-1,2
 423 590 423 590 423 616 c 0,3,4
 423 643 423 643 439.5 660 c 128,-1,5
 456 677 456 677 483 677 c 256,6,7
 510 677 510 677 527 661.5 c 128,-1,8
 544 646 544 646 544 621 c 0,9,10
 544 595 544 595 525.5 577 c 128,-1,11
 507 559 507 559 481 559 c 256,0,1
449 618 m 0,12,13
 451 627 451 627 454.5 631.5 c 128,-1,14
 458 636 458 636 462 638.5 c 128,-1,15
 466 641 466 641 469 643.5 c 128,-1,16
 472 646 472 646 472 650 c 0,17,18
 472 660 472 660 462 660 c 0,19,20
 450 660 450 660 442 646.5 c 128,-1,21
 434 633 434 633 434 618 c 0,22,23
 434 611 434 611 435.5 601.5 c 128,-1,24
 437 592 437 592 443 592 c 0,25,26
 448 592 448 592 448 603.5 c 128,-1,27
 448 615 448 615 449 618 c 0,12,13
536 82 m 2,28,29
 536 35 536 35 529.5 -3.5 c 128,-1,30
 523 -42 523 -42 508 -69.5 c 128,-1,31
 493 -97 493 -97 467.5 -112 c 128,-1,32
 442 -127 442 -127 403 -127 c 0,33,34
 372 -127 372 -127 359 -113.5 c 128,-1,35
 346 -100 346 -100 346 -72 c 0,36,37
 346 -56 346 -56 351 -38.5 c 128,-1,38
 356 -21 356 -21 370 -21 c 0,39,40
 377 -21 377 -21 383.5 -23.5 c 128,-1,41
 390 -26 390 -26 398 -26 c 0,42,43
 414 -26 414 -26 422 -3 c 128,-1,44
 430 20 430 20 430 82 c 2,45,-1
 430 439 l 2,46,47
 430 448 430 448 432.5 460 c 128,-1,48
 435 472 435 472 440.5 482 c 128,-1,49
 446 492 446 492 455.5 499 c 128,-1,50
 465 506 465 506 480 506 c 256,51,52
 495 506 495 506 505.5 500 c 128,-1,53
 516 494 516 494 522.5 485 c 128,-1,54
 529 476 529 476 532.5 465 c 128,-1,55
 536 454 536 454 536 444 c 2,56,-1
 536 82 l 2,28,29
448 409 m 0,57,58
 451 409 451 409 452 415 c 128,-1,59
 453 421 453 421 453 429.5 c 128,-1,60
 453 438 453 438 453.5 447.5 c 128,-1,61
 454 457 454 457 456 463 c 0,62,63
 457 467 457 467 459 474 c 128,-1,64
 461 481 461 481 458 481 c 0,65,66
 453 481 453 481 449.5 475.5 c 128,-1,67
 446 470 446 470 443.5 462.5 c 128,-1,68
 441 455 441 455 440 447.5 c 128,-1,69
 439 440 439 440 439 435 c 0,70,71
 439 426 439 426 441 417.5 c 128,-1,72
 443 409 443 409 448 409 c 0,57,58
390 -103 m 0,73,74
 390 -91 390 -91 381.5 -83 c 128,-1,75
 373 -75 373 -75 373 -66 c 0,76,77
 373 -52 373 -52 370.5 -47.5 c 128,-1,78
 368 -43 368 -43 364 -43 c 0,79,80
 361 -43 361 -43 359.5 -49.5 c 128,-1,81
 358 -56 358 -56 358 -64 c 0,82,83
 358 -83 358 -83 365 -97 c 128,-1,84
 372 -111 372 -111 380 -111 c 0,85,86
 383 -111 383 -111 386.5 -109.5 c 128,-1,87
 390 -108 390 -108 390 -103 c 0,73,74
EndSplineSet


EndChar

StartChar: k
Encoding: 107 107 51
Width: 890
GlyphClass: 2
Flags: W
LayerCount: 2
Fore
SplineSet
221 201 m 1,0,1
 160 247 160 247 130.5 299.5 c 128,-1,2
 101 352 101 352 101 411 c 0,3,4
 101 469 101 469 127 516 c 128,-1,5
 153 563 153 563 199 596.5 c 128,-1,6
 245 630 245 630 305.5 648 c 128,-1,7
 366 666 366 666 436 666 c 0,8,9
 503 666 503 666 566 649 c 128,-1,10
 629 632 629 632 679.5 598 c 128,-1,11
 730 564 730 564 759.5 513.5 c 128,-1,12
 789 463 789 463 789 395 c 0,13,14
 789 353 789 353 776 316.5 c 128,-1,15
 763 280 763 280 740 250 c 1,16,-1
 669 281 l 1,17,18
 688 304 688 304 698.5 333 c 128,-1,19
 709 362 709 362 709 395 c 0,20,21
 709 445 709 445 686 482 c 128,-1,22
 663 519 663 519 624 543.5 c 128,-1,23
 585 568 585 568 536 580.5 c 128,-1,24
 487 593 487 593 436 593 c 0,25,26
 363 593 363 593 304.5 570 c 128,-1,27
 246 547 246 547 211.5 504.5 c 128,-1,28
 177 462 177 462 177 403 c 0,29,30
 177 363 177 363 195 326.5 c 128,-1,31
 213 290 213 290 247 258 c 1,32,-1
 221 201 l 1,33,-1
 221 201 l 1,0,1
313 74 m 1,34,35
 253 74 253 74 218 113 c 128,-1,36
 183 152 183 152 183 213 c 0,37,38
 183 276 183 276 218.5 315.5 c 128,-1,39
 254 355 254 355 314 355 c 0,40,41
 373 355 373 355 407.5 316 c 128,-1,42
 442 277 442 277 442 215 c 256,43,44
 442 153 442 153 407 113.5 c 128,-1,45
 372 74 372 74 313 74 c 1,46,-1
 313 74 l 1,34,35
314 135 m 1,47,48
 345 135 345 135 363 158 c 128,-1,49
 381 181 381 181 381 215 c 0,50,51
 381 247 381 247 362.5 270 c 128,-1,52
 344 293 344 293 314 293 c 0,53,54
 283 293 283 293 265 270 c 128,-1,55
 247 247 247 247 247 214 c 256,56,57
 247 181 247 181 265 158 c 128,-1,58
 283 135 283 135 314 135 c 1,59,-1
 314 135 l 1,47,48
381 148 m 1,60,-1
 404 222 l 1,61,62
 404 264 404 264 417.5 293.5 c 128,-1,63
 431 323 431 323 457.5 339 c 128,-1,64
 484 355 484 355 521 355 c 0,65,66
 552 355 552 355 575 346 c 128,-1,67
 598 337 598 337 613 319.5 c 128,-1,68
 628 302 628 302 635.5 277.5 c 128,-1,69
 643 253 643 253 643 222 c 2,70,-1
 643 0 l 1,71,-1
 565 0 l 1,72,-1
 565 216 l 2,73,74
 565 253 565 253 550 273.5 c 128,-1,75
 535 294 535 294 509 294 c 0,76,77
 481 294 481 294 466 273.5 c 128,-1,78
 451 253 451 253 451 216 c 2,79,-1
 451 0 l 1,80,-1
 373 0 l 1,81,-1
 381 148 l 1,60,-1
EndSplineSet
EndChar

StartChar: l
Encoding: 108 108 52
Width: 890
GlyphClass: 2
Flags: W
LayerCount: 2
Fore
SplineSet
652.5 154 m 1,0,1
 697.5 197 697.5 197 716.5 244.5 c 128,-1,2
 735.5 292 735.5 292 735.5 341 c 0,3,4
 735.5 404 735.5 404 710.5 451.5 c 128,-1,5
 685.5 499 685.5 499 641.5 530.5 c 128,-1,6
 597.5 562 597.5 562 539.5 577.5 c 128,-1,7
 481.5 593 481.5 593 415.5 593 c 0,8,9
 355.5 593 355.5 593 304 581 c 128,-1,10
 252.5 569 252.5 569 213 544.5 c 128,-1,11
 173.5 520 173.5 520 151.5 484.5 c 128,-1,12
 129.5 449 129.5 449 129.5 402 c 0,13,14
 129.5 365 129.5 365 146 329 c 128,-1,15
 162.5 293 162.5 293 199.5 258 c 1,16,-1
 173.5 201 l 1,17,18
 110.5 248 110.5 248 82 300.5 c 128,-1,19
 53.5 353 53.5 353 53.5 409 c 0,20,21
 53.5 471 53.5 471 81 519 c 128,-1,22
 108.5 567 108.5 567 158 599.5 c 128,-1,23
 207.5 632 207.5 632 274.5 649 c 128,-1,24
 341.5 666 341.5 666 420.5 666 c 0,25,26
 501.5 666 501.5 666 573 646 c 128,-1,27
 644.5 626 644.5 626 699 587.5 c 128,-1,28
 753.5 549 753.5 549 784 492.5 c 128,-1,29
 814.5 436 814.5 436 814.5 362 c 0,30,31
 814.5 298 814.5 298 789 238 c 128,-1,32
 763.5 178 763.5 178 707.5 123 c 1,33,-1
 721.5 184 l 1,34,-1
 836.5 39 l 1,35,-1
 772.5 -9 l 1,36,-1
 652.5 154 l 1,0,1
178.5 -9 m 1,37,38
 163.5 35 163.5 35 154 84.5 c 128,-1,39
 144.5 134 144.5 134 144.5 179 c 0,40,41
 144.5 235 144.5 235 161 274.5 c 128,-1,42
 177.5 314 177.5 314 207.5 334.5 c 128,-1,43
 237.5 355 237.5 355 277.5 355 c 0,44,45
 324.5 355 324.5 355 357.5 327 c 128,-1,46
 390.5 299 390.5 299 395.5 243 c 1,47,-1
 373.5 243 l 1,48,49
 377.5 286 377.5 286 394 310.5 c 128,-1,50
 410.5 335 410.5 335 436 345 c 128,-1,51
 461.5 355 461.5 355 490.5 355 c 0,52,53
 546.5 355 546.5 355 579.5 321 c 128,-1,54
 612.5 287 612.5 287 612.5 227 c 2,55,-1
 612.5 0 l 1,56,-1
 534.5 0 l 1,57,-1
 534.5 220 l 2,58,59
 534.5 227 534.5 227 533 239 c 128,-1,60
 531.5 251 531.5 251 526 263.5 c 128,-1,61
 520.5 276 520.5 276 509 285 c 128,-1,62
 497.5 294 497.5 294 477.5 294 c 0,63,64
 449.5 294 449.5 294 435 273 c 128,-1,65
 420.5 252 420.5 252 420.5 214 c 2,66,-1
 420.5 0 l 1,67,-1
 346.5 0 l 1,68,-1
 346.5 210 l 2,69,70
 346.5 253 346.5 253 331 273.5 c 128,-1,71
 315.5 294 315.5 294 288.5 294 c 0,72,73
 258.5 294 258.5 294 240.5 264.5 c 128,-1,74
 222.5 235 222.5 235 222.5 175 c 0,75,76
 222.5 150 222.5 150 226 121.5 c 128,-1,77
 229.5 93 229.5 93 236 64.5 c 128,-1,78
 242.5 36 242.5 36 250.5 9 c 1,79,-1
 178.5 -9 l 1,80,-1
 178.5 -9 l 1,37,38
EndSplineSet
EndChar

StartChar: m
Encoding: 109 109 53
Width: 890
GlyphClass: 2
Flags: W
LayerCount: 2
Fore
SplineSet
259.5 186 m 1,0,1
 215.5 209 215.5 209 184.5 243.5 c 128,-1,2
 153.5 278 153.5 278 137.5 321 c 128,-1,3
 121.5 364 121.5 364 121.5 412 c 0,4,5
 121.5 465 121.5 465 141.5 511 c 128,-1,6
 161.5 557 161.5 557 200.5 591.5 c 128,-1,7
 239.5 626 239.5 626 295 646 c 128,-1,8
 350.5 666 350.5 666 420.5 666 c 0,9,10
 471.5 666 471.5 666 521 653.5 c 128,-1,11
 570.5 641 570.5 641 614 616 c 128,-1,12
 657.5 591 657.5 591 691 552.5 c 128,-1,13
 724.5 514 724.5 514 743.5 463 c 128,-1,14
 762.5 412 762.5 412 762.5 347 c 1,15,-1
 700.5 344 l 1,16,17
 700.5 404 700.5 404 679 450.5 c 128,-1,18
 657.5 497 657.5 497 620 528.5 c 128,-1,19
 582.5 560 582.5 560 533.5 576.5 c 128,-1,20
 484.5 593 484.5 593 429.5 593 c 0,21,22
 352.5 593 352.5 593 302 566.5 c 128,-1,23
 251.5 540 251.5 540 226.5 497 c 128,-1,24
 201.5 454 201.5 454 201.5 404 c 0,25,26
 201.5 355 201.5 355 224.5 312 c 128,-1,27
 247.5 269 247.5 269 290.5 243 c 1,28,-1
 259.5 186 l 1,29,-1
 259.5 186 l 1,0,1
690.5 471 m 1,30,-1
 694.5 511 l 1,31,-1
 690.5 658 l 1,32,-1
 768.5 658 l 1,33,-1
 768.5 0 l 1,34,-1
 690.5 0 l 1,35,-1
 690.5 471 l 1,30,-1
281.5 -8 m 1,36,37
 259.5 -8 259.5 -8 241.5 4 c 128,-1,38
 223.5 16 223.5 16 213 38.5 c 128,-1,39
 202.5 61 202.5 61 202.5 91 c 0,40,41
 202.5 143 202.5 143 226.5 189.5 c 128,-1,42
 250.5 236 250.5 236 293.5 273.5 c 128,-1,43
 336.5 311 336.5 311 393.5 335.5 c 128,-1,44
 450.5 360 450.5 360 515.5 369 c 1,45,-1
 526.5 301 l 1,46,47
 439.5 288 439.5 288 383.5 255 c 128,-1,48
 327.5 222 327.5 222 301 177.5 c 128,-1,49
 274.5 133 274.5 133 274.5 84 c 0,50,51
 274.5 70 274.5 70 281 56 c 128,-1,52
 287.5 42 287.5 42 295.5 30 c 1,53,-1
 216.5 64 l 1,54,55
 216.5 93 216.5 93 235 108.5 c 128,-1,56
 253.5 124 253.5 124 280.5 124 c 0,57,58
 302.5 124 302.5 124 318 114.5 c 128,-1,59
 333.5 105 333.5 105 342 89.5 c 128,-1,60
 350.5 74 350.5 74 350.5 57 c 0,61,62
 350.5 29 350.5 29 331 10.5 c 128,-1,63
 311.5 -8 311.5 -8 281.5 -8 c 1,64,-1
 281.5 -8 l 1,36,37
EndSplineSet
EndChar

StartChar: n
Encoding: 110 110 54
Width: 890
GlyphClass: 2
Flags: W
LayerCount: 2
Fore
SplineSet
256.5 182 m 1,0,1
 191.5 217 191.5 217 156.5 277.5 c 128,-1,2
 121.5 338 121.5 338 121.5 409 c 0,3,4
 121.5 472 121.5 472 147.5 520 c 128,-1,5
 173.5 568 173.5 568 218 600.5 c 128,-1,6
 262.5 633 262.5 633 319.5 649.5 c 128,-1,7
 376.5 666 376.5 666 439.5 666 c 0,8,9
 504.5 666 504.5 666 564 649 c 128,-1,10
 623.5 632 623.5 632 669.5 598.5 c 128,-1,11
 715.5 565 715.5 565 742 515.5 c 128,-1,12
 768.5 466 768.5 466 768.5 401 c 0,13,14
 768.5 355 768.5 355 756.5 315 c 128,-1,15
 744.5 275 744.5 275 721.5 241 c 1,16,-1
 652.5 276 l 1,17,18
 669.5 302 669.5 302 679.5 333 c 128,-1,19
 689.5 364 689.5 364 689.5 399 c 0,20,21
 689.5 447 689.5 447 668.5 483.5 c 128,-1,22
 647.5 520 647.5 520 612 544.5 c 128,-1,23
 576.5 569 576.5 569 531.5 581 c 128,-1,24
 486.5 593 486.5 593 438.5 593 c 256,25,26
 390.5 593 390.5 593 347.5 581 c 128,-1,27
 304.5 569 304.5 569 272 545 c 128,-1,28
 239.5 521 239.5 521 220.5 485.5 c 128,-1,29
 201.5 450 201.5 450 201.5 404 c 0,30,31
 201.5 355 201.5 355 224.5 312 c 128,-1,32
 247.5 269 247.5 269 290.5 243 c 1,33,-1
 256.5 182 l 1,34,-1
 256.5 182 l 1,0,1
281.5 -8 m 1,35,36
 259.5 -8 259.5 -8 241.5 4 c 128,-1,37
 223.5 16 223.5 16 213 38.5 c 128,-1,38
 202.5 61 202.5 61 202.5 92 c 0,39,40
 202.5 136 202.5 136 222.5 182 c 128,-1,41
 242.5 228 242.5 228 280 267 c 128,-1,42
 317.5 306 317.5 306 372 330 c 128,-1,43
 426.5 354 426.5 354 495.5 354 c 0,44,45
 517.5 354 517.5 354 542 352 c 128,-1,46
 566.5 350 566.5 350 585.5 346 c 1,47,-1
 585.5 0 l 1,48,-1
 507.5 0 l 1,49,-1
 507.5 310 l 1,50,-1
 552.5 283 l 1,51,52
 537.5 286 537.5 286 524 287 c 128,-1,53
 510.5 288 510.5 288 498.5 288 c 0,54,55
 448.5 288 448.5 288 407 270 c 128,-1,56
 365.5 252 365.5 252 336 222.5 c 128,-1,57
 306.5 193 306.5 193 290.5 156.5 c 128,-1,58
 274.5 120 274.5 120 274.5 84 c 0,59,60
 274.5 69 274.5 69 281.5 56.5 c 128,-1,61
 288.5 44 288.5 44 296.5 33 c 1,62,-1
 238.5 96 l 1,63,64
 240.5 106 240.5 106 247 112 c 128,-1,65
 253.5 118 253.5 118 262.5 121 c 128,-1,66
 271.5 124 271.5 124 280.5 124 c 0,67,68
 302.5 124 302.5 124 318 114.5 c 128,-1,69
 333.5 105 333.5 105 342 89.5 c 128,-1,70
 350.5 74 350.5 74 350.5 57 c 0,71,72
 350.5 38 350.5 38 341.5 23.5 c 128,-1,73
 332.5 9 332.5 9 317 0.5 c 128,-1,74
 301.5 -8 301.5 -8 281.5 -8 c 1,75,-1
 281.5 -8 l 1,35,36
EndSplineSet
EndChar

StartChar: o
Encoding: 111 111 55
Width: 890
GlyphClass: 2
Flags: W
LayerCount: 2
Fore
SplineSet
350 266 m 1,0,-1
 350 330 l 1,1,-1
 546 330 l 1,2,-1
 546 266 l 1,3,-1
 350 266 l 1,0,-1
451 -9 m 0,4,5
 396 -9 396 -9 355.5 17.5 c 128,-1,6
 315 44 315 44 288.5 87.5 c 128,-1,7
 262 131 262 131 249 185.5 c 128,-1,8
 236 240 236 240 236 296 c 256,9,10
 236 352 236 352 248 410.5 c 128,-1,11
 260 469 260 469 286 516.5 c 128,-1,12
 312 564 312 564 353 594.5 c 128,-1,13
 394 625 394 625 452 625 c 0,14,15
 505 625 505 625 543 597.5 c 128,-1,16
 581 570 581 570 605.5 524 c 128,-1,17
 630 478 630 478 642 417.5 c 128,-1,18
 654 357 654 357 654 291 c 0,19,20
 654 236 654 236 642 182 c 128,-1,21
 630 128 630 128 605.5 85.5 c 128,-1,22
 581 43 581 43 542.5 17 c 128,-1,23
 504 -9 504 -9 451 -9 c 0,4,5
299 468 m 0,24,25
 302 468 302 468 306 473.5 c 128,-1,26
 310 479 310 479 314.5 487.5 c 128,-1,27
 319 496 319 496 324.5 505 c 128,-1,28
 330 514 330 514 335 521 c 0,29,30
 357 550 357 550 376.5 567 c 128,-1,31
 396 584 396 584 396 589 c 0,32,33
 396 592 396 592 391 593 c 0,34,35
 379 593 379 593 362.5 579 c 128,-1,36
 346 565 346 565 331 545.5 c 128,-1,37
 316 526 316 526 305.5 505.5 c 128,-1,38
 295 485 295 485 295 473 c 0,39,40
 295 468 295 468 299 468 c 0,24,25
451 71 m 0,41,42
 481 71 481 71 499.5 93.5 c 128,-1,43
 518 116 518 116 528.5 149.5 c 128,-1,44
 539 183 539 183 543 223 c 128,-1,45
 547 263 547 263 547 299 c 256,46,47
 547 335 547 335 544.5 376 c 128,-1,48
 542 417 542 417 532 452 c 128,-1,49
 522 487 522 487 503 510 c 128,-1,50
 484 533 484 533 452 533 c 0,51,52
 421 533 421 533 401 505 c 128,-1,53
 381 477 381 477 369.5 438.5 c 128,-1,54
 358 400 358 400 354 360 c 128,-1,55
 350 320 350 320 350 296 c 256,56,57
 350 272 350 272 353 233.5 c 128,-1,58
 356 195 356 195 366.5 159 c 128,-1,59
 377 123 377 123 397 97 c 128,-1,60
 417 71 417 71 451 71 c 0,41,42
300 446 m 256,61,62
 300 454 300 454 293 456 c 0,63,64
 290 456 290 456 285 452.5 c 128,-1,65
 280 449 280 449 280 441 c 0,66,67
 280 432 280 432 288 432 c 0,68,69
 291 432 291 432 295.5 435 c 128,-1,70
 300 438 300 438 300 446 c 256,61,62
EndSplineSet

EndChar

StartChar: p
Encoding: 112 112 56
Width: 890
GlyphClass: 2
Flags: W
LayerCount: 2
Fore
SplineSet
268.5 185 m 1,0,1
 219.5 210 219.5 210 187 245 c 128,-1,2
 154.5 280 154.5 280 138 323.5 c 128,-1,3
 121.5 367 121.5 367 121.5 416 c 0,4,5
 121.5 476 121.5 476 146 522.5 c 128,-1,6
 170.5 569 170.5 569 212.5 601 c 128,-1,7
 254.5 633 254.5 633 307.5 649.5 c 128,-1,8
 360.5 666 360.5 666 418.5 666 c 0,9,10
 483.5 666 483.5 666 545 646 c 128,-1,11
 606.5 626 606.5 626 655.5 586.5 c 128,-1,12
 704.5 547 704.5 547 733.5 487 c 128,-1,13
 762.5 427 762.5 427 762.5 347 c 1,14,-1
 700.5 344 l 1,15,16
 700.5 405 700.5 405 678.5 451.5 c 128,-1,17
 656.5 498 656.5 498 618 529.5 c 128,-1,18
 579.5 561 579.5 561 530 577 c 128,-1,19
 480.5 593 480.5 593 426.5 593 c 0,20,21
 366.5 593 366.5 593 315 571 c 128,-1,22
 263.5 549 263.5 549 232.5 506.5 c 128,-1,23
 201.5 464 201.5 464 201.5 402 c 0,24,25
 201.5 356 201.5 356 225 313.5 c 128,-1,26
 248.5 271 248.5 271 297.5 243 c 1,27,-1
 268.5 185 l 1,28,-1
 268.5 185 l 1,0,1
462.5 -7 m 1,29,30
 406.5 -7 406.5 -7 359 15.5 c 128,-1,31
 311.5 38 311.5 38 283 79 c 128,-1,32
 254.5 120 254.5 120 254.5 178 c 0,33,34
 254.5 227 254.5 227 276.5 269.5 c 128,-1,35
 298.5 312 298.5 312 339 344.5 c 128,-1,36
 379.5 377 379.5 377 434.5 395 c 1,37,-1
 461.5 333 l 1,38,39
 406.5 314 406.5 314 370 275.5 c 128,-1,40
 333.5 237 333.5 237 333.5 187 c 0,41,42
 333.5 148 333.5 148 354 121 c 128,-1,43
 374.5 94 374.5 94 406 80 c 128,-1,44
 437.5 66 437.5 66 470.5 66 c 0,45,46
 513.5 66 513.5 66 559 84 c 128,-1,47
 604.5 102 604.5 102 642.5 137 c 128,-1,48
 680.5 172 680.5 172 701.5 224 c 1,49,-1
 739.5 180 l 1,50,51
 715.5 116 715.5 116 671 74.5 c 128,-1,52
 626.5 33 626.5 33 572 13 c 128,-1,53
 517.5 -7 517.5 -7 462.5 -7 c 1,54,-1
 462.5 -7 l 1,29,30
695.5 106 m 1,55,-1
 690.5 144 l 1,56,-1
 690.5 471 l 1,57,-1
 694.5 511 l 1,58,-1
 690.5 658 l 1,59,-1
 768.5 658 l 1,60,-1
 768.5 0 l 1,61,-1
 690.5 0 l 1,62,-1
 695.5 106 l 1,55,-1
EndSplineSet
EndChar

StartChar: q
Encoding: 113 113 57
Width: 890
GlyphClass: 2
Flags: W
LayerCount: 2
Fore
SplineSet
491.487304688 55.400390625 m 0,0,1
 488.756835938 54 488.756835938 54 488.231445312 46.400390625 c 128,-1,2
 487.756835938 39 487.756835938 39 488.231445312 28.400390625 c 0,3,4
 489.756835938 6 489.756835938 6 492.227539062 -16.7001953125 c 0,5,6
 495.756835938 -70 495.756835938 -70 495.756835938 -83 c 0,7,8
 495.756835938 -95 495.756835938 -95 486.756835938 -109.5 c 128,-1,9
 477.756835938 -124 477.756835938 -124 452.756835938 -124 c 260,10,11
 427.756835938 -124 427.756835938 -124 419.256835938 -108.5 c 128,-1,12
 410.756835938 -93 410.756835938 -93 410.756835938 -75 c 0,13,14
 410.756835938 -61 410.756835938 -61 412.0625 -9.0498046875 c 0,15,16
 413.756835938 33 413.756835938 33 413.3671875 35.599609375 c 0,17,18
 413.756835938 51 413.756835938 51 408.716796875 53.599609375 c 0,19,20
 372.756835938 68 372.756835938 68 346.872070312 95 c 0,21,22
 321.756835938 122 321.756835938 122 305.952148438 158 c 0,23,24
 290.756835938 194 290.756835938 194 283.631835938 236.75 c 0,25,26
 276.756835938 279 276.756835938 279 276.657226562 323.599609375 c 0,27,28
 276.756835938 373 276.756835938 373 284.561523438 424.849609375 c 0,29,30
 292.756835938 477 292.756835938 477 311.997070312 519.349609375 c 0,31,32
 331.756835938 562 331.756835938 562 364.077148438 589.099609375 c 0,33,34
 396.756835938 616 396.756835938 616 445.916992188 616.099609375 c 256,35,36
 494.756835938 616 494.756835938 616 527.291992188 592.25 c 0,37,38
 559.756835938 568 559.756835938 568 578.44140625 528.349609375 c 0,39,40
 597.756835938 488 597.756835938 488 605.412109375 437 c 0,41,42
 613.756835938 386 613.756835938 386 613.31640625 331.700195312 c 0,43,44
 613.756835938 285 613.756835938 285 606.806640625 241.25 c 0,45,46
 600.756835938 198 600.756835938 198 585.416992188 161.150390625 c 0,47,48
 570.756835938 125 570.756835938 125 547.287109375 97.7001953125 c 0,49,50
 526.756835938 73 526.756835938 73 491.487304688 55.400390625 c 0,0,1
341.756835938 509.900390625 m 0,51,52
 346.756835938 520 346.756835938 520 356.63671875 535.549804688 c 0,53,54
 366.756835938 551 366.756835938 551 378.026367188 560.299804688 c 0,55,56
 383.756835938 565 383.756835938 565 379.421875 569.75 c 0,57,58
 374.756835938 575 374.756835938 575 373.376953125 574.700195312 c 0,59,60
 367.756835938 575 367.756835938 575 359.891601562 565.700195312 c 0,61,62
 351.756835938 557 351.756835938 557 344.08203125 544.549804688 c 0,63,64
 335.756835938 532 335.756835938 532 330.596679688 518.900390625 c 0,65,66
 324.756835938 505 324.756835938 505 325.016601562 497.299804688 c 0,67,68
 324.756835938 490 324.756835938 490 329.666992188 490.099609375 c 0,69,70
 331.756835938 490 331.756835938 490 341.756835938 509.900390625 c 0,51,52
445.916992188 105.799804688 m 0,71,72
 468.756835938 106 468.756835938 106 483.58203125 130.549804688 c 0,73,74
 497.756835938 155 497.756835938 155 505.901367188 190.849609375 c 0,75,76
 513.756835938 226 513.756835938 226 516.596679688 265.549804688 c 0,77,78
 518.028320312 283.423828125 518.028320312 283.423828125 519.38671875 332.599609375 c 0,79,80
 519.756835938 346 519.756835938 346 517.9921875 367.700195312 c 0,81,82
 516.756835938 389 516.756835938 389 513.341796875 414.5 c 128,-1,83
 509.756835938 440 509.756835938 440 504.971679688 465.799804688 c 0,84,85
 499.756835938 492 499.756835938 492 491.487304688 513.049804688 c 0,86,87
 482.756835938 534 482.756835938 534 471.95703125 547.25 c 0,88,89
 460.756835938 560 460.756835938 560 445.916992188 560.299804688 c 256,90,91
 430.756835938 560 430.756835938 560 419.876953125 546.799804688 c 0,92,93
 408.756835938 533 408.756835938 533 400.811523438 511.700195312 c 0,94,95
 392.756835938 490 392.756835938 490 387.791992188 464 c 128,-1,96
 382.756835938 438 382.756835938 438 379.88671875 412.700195312 c 0,97,98
 376.756835938 387 376.756835938 387 376.166992188 365.900390625 c 0,99,100
 374.756835938 344 374.756835938 344 375.237304688 331.700195312 c 0,101,102
 374.756835938 304 374.756835938 304 378.026367188 264.650390625 c 0,103,104
 380.756835938 225 380.756835938 225 388.721679688 190.400390625 c 0,105,106
 396.756835938 155 396.756835938 155 410.112304688 130.549804688 c 0,107,108
 423.756835938 106 423.756835938 106 445.916992188 105.799804688 c 0,71,72
328.737304688 470.299804688 m 0,109,110
 328.756835938 479 328.756835938 479 326.876953125 481.549804688 c 0,111,112
 324.756835938 484 324.756835938 484 320.3671875 483.799804688 c 256,113,114
 315.756835938 484 315.756835938 484 313.391601562 478.849609375 c 0,115,116
 310.756835938 474 310.756835938 474 311.06640625 468.5 c 0,117,118
 310.756835938 461 310.756835938 461 314.322265625 458.599609375 c 128,-1,119
 317.756835938 456 317.756835938 456 320.3671875 455.900390625 c 0,120,121
 321.756835938 456 321.756835938 456 325.481445312 459.5 c 0,122,123
 328.756835938 463 328.756835938 463 328.737304688 470.299804688 c 0,109,110
457.756835938 -97 m 0,124,125
 457.756835938 -91 457.756835938 -91 454.756835938 -87.5 c 128,-1,126
 451.756835938 -84 451.756835938 -84 448.256835938 -81 c 128,-1,127
 444.756835938 -78 444.756835938 -78 441.756835938 -75.5 c 128,-1,128
 438.756835938 -73 438.756835938 -73 438.756835938 -68 c 0,129,130
 438.756835938 -50 438.756835938 -50 429.756835938 -50 c 0,131,132
 424.756835938 -50 424.756835938 -50 424.756835938 -70 c 0,133,134
 424.756835938 -80 424.756835938 -80 430.256835938 -94.5 c 128,-1,135
 435.756835938 -109 435.756835938 -109 446.756835938 -109 c 0,136,137
 450.756835938 -109 450.756835938 -109 454.256835938 -106.5 c 128,-1,138
 457.756835938 -104 457.756835938 -104 457.756835938 -97 c 0,124,125
EndSplineSet
EndChar

StartChar: r
Encoding: 114 114 58
Width: 890
GlyphClass: 2
Flags: W
LayerCount: 2
Fore
SplineSet
605 154 m 1,0,1
 658 198 658 198 685 255 c 128,-1,2
 712 312 712 312 712 369 c 0,3,4
 712 423 712 423 689 465 c 128,-1,5
 666 507 666 507 627 535.5 c 128,-1,6
 588 564 588 564 537.5 578.5 c 128,-1,7
 487 593 487 593 431 593 c 0,8,9
 379 593 379 593 333 580.5 c 128,-1,10
 287 568 287 568 251 544 c 128,-1,11
 215 520 215 520 194.5 485 c 128,-1,12
 174 450 174 450 174 405 c 0,13,14
 174 362 174 362 193.5 321.5 c 128,-1,15
 213 281 213 281 247 254 c 1,16,-1
 219 198 l 1,17,18
 158 238 158 238 128 294.5 c 128,-1,19
 98 351 98 351 98 412 c 0,20,21
 98 475 98 475 126 522.5 c 128,-1,22
 154 570 154 570 201.5 602 c 128,-1,23
 249 634 249 634 309 650 c 128,-1,24
 369 666 369 666 433 666 c 0,25,26
 501 666 501 666 565 648 c 128,-1,27
 629 630 629 630 680 595 c 128,-1,28
 731 560 731 560 761.5 507 c 128,-1,29
 792 454 792 454 792 384 c 0,30,31
 792 335 792 335 776 287 c 128,-1,32
 760 239 760 239 730 197 c 128,-1,33
 700 155 700 155 658 123 c 1,34,-1
 674 184 l 1,35,-1
 789 38 l 1,36,-1
 725 -9 l 1,37,-1
 605 154 l 1,0,1
377 -8 m 1,38,39
 325 -8 325 -8 283 14.5 c 128,-1,40
 241 37 241 37 216.5 78 c 128,-1,41
 192 119 192 119 192 174 c 256,42,43
 192 229 192 229 216.5 269.5 c 128,-1,44
 241 310 241 310 283 332.5 c 128,-1,45
 325 355 325 355 377 355 c 256,46,47
 429 355 429 355 471.5 332.5 c 128,-1,48
 514 310 514 310 539.5 269.5 c 128,-1,49
 565 229 565 229 565 174 c 256,50,51
 565 119 565 119 539.5 78 c 128,-1,52
 514 37 514 37 471.5 14.5 c 128,-1,53
 429 -8 429 -8 377 -8 c 1,54,-1
 377 -8 l 1,38,39
378 57 m 1,55,56
 428 57 428 57 460.5 89 c 128,-1,57
 493 121 493 121 493 174 c 0,58,59
 493 226 493 226 460.5 257.5 c 128,-1,60
 428 289 428 289 378 289 c 256,61,62
 328 289 328 289 296 257.5 c 128,-1,63
 264 226 264 226 264 174 c 256,64,65
 264 122 264 122 296.5 89.5 c 128,-1,66
 329 57 329 57 378 57 c 1,67,-1
 378 57 l 1,55,56
EndSplineSet
EndChar

StartChar: s
Encoding: 115 115 59
Width: 890
GlyphClass: 2
Flags: W
LayerCount: 2
Fore
SplineSet
304.5 217 m 1,0,1
 251.5 242 251.5 242 215.5 277.5 c 128,-1,2
 179.5 313 179.5 313 162 355 c 128,-1,3
 144.5 397 144.5 397 144.5 442 c 0,4,5
 144.5 506 144.5 506 178 556.5 c 128,-1,6
 211.5 607 211.5 607 270.5 636.5 c 128,-1,7
 329.5 666 329.5 666 407.5 666 c 0,8,9
 467.5 666 467.5 666 526 646 c 128,-1,10
 584.5 626 584.5 626 633 586.5 c 128,-1,11
 681.5 547 681.5 547 710 487 c 128,-1,12
 738.5 427 738.5 427 738.5 347 c 1,13,-1
 677.5 344 l 1,14,15
 677.5 408 677.5 408 654 455 c 128,-1,16
 630.5 502 630.5 502 592 532.5 c 128,-1,17
 553.5 563 553.5 563 507.5 578 c 128,-1,18
 461.5 593 461.5 593 415.5 593 c 0,19,20
 361.5 593 361.5 593 318 573.5 c 128,-1,21
 274.5 554 274.5 554 249 519 c 128,-1,22
 223.5 484 223.5 484 223.5 436 c 0,23,24
 223.5 387 223.5 387 254 342 c 128,-1,25
 284.5 297 284.5 297 345.5 265 c 1,26,-1
 304.5 217 l 1,27,-1
 304.5 217 l 1,0,1
667.5 482 m 1,28,-1
 671.5 510 l 1,29,-1
 667.5 658 l 1,30,-1
 745.5 658 l 1,31,-1
 745.5 -12 l 1,32,-1
 704.5 -12 l 1,33,-1
 216.5 111 l 1,34,-1
 200.5 157 l 1,35,-1
 455.5 402 l 1,36,-1
 502.5 351 l 1,37,-1
 272.5 128 l 1,38,-1
 265.5 174 l 1,39,-1
 727.5 58 l 1,40,-1
 667.5 6 l 1,41,-1
 667.5 482 l 1,28,-1
EndSplineSet
EndChar

StartChar: t
Encoding: 116 116 60
Width: 890
GlyphClass: 2
Flags: W
LayerCount: 2
Fore
SplineSet
262.5 198 m 1,0,1
 201.5 238 201.5 238 171.5 292.5 c 128,-1,2
 141.5 347 141.5 347 141.5 412 c 0,3,4
 141.5 475 141.5 475 165.5 522.5 c 128,-1,5
 189.5 570 189.5 570 230 602 c 128,-1,6
 270.5 634 270.5 634 323 650 c 128,-1,7
 375.5 666 375.5 666 432.5 666 c 0,8,9
 493.5 666 493.5 666 549 646.5 c 128,-1,10
 604.5 627 604.5 627 648 587.5 c 128,-1,11
 691.5 548 691.5 548 716.5 488.5 c 128,-1,12
 741.5 429 741.5 429 741.5 348 c 1,13,-1
 684.5 348 l 1,14,15
 684.5 410 684.5 410 664.5 456 c 128,-1,16
 644.5 502 644.5 502 610 532.5 c 128,-1,17
 575.5 563 575.5 563 531.5 578 c 128,-1,18
 487.5 593 487.5 593 439.5 593 c 0,19,20
 381.5 593 381.5 593 331 571.5 c 128,-1,21
 280.5 550 280.5 550 249 508 c 128,-1,22
 217.5 466 217.5 466 217.5 404 c 0,23,24
 217.5 358 217.5 358 237 319.5 c 128,-1,25
 256.5 281 256.5 281 290.5 254 c 1,26,-1
 262.5 198 l 1,27,-1
 262.5 198 l 1,0,1
670.5 475 m 1,28,-1
 674.5 513 l 1,29,-1
 670.5 658 l 1,30,-1
 748.5 658 l 1,31,-1
 748.5 313 l 1,32,-1
 670.5 313 l 1,33,-1
 670.5 475 l 1,28,-1
420.5 -8 m 1,34,35
 368.5 -8 368.5 -8 326.5 14.5 c 128,-1,36
 284.5 37 284.5 37 260 78 c 128,-1,37
 235.5 119 235.5 119 235.5 174 c 256,38,39
 235.5 229 235.5 229 260 269.5 c 128,-1,40
 284.5 310 284.5 310 326.5 332.5 c 128,-1,41
 368.5 355 368.5 355 420.5 355 c 256,42,43
 472.5 355 472.5 355 515 332.5 c 128,-1,44
 557.5 310 557.5 310 583 269.5 c 128,-1,45
 608.5 229 608.5 229 608.5 174 c 256,46,47
 608.5 119 608.5 119 583 78 c 128,-1,48
 557.5 37 557.5 37 515 14.5 c 128,-1,49
 472.5 -8 472.5 -8 420.5 -8 c 1,50,-1
 420.5 -8 l 1,34,35
421.5 57 m 1,51,52
 471.5 57 471.5 57 504 89 c 128,-1,53
 536.5 121 536.5 121 536.5 174 c 0,54,55
 536.5 226 536.5 226 504 257.5 c 128,-1,56
 471.5 289 471.5 289 421.5 289 c 256,57,58
 371.5 289 371.5 289 339.5 257.5 c 128,-1,59
 307.5 226 307.5 226 307.5 174 c 256,60,61
 307.5 122 307.5 122 340 89.5 c 128,-1,62
 372.5 57 372.5 57 421.5 57 c 1,63,-1
 421.5 57 l 1,51,52
EndSplineSet
EndChar

StartChar: u
Encoding: 117 117 61
Width: 890
GlyphClass: 2
Flags: W
LayerCount: 2
Fore
SplineSet
565.5 0 m 0,0,1
 544.5 0 544.5 0 536 17 c 128,-1,2
 527.5 34 527.5 34 527.5 59 c 256,3,4
 527.5 84 527.5 84 523.5 84 c 0,5,6
 520.5 84 520.5 84 517.5 78.5 c 128,-1,7
 514.5 73 514.5 73 507.5 65 c 0,8,9
 500.5 56 500.5 56 491 44.5 c 128,-1,10
 481.5 33 481.5 33 469 23.5 c 128,-1,11
 456.5 14 456.5 14 441 7 c 128,-1,12
 425.5 0 425.5 0 406.5 0 c 0,13,14
 341.5 0 341.5 0 304 43.5 c 128,-1,15
 266.5 87 266.5 87 266.5 164 c 2,16,-1
 266.5 569 l 2,17,18
 266.5 592 266.5 592 280.5 604.5 c 128,-1,19
 294.5 617 294.5 617 314.5 617 c 0,20,21
 336.5 617 336.5 617 355 602.5 c 128,-1,22
 373.5 588 373.5 588 373.5 566 c 2,23,-1
 373.5 174 l 2,24,25
 373.5 140 373.5 140 387 118.5 c 128,-1,26
 400.5 97 400.5 97 422.5 97 c 0,27,28
 440.5 97 440.5 97 457.5 110.5 c 128,-1,29
 474.5 124 474.5 124 488 145 c 128,-1,30
 501.5 166 501.5 166 509.5 190 c 128,-1,31
 517.5 214 517.5 214 517.5 235 c 2,32,-1
 517.5 554 l 2,33,34
 517.5 617 517.5 617 564.5 617 c 0,35,36
 587.5 617 587.5 617 605.5 601 c 128,-1,37
 623.5 585 623.5 585 623.5 542 c 2,38,-1
 623.5 75 l 2,39,40
 623.5 51 623.5 51 618.5 36.5 c 128,-1,41
 613.5 22 613.5 22 605.5 13.5 c 128,-1,42
 597.5 5 597.5 5 587 2.5 c 128,-1,43
 576.5 0 576.5 0 565.5 0 c 0,0,1
552.5 588 m 256,44,45
 560.5 596 560.5 596 558 600.5 c 128,-1,46
 555.5 605 555.5 605 549.5 605 c 0,47,48
 541.5 605 541.5 605 534.5 591.5 c 128,-1,49
 527.5 578 527.5 578 527.5 567 c 0,50,51
 527.5 560 527.5 560 529.5 558.5 c 128,-1,52
 531.5 557 531.5 557 534.5 557 c 0,53,54
 538.5 557 538.5 557 541.5 568.5 c 128,-1,55
 544.5 580 544.5 580 552.5 588 c 256,44,45
306.5 597 m 0,56,57
 306.5 604 306.5 604 302.5 604 c 0,58,59
 297.5 604 297.5 604 287.5 591.5 c 128,-1,60
 277.5 579 277.5 579 277.5 568 c 0,61,62
 277.5 558 277.5 558 282.5 558 c 0,63,64
 285.5 558 285.5 558 289.5 563 c 128,-1,65
 293.5 568 293.5 568 297.5 575 c 128,-1,66
 301.5 582 301.5 582 304 588 c 128,-1,67
 306.5 594 306.5 594 306.5 597 c 0,56,57
348.5 52 m 0,68,69
 348.5 57 348.5 57 344.5 60.5 c 128,-1,70
 340.5 64 340.5 64 335 68 c 128,-1,71
 329.5 72 329.5 72 324 77.5 c 128,-1,72
 318.5 83 318.5 83 315.5 92 c 0,73,74
 311.5 103 311.5 103 309 109.5 c 128,-1,75
 306.5 116 306.5 116 302.5 116 c 0,76,77
 294.5 116 294.5 116 294.5 103 c 0,78,79
 294.5 96 294.5 96 299.5 85 c 128,-1,80
 304.5 74 304.5 74 312 64 c 128,-1,81
 319.5 54 319.5 54 327 47 c 128,-1,82
 334.5 40 334.5 40 340.5 40 c 0,83,84
 348.5 40 348.5 40 348.5 52 c 0,68,69
553.5 52 m 0,85,86
 552.5 62 552.5 62 552.5 69 c 128,-1,87
 552.5 76 552.5 76 548.5 76 c 256,88,89
 544.5 76 544.5 76 543 69.5 c 128,-1,90
 541.5 63 541.5 63 541.5 55 c 0,91,92
 541.5 42 541.5 42 547.5 27 c 128,-1,93
 553.5 12 553.5 12 560.5 12 c 0,94,95
 562.5 12 562.5 12 562 15.5 c 128,-1,96
 561.5 19 561.5 19 559.5 25 c 128,-1,97
 557.5 31 557.5 31 555.5 38 c 128,-1,98
 553.5 45 553.5 45 553.5 52 c 0,85,86
EndSplineSet
EndChar

StartChar: v
Encoding: 118 118 62
Width: 890
GlyphClass: 2
Flags: W
LayerCount: 2
Fore
SplineSet
247 198 m 1,0,1
 183 233 183 233 150.5 290.5 c 128,-1,2
 118 348 118 348 118 412 c 0,3,4
 118 465 118 465 140 511.5 c 128,-1,5
 162 558 162 558 203.5 592.5 c 128,-1,6
 245 627 245 627 304.5 646.5 c 128,-1,7
 364 666 364 666 439 666 c 0,8,9
 501 666 501 666 560.5 649 c 128,-1,10
 620 632 620 632 667.5 598.5 c 128,-1,11
 715 565 715 565 743.5 514.5 c 128,-1,12
 772 464 772 464 772 396 c 0,13,14
 772 351 772 351 758.5 313.5 c 128,-1,15
 745 276 745 276 722 246 c 1,16,-1
 651 278 l 1,17,18
 671 303 671 303 681.5 332.5 c 128,-1,19
 692 362 692 362 692 396 c 0,20,21
 692 446 692 446 670.5 482.5 c 128,-1,22
 649 519 649 519 613 544 c 128,-1,23
 577 569 577 569 532 581 c 128,-1,24
 487 593 487 593 440 593 c 0,25,26
 380 593 380 593 334.5 577.5 c 128,-1,27
 289 562 289 562 257.5 535.5 c 128,-1,28
 226 509 226 509 210 474.5 c 128,-1,29
 194 440 194 440 194 402 c 0,30,31
 194 358 194 358 214 318.5 c 128,-1,32
 234 279 234 279 271 256 c 1,33,-1
 247 198 l 1,34,-1
 247 198 l 1,0,1
414 49 m 1,35,36
 361 49 361 49 320.5 70.5 c 128,-1,37
 280 92 280 92 257.5 130.5 c 128,-1,38
 235 169 235 169 235 220 c 256,39,40
 235 271 235 271 258 309.5 c 128,-1,41
 281 348 281 348 321.5 369.5 c 128,-1,42
 362 391 362 391 416 391 c 0,43,44
 469 391 469 391 509 369.5 c 128,-1,45
 549 348 549 348 571.5 310 c 128,-1,46
 594 272 594 272 594 222 c 0,47,48
 594 171 594 171 571.5 132 c 128,-1,49
 549 93 549 93 508.5 71 c 128,-1,50
 468 49 468 49 414 49 c 1,51,-1
 414 49 l 1,35,36
415 110 m 1,52,53
 462 110 462 110 492.5 141 c 128,-1,54
 523 172 523 172 523 221 c 256,55,56
 523 270 523 270 492.5 299.5 c 128,-1,57
 462 329 462 329 415 329 c 256,58,59
 368 329 368 329 337 299.5 c 128,-1,60
 306 270 306 270 306 221 c 256,61,62
 306 172 306 172 337 141 c 128,-1,63
 368 110 368 110 415 110 c 1,64,-1
 415 110 l 1,52,53
414 179 m 1,65,66
 396 179 396 179 384.5 191 c 128,-1,67
 373 203 373 203 373 221 c 0,68,69
 373 238 373 238 384.5 249 c 128,-1,70
 396 260 396 260 414 260 c 0,71,72
 433 260 433 260 444.5 249 c 128,-1,73
 456 238 456 238 456 221 c 0,74,75
 456 203 456 203 444.5 191 c 128,-1,76
 433 179 433 179 414 179 c 1,77,-1
 414 179 l 1,65,66
520 187 m 1,78,-1
 594 222 l 1,79,-1
 594 0 l 1,80,-1
 516 0 l 1,81,-1
 520 187 l 1,78,-1
EndSplineSet

EndChar

StartChar: w
Encoding: 119 119 63
Width: 890
GlyphClass: 2
Flags: W
LayerCount: 2
Fore
SplineSet
335 -2 m 4,0,1
 300 -2 300 -2 277.5 5 c 132,-1,2
 255 12 255 12 246 29 c 4,3,4
 240 39 240 39 232 77.5 c 132,-1,5
 224 116 224 116 215 169.5 c 132,-1,6
 206 223 206 223 197 284.5 c 132,-1,7
 188 346 188 346 181 402.5 c 132,-1,8
 174 459 174 459 169.5 503.5 c 132,-1,9
 165 548 165 548 165 567 c 4,10,11
 165 588 165 588 179 603 c 132,-1,12
 193 618 193 618 214 618 c 260,13,14
 235 618 235 618 252.5 608 c 132,-1,15
 270 598 270 598 275 569 c 4,16,17
 277 560 277 560 280.5 520.5 c 132,-1,18
 284 481 284 481 289 428 c 132,-1,19
 294 375 294 375 300 315.5 c 132,-1,20
 306 256 306 256 312 206.5 c 132,-1,21
 318 157 318 157 323.5 124 c 132,-1,22
 329 91 329 91 333 91 c 4,23,24
 334 91 334 91 339 125 c 132,-1,25
 344 159 344 159 351.5 210.5 c 132,-1,26
 359 262 359 262 367 323 c 132,-1,27
 375 384 375 384 382.5 438.5 c 132,-1,28
 390 493 390 493 396 533 c 132,-1,29
 402 573 402 573 404 582 c 4,30,31
 409 605 409 605 420.5 611.5 c 132,-1,32
 432 618 432 618 452 618 c 4,33,34
 473 618 473 618 491 608 c 132,-1,35
 509 598 509 598 514 569 c 4,36,37
 515 562 515 562 517.5 537.5 c 132,-1,38
 520 513 520 513 523 478 c 132,-1,39
 526 443 526 443 529.5 400.5 c 132,-1,40
 533 358 533 358 537 314.5 c 132,-1,41
 541 271 541 271 545 230 c 132,-1,42
 549 189 549 189 553 157.5 c 132,-1,43
 557 126 557 126 561 107 c 132,-1,44
 565 88 565 88 568 88 c 4,45,46
 569 88 569 88 574 122 c 132,-1,47
 579 156 579 156 586.5 208 c 132,-1,48
 594 260 594 260 602 321.5 c 132,-1,49
 610 383 610 383 617.5 438 c 132,-1,50
 625 493 625 493 631 533 c 132,-1,51
 637 573 637 573 639 582 c 4,52,53
 643 599 643 599 651.5 608 c 132,-1,54
 660 617 660 617 670 617 c 4,55,56
 676 617 676 617 685.5 615 c 132,-1,57
 695 613 695 613 703.5 609 c 132,-1,58
 712 605 712 605 718.5 599 c 132,-1,59
 725 593 725 593 725 585 c 4,60,61
 725 579 725 579 720.5 541 c 132,-1,62
 716 503 716 503 708.5 449 c 132,-1,63
 701 395 701 395 691.5 331 c 132,-1,64
 682 267 682 267 672.5 208.5 c 132,-1,65
 663 150 663 150 654.5 104.5 c 132,-1,66
 646 59 646 59 640 40 c 4,67,68
 636 27 636 27 627 19 c 132,-1,69
 618 11 618 11 608 6.5 c 132,-1,70
 598 2 598 2 587.5 0 c 132,-1,71
 577 -2 577 -2 570 -2 c 4,72,73
 535 -2 535 -2 513 5 c 132,-1,74
 491 12 491 12 481 29 c 4,75,76
 479 33 479 33 475.5 54.5 c 132,-1,77
 472 76 472 76 468.5 105 c 132,-1,78
 465 134 465 134 461 167 c 132,-1,79
 457 200 457 200 453.5 228 c 132,-1,80
 450 256 450 256 447.5 274.5 c 132,-1,81
 445 293 445 293 443 293 c 260,82,83
 441 293 441 293 437.5 276 c 132,-1,84
 434 259 434 259 430 233.5 c 132,-1,85
 426 208 426 208 422.5 177 c 132,-1,86
 419 146 419 146 415.5 117.5 c 132,-1,87
 412 89 412 89 408.5 68 c 132,-1,88
 405 47 405 47 403 40 c 4,89,90
 399 27 399 27 390.5 19 c 132,-1,91
 382 11 382 11 372 6.5 c 132,-1,92
 362 2 362 2 352 0 c 132,-1,93
 342 -2 342 -2 335 -2 c 4,0,1
666 584 m 4,94,95
 666 597 666 597 662 597 c 4,96,97
 657 597 657 597 653.5 586 c 132,-1,98
 650 575 650 575 650 564 c 4,99,100
 650 559 650 559 651 554 c 132,-1,101
 652 549 652 549 654 549 c 260,102,103
 656 549 656 549 658.5 553.5 c 132,-1,104
 661 558 661 558 662.5 564 c 132,-1,105
 664 570 664 570 665 576 c 132,-1,106
 666 582 666 582 666 584 c 4,94,95
431 584 m 4,107,108
 431 597 431 597 427 597 c 4,109,110
 422 597 422 597 418.5 586 c 132,-1,111
 415 575 415 575 415 564 c 4,112,113
 415 559 415 559 416 554 c 132,-1,114
 417 549 417 549 419 549 c 260,115,116
 421 549 421 549 423.5 553.5 c 132,-1,117
 426 558 426 558 427.5 564 c 132,-1,118
 429 570 429 570 430 576 c 132,-1,119
 431 582 431 582 431 584 c 4,107,108
197 579 m 4,120,121
 202 587 202 587 199.5 591.5 c 132,-1,122
 197 596 197 596 193 596 c 4,123,124
 187 596 187 596 182.5 580.5 c 132,-1,125
 178 565 178 565 178 545 c 4,126,127
 178 522 178 522 183 522 c 4,128,129
 186 522 186 522 187 529.5 c 132,-1,130
 188 537 188 537 189.5 546.5 c 132,-1,131
 191 556 191 556 192.5 565.5 c 132,-1,132
 194 575 194 575 197 579 c 4,120,121
508 40 m 4,133,134
 501 52 501 52 497.5 67.5 c 132,-1,135
 494 83 494 83 488 83 c 4,136,137
 485 83 485 83 484.5 78.5 c 132,-1,138
 484 74 484 74 484 71 c 260,139,140
 484 68 484 68 485.5 60 c 132,-1,141
 487 52 487 52 490 44 c 132,-1,142
 493 36 493 36 496.5 29.5 c 132,-1,143
 500 23 500 23 504 23 c 4,144,145
 509 23 509 23 511 27.5 c 132,-1,146
 513 32 513 32 508 40 c 4,133,134
273 40 m 4,147,148
 266 52 266 52 262.5 67.5 c 132,-1,149
 259 83 259 83 253 83 c 4,150,151
 250 83 250 83 249.5 78.5 c 132,-1,152
 249 74 249 74 249 71 c 260,153,154
 249 68 249 68 250.5 60 c 132,-1,155
 252 52 252 52 255 44 c 132,-1,156
 258 36 258 36 261.5 29.5 c 132,-1,157
 265 23 265 23 269 23 c 4,158,159
 274 23 274 23 276 27.5 c 132,-1,160
 278 32 278 32 273 40 c 4,147,148
EndSplineSet

EndChar

StartChar: x
Encoding: 120 120 64
Width: 890
GlyphClass: 2
Flags: W
LayerCount: 2
Fore
SplineSet
273.666992188 -3 m 0,0,1
 258.666992188 -3 258.666992188 -3 247.166992188 7.5 c 128,-1,2
 235.666992188 18 235.666992188 18 235.666992188 29 c 0,3,4
 235.666992188 36 235.666992188 36 239.666992188 43 c 2,5,-1
 361.666992188 282 l 2,6,7
 377.666992188 312 377.666992188 312 377.666992188 321 c 0,8,9
 377.666992188 327 377.666992188 327 373.666992188 335.5 c 128,-1,10
 369.666992188 344 369.666992188 344 364.666992188 352 c 2,11,-1
 259.666992188 526 l 2,12,13
 254.666992188 535 254.666992188 535 250.166992188 547 c 128,-1,14
 245.666992188 559 245.666992188 559 245.666992188 574 c 0,15,16
 245.666992188 588 245.666992188 588 260.166992188 602 c 128,-1,17
 274.666992188 616 274.666992188 616 301.666992188 616 c 0,18,19
 307.666992188 616 307.666992188 616 313.166992188 614 c 128,-1,20
 318.666992188 612 318.666992188 612 324.666992188 606 c 128,-1,21
 330.666992188 600 330.666992188 600 337.666992188 589.5 c 128,-1,22
 344.666992188 579 344.666992188 579 354.666992188 562 c 2,23,-1
 425.666992188 439 l 2,24,25
 431.666992188 429 431.666992188 429 435.166992188 423 c 128,-1,26
 438.666992188 417 438.666992188 417 440.666992188 417 c 256,27,28
 442.666992188 417 442.666992188 417 444.666992188 422.5 c 128,-1,29
 446.666992188 428 446.666992188 428 454.666992188 439 c 2,30,-1
 556.666992188 602 l 2,31,32
 561.666992188 610 561.666992188 610 568.166992188 613 c 128,-1,33
 574.666992188 616 574.666992188 616 581.666992188 616 c 256,34,35
 588.666992188 616 588.666992188 616 600.666992188 613 c 128,-1,36
 612.666992188 610 612.666992188 610 622.666992188 603 c 128,-1,37
 632.666992188 596 632.666992188 596 637.166992188 586 c 128,-1,38
 641.666992188 576 641.666992188 576 632.666992188 561 c 2,39,-1
 512.666992188 370 l 2,40,41
 503.666992188 355 503.666992188 355 500.166992188 346 c 128,-1,42
 496.666992188 337 496.666992188 337 496.666992188 333 c 256,43,44
 496.666992188 329 496.666992188 329 503.166992188 318.5 c 128,-1,45
 509.666992188 308 509.666992188 308 523.666992188 282 c 2,46,-1
 653.666992188 43 l 2,47,48
 655.666992188 39 655.666992188 39 651.666992188 31.5 c 128,-1,49
 647.666992188 24 647.666992188 24 639.166992188 17 c 128,-1,50
 630.666992188 10 630.666992188 10 617.666992188 5 c 128,-1,51
 604.666992188 0 604.666992188 0 589.666992188 0 c 0,52,53
 584.666992188 0 584.666992188 0 577.166992188 2 c 128,-1,54
 569.666992188 4 569.666992188 4 565.666992188 11 c 2,55,-1
 458.666992188 201 l 2,56,57
 453.666992188 210 453.666992188 210 449.166992188 217.5 c 128,-1,58
 444.666992188 225 444.666992188 225 440.666992188 225 c 256,59,60
 436.666992188 225 436.666992188 225 432.666992188 219 c 128,-1,61
 428.666992188 213 428.666992188 213 420.666992188 198 c 2,62,-1
 331.666992188 34 l 2,63,64
 320.666992188 13 320.666992188 13 305.666992188 5 c 128,-1,65
 290.666992188 -3 290.666992188 -3 273.666992188 -3 c 0,0,1
568.666992188 568 m 0,66,67
 568.666992188 577 568.666992188 577 583.666992188 590 c 0,68,69
 597.666992188 604 597.666992188 604 589.666992188 604 c 0,70,71
 583.666992188 604 583.666992188 604 575.166992188 601 c 128,-1,72
 566.666992188 598 566.666992188 598 560.666992188 587 c 0,73,74
 552.666992188 573 552.666992188 573 554.166992188 567.5 c 128,-1,75
 555.666992188 562 555.666992188 562 560.666992188 562 c 0,76,77
 568.666992188 562 568.666992188 562 568.666992188 568 c 0,66,67
276.666992188 563 m 0,78,79
 276.666992188 575 276.666992188 575 282.166992188 579.5 c 128,-1,80
 287.666992188 584 287.666992188 584 286.666992188 588 c 0,81,82
 284.666992188 596 284.666992188 596 277.666992188 596 c 0,83,84
 273.666992188 596 273.666992188 596 269.666992188 590.5 c 128,-1,85
 265.666992188 585 265.666992188 585 263.666992188 577 c 128,-1,86
 261.666992188 569 261.666992188 569 262.166992188 560 c 128,-1,87
 262.666992188 551 262.666992188 551 266.666992188 544 c 0,88,89
 270.666992188 538 270.666992188 538 274.666992188 539 c 0,90,91
 279.666992188 541 279.666992188 541 278.166992188 549.5 c 128,-1,92
 276.666992188 558 276.666992188 558 276.666992188 563 c 0,78,79
596.666992188 13 m 0,93,94
 599.666992188 18 599.666992188 18 585.666992188 27 c 0,95,96
 582.666992188 29 582.666992188 29 578.666992188 34.5 c 128,-1,97
 574.666992188 40 574.666992188 40 571.666992188 46 c 128,-1,98
 568.666992188 52 568.666992188 52 565.666992188 57 c 128,-1,99
 562.666992188 62 562.666992188 62 560.666992188 62 c 0,100,101
 555.666992188 62 555.666992188 62 555.666992188 56 c 0,102,103
 555.666992188 52 555.666992188 52 558.166992188 45 c 128,-1,104
 560.666992188 38 560.666992188 38 565.166992188 30.5 c 128,-1,105
 569.666992188 23 569.666992188 23 575.166992188 17 c 128,-1,106
 580.666992188 11 580.666992188 11 586.666992188 10 c 0,107,108
 589.666992188 10 589.666992188 10 593.166992188 10 c 128,-1,109
 596.666992188 10 596.666992188 10 596.666992188 13 c 0,93,94
281.666992188 19 m 0,110,111
 278.666992188 22 278.666992188 22 271.166992188 29 c 128,-1,112
 263.666992188 36 263.666992188 36 265.666992188 41 c 0,113,114
 268.666992188 49 268.666992188 49 264.166992188 49 c 128,-1,115
 259.666992188 49 259.666992188 49 253.666992188 43 c 0,116,117
 246.666992188 35 246.666992188 35 252.666992188 24.5 c 128,-1,118
 258.666992188 14 258.666992188 14 268.666992188 12 c 0,119,120
 276.666992188 10 276.666992188 10 281.666992188 11 c 128,-1,121
 286.666992188 12 286.666992188 12 281.666992188 19 c 0,110,111
EndSplineSet
EndChar

StartChar: y
Encoding: 121 121 65
Width: 890
GlyphClass: 2
Flags: W
LayerCount: 2
Fore
SplineSet
492.5 -8 m 1,0,1
 435.5 -8 435.5 -8 389.5 14 c 128,-1,2
 343.5 36 343.5 36 316.5 78.5 c 128,-1,3
 289.5 121 289.5 121 289.5 180 c 0,4,5
 289.5 203 289.5 203 295.5 230 c 128,-1,6
 301.5 257 301.5 257 319 285.5 c 128,-1,7
 336.5 314 336.5 314 370.5 340 c 128,-1,8
 404.5 366 404.5 366 459.5 386 c 1,9,-1
 480.5 336 l 1,10,11
 437.5 321 437.5 321 391.5 297 c 128,-1,12
 345.5 273 345.5 273 303 244.5 c 128,-1,13
 260.5 216 260.5 216 226.5 186 c 128,-1,14
 192.5 156 192.5 156 172.5 128 c 128,-1,15
 152.5 100 152.5 100 152.5 78 c 1,16,-1
 138.5 144 l 1,17,18
 179.5 144 179.5 144 197 125 c 128,-1,19
 214.5 106 214.5 106 214.5 83 c 0,20,21
 214.5 58 214.5 58 197.5 43.5 c 128,-1,22
 180.5 29 180.5 29 157.5 29 c 0,23,24
 132.5 29 132.5 29 114 45.5 c 128,-1,25
 95.5 62 95.5 62 95.5 91 c 0,26,27
 95.5 119 95.5 119 119.5 157.5 c 128,-1,28
 143.5 196 143.5 196 190 239 c 128,-1,29
 236.5 282 236.5 282 305 323 c 128,-1,30
 373.5 364 373.5 364 463.5 397 c 1,31,-1
 491.5 333 l 1,32,33
 447.5 317 447.5 317 419.5 292 c 128,-1,34
 391.5 267 391.5 267 378.5 238 c 128,-1,35
 365.5 209 365.5 209 365.5 180 c 0,36,37
 365.5 143 365.5 143 384 117 c 128,-1,38
 402.5 91 402.5 91 433 78 c 128,-1,39
 463.5 65 463.5 65 499.5 65 c 0,40,41
 537.5 65 537.5 65 582 82 c 128,-1,42
 626.5 99 626.5 99 666 134.5 c 128,-1,43
 705.5 170 705.5 170 726.5 224 c 1,44,-1
 765.5 180 l 1,45,46
 741.5 116 741.5 116 696.5 74 c 128,-1,47
 651.5 32 651.5 32 597.5 12 c 128,-1,48
 543.5 -8 543.5 -8 492.5 -8 c 1,49,-1
 492.5 -8 l 1,0,1
268.5 234 m 1,50,51
 208.5 267 208.5 267 178 318.5 c 128,-1,52
 147.5 370 147.5 370 147.5 427 c 0,53,54
 147.5 486 147.5 486 171.5 530.5 c 128,-1,55
 195.5 575 195.5 575 237 605 c 128,-1,56
 278.5 635 278.5 635 330.5 650.5 c 128,-1,57
 382.5 666 382.5 666 438.5 666 c 0,58,59
 503.5 666 503.5 666 566 646.5 c 128,-1,60
 628.5 627 628.5 627 678.5 587.5 c 128,-1,61
 728.5 548 728.5 548 758 488 c 128,-1,62
 787.5 428 787.5 428 787.5 347 c 1,63,-1
 726.5 345 l 1,64,65
 726.5 408 726.5 408 702 455 c 128,-1,66
 677.5 502 677.5 502 637.5 532.5 c 128,-1,67
 597.5 563 597.5 563 548.5 578 c 128,-1,68
 499.5 593 499.5 593 450.5 593 c 0,69,70
 392.5 593 392.5 593 341.5 572 c 128,-1,71
 290.5 551 290.5 551 258.5 511.5 c 128,-1,72
 226.5 472 226.5 472 226.5 414 c 0,73,74
 226.5 372 226.5 372 249 334.5 c 128,-1,75
 271.5 297 271.5 297 311.5 273 c 1,76,-1
 268.5 234 l 1,77,-1
 268.5 234 l 1,50,51
721.5 106 m 1,78,-1
 716.5 144 l 1,79,-1
 716.5 471 l 1,80,-1
 719.5 511 l 1,81,-1
 716.5 658 l 1,82,-1
 794.5 658 l 1,83,-1
 794.5 0 l 1,84,-1
 716.5 0 l 1,85,-1
 721.5 106 l 1,78,-1
EndSplineSet

EndChar

StartChar: z
Encoding: 122 122 66
Width: 890
GlyphClass: 2
Flags: W
LayerCount: 2
Fore
SplineSet
361 -8 m 1,0,1
 308 -8 308 -8 267.5 10 c 128,-1,2
 227 28 227 28 204 65 c 128,-1,3
 181 102 181 102 181 159 c 0,4,5
 181 235 181 235 221 293 c 128,-1,6
 261 351 261 351 330 397 c 1,7,-1
 360 354 l 1,8,9
 325 325 325 325 301 293 c 128,-1,10
 277 261 277 261 265 228 c 128,-1,11
 253 195 253 195 253 161 c 0,12,13
 253 109 253 109 283 81 c 128,-1,14
 313 53 313 53 363 53 c 0,15,16
 380 53 380 53 397 56.5 c 128,-1,17
 414 60 414 60 430 69 c 1,18,-1
 408 25 l 1,19,20
 394 66 394 66 385 102.5 c 128,-1,21
 376 139 376 139 376 181 c 0,22,23
 376 232 376 232 390.5 271.5 c 128,-1,24
 405 311 405 311 436.5 333 c 128,-1,25
 468 355 468 355 519 355 c 0,26,27
 578 355 578 355 610.5 323.5 c 128,-1,28
 643 292 643 292 643 228 c 2,29,-1
 643 0 l 1,30,-1
 565 0 l 1,31,-1
 565 218 l 2,32,33
 565 257 565 257 550 275.5 c 128,-1,34
 535 294 535 294 509 294 c 0,35,36
 476 294 476 294 460 265 c 128,-1,37
 444 236 444 236 444 180 c 0,38,39
 444 151 444 151 448 121.5 c 128,-1,40
 452 92 452 92 459 64.5 c 128,-1,41
 466 37 466 37 474 12 c 1,42,43
 447 2 447 2 418.5 -3 c 128,-1,44
 390 -8 390 -8 361 -8 c 1,45,-1
 361 -8 l 1,0,1
225 197 m 1,46,47
 161 244 161 244 131 297.5 c 128,-1,48
 101 351 101 351 101 411 c 0,49,50
 101 469 101 469 127 516 c 128,-1,51
 153 563 153 563 199 596.5 c 128,-1,52
 245 630 245 630 305.5 648 c 128,-1,53
 366 666 366 666 436 666 c 0,54,55
 503 666 503 666 566 649 c 128,-1,56
 629 632 629 632 679.5 598 c 128,-1,57
 730 564 730 564 759.5 513.5 c 128,-1,58
 789 463 789 463 789 395 c 0,59,60
 789 353 789 353 776 316.5 c 128,-1,61
 763 280 763 280 740 250 c 1,62,-1
 669 281 l 1,63,64
 688 304 688 304 698.5 333 c 128,-1,65
 709 362 709 362 709 395 c 0,66,67
 709 445 709 445 686 482 c 128,-1,68
 663 519 663 519 624 543.5 c 128,-1,69
 585 568 585 568 536 580.5 c 128,-1,70
 487 593 487 593 436 593 c 0,71,72
 363 593 363 593 304.5 570 c 128,-1,73
 246 547 246 547 211.5 504.5 c 128,-1,74
 177 462 177 462 177 403 c 0,75,76
 177 362 177 362 196 324.5 c 128,-1,77
 215 287 215 287 252 254 c 1,78,-1
 225 197 l 1,79,-1
 225 197 l 1,46,47
EndSplineSet
EndChar

StartChar: at
Encoding: 64 64 67
Width: 890
Flags: W
LayerCount: 2
Fore
SplineSet
427 1 m 0,0,1
 371 1 371 1 324 20 c 128,-1,2
 277 39 277 39 243.5 73.5 c 128,-1,3
 210 108 210 108 191.5 157.5 c 128,-1,4
 173 207 173 207 173 267 c 0,5,6
 173 335 173 335 194.5 393 c 128,-1,7
 216 451 216 451 254.5 494.5 c 128,-1,8
 293 538 293 538 345 562.5 c 128,-1,9
 397 587 397 587 458 587 c 256,10,11
 519 587 519 587 567 566.5 c 128,-1,12
 615 546 615 546 648.5 510 c 128,-1,13
 682 474 682 474 699.5 426.5 c 128,-1,14
 717 379 717 379 717 325 c 0,15,16
 717 286 717 286 706.5 252.5 c 128,-1,17
 696 219 696 219 678 193.5 c 128,-1,18
 660 168 660 168 636 153.5 c 128,-1,19
 612 139 612 139 585 139 c 0,20,21
 564 139 564 139 551 147 c 128,-1,22
 538 155 538 155 530.5 165 c 128,-1,23
 523 175 523 175 518.5 183 c 128,-1,24
 514 191 514 191 510 191 c 256,25,26
 506 191 506 191 497 182.5 c 128,-1,27
 488 174 488 174 475 164.5 c 128,-1,28
 462 155 462 155 445 146.5 c 128,-1,29
 428 138 428 138 407 138 c 256,30,31
 386 138 386 138 368 147.5 c 128,-1,32
 350 157 350 157 337 174 c 128,-1,33
 324 191 324 191 316.5 213.5 c 128,-1,34
 309 236 309 236 309 263 c 0,35,36
 309 297 309 297 320.5 328.5 c 128,-1,37
 332 360 332 360 350.5 384.5 c 128,-1,38
 369 409 369 409 393.5 423.5 c 128,-1,39
 418 438 418 438 444 438 c 0,40,41
 457 438 457 438 465 434.5 c 128,-1,42
 473 431 473 431 478 427 c 128,-1,43
 483 423 483 423 486 419.5 c 128,-1,44
 489 416 489 416 492 416 c 256,45,46
 495 416 495 416 498 420.5 c 128,-1,47
 501 425 501 425 505 430 c 128,-1,48
 509 435 509 435 515 439.5 c 128,-1,49
 521 444 521 444 531 444 c 0,50,51
 552 444 552 444 560 425 c 128,-1,52
 568 406 568 406 569.5 380.5 c 128,-1,53
 571 355 571 355 569 329.5 c 128,-1,54
 567 304 567 304 567 292 c 0,55,56
 567 279 567 279 570 265.5 c 128,-1,57
 573 252 573 252 578 240.5 c 128,-1,58
 583 229 583 229 589 222 c 128,-1,59
 595 215 595 215 602 215 c 0,60,61
 614 215 614 215 624 239 c 128,-1,62
 634 263 634 263 634 303 c 0,63,64
 634 351 634 351 625 389 c 128,-1,65
 616 427 616 427 596.5 453.5 c 128,-1,66
 577 480 577 480 545 494.5 c 128,-1,67
 513 509 513 509 467 509 c 256,68,69
 421 509 421 509 382.5 491.5 c 128,-1,70
 344 474 344 474 316 443 c 128,-1,71
 288 412 288 412 272.5 370 c 128,-1,72
 257 328 257 328 257 279 c 0,73,74
 257 235 257 235 270.5 198 c 128,-1,75
 284 161 284 161 308 134 c 128,-1,76
 332 107 332 107 364 92 c 128,-1,77
 396 77 396 77 433 77 c 0,78,79
 459 77 459 77 485.5 83.5 c 128,-1,80
 512 90 512 90 536 98 c 128,-1,81
 560 106 560 106 581.5 112.5 c 128,-1,82
 603 119 603 119 619 119 c 0,83,84
 647 119 647 119 647 98 c 0,85,86
 647 81 647 81 627.5 63.5 c 128,-1,87
 608 46 608 46 576.5 32 c 128,-1,88
 545 18 545 18 505.5 9.5 c 128,-1,89
 466 1 466 1 427 1 c 0,0,1
345 316 m 0,90,91
 349 316 349 316 353.5 326.5 c 128,-1,92
 358 337 358 337 360 339 c 0,93,94
 368 353 368 353 378.5 365 c 128,-1,95
 389 377 389 377 400 388 c 0,96,97
 405 393 405 393 399 393 c 0,98,99
 392 393 392 393 381.5 384.5 c 128,-1,100
 371 376 371 376 362 365 c 128,-1,101
 353 354 353 354 346.5 342 c 128,-1,102
 340 330 340 330 340 323 c 0,103,104
 340 321 340 321 341.5 318.5 c 128,-1,105
 343 316 343 316 345 316 c 0,90,91
431 220 m 0,106,107
 441 220 441 220 451.5 229 c 128,-1,108
 462 238 462 238 471 252 c 128,-1,109
 480 266 480 266 485.5 284 c 128,-1,110
 491 302 491 302 491 320 c 0,111,112
 491 362 491 362 459 362 c 0,113,114
 446 362 446 362 433 355 c 128,-1,115
 420 348 420 348 409.5 336 c 128,-1,116
 399 324 399 324 393 309 c 128,-1,117
 387 294 387 294 387 278 c 0,118,119
 387 253 387 253 397.5 236.5 c 128,-1,120
 408 220 408 220 431 220 c 0,106,107
343 291 m 0,121,122
 343 298 343 298 338 300 c 0,123,124
 335 301 335 301 331.5 297.5 c 128,-1,125
 328 294 328 294 328 291 c 0,126,127
 328 287 328 287 330.5 283.5 c 128,-1,128
 333 280 333 280 336 280 c 256,129,130
 339 280 339 280 341 284 c 128,-1,131
 343 288 343 288 343 291 c 0,121,122
EndSplineSet
EndChar

StartChar: ampersand
Encoding: 38 38 68
Width: 890
Flags: W
LayerCount: 2
Fore
SplineSet
407.5 -6 m 0,0,1
 310.5 -6 310.5 -6 258.5 46.5 c 128,-1,2
 206.5 99 206.5 99 206.5 193 c 0,3,4
 206.5 254 206.5 254 225.5 291 c 128,-1,5
 244.5 328 244.5 328 267 349 c 128,-1,6
 289.5 370 289.5 370 308 379 c 128,-1,7
 326.5 388 326.5 388 326.5 393 c 0,8,9
 326.5 397 326.5 397 321.5 407 c 128,-1,10
 316.5 417 316.5 417 311 430.5 c 128,-1,11
 305.5 444 305.5 444 300.5 460.5 c 128,-1,12
 295.5 477 295.5 477 295.5 495 c 0,13,14
 295.5 552 295.5 552 334 587 c 128,-1,15
 372.5 622 372.5 622 435.5 622 c 0,16,17
 477.5 622 477.5 622 508.5 604.5 c 128,-1,18
 539.5 587 539.5 587 549.5 567 c 0,19,20
 552.5 562 552.5 562 551 552 c 128,-1,21
 549.5 542 549.5 542 545 532.5 c 128,-1,22
 540.5 523 540.5 523 532.5 515.5 c 128,-1,23
 524.5 508 524.5 508 512.5 508 c 256,24,25
 500.5 508 500.5 508 492.5 512.5 c 128,-1,26
 484.5 517 484.5 517 477.5 522.5 c 128,-1,27
 470.5 528 470.5 528 463 532.5 c 128,-1,28
 455.5 537 455.5 537 446.5 537 c 0,29,30
 427.5 537 427.5 537 415 523.5 c 128,-1,31
 402.5 510 402.5 510 402.5 481 c 0,32,33
 402.5 463 402.5 463 417 434 c 128,-1,34
 431.5 405 431.5 405 455 369 c 128,-1,35
 478.5 333 478.5 333 507.5 293 c 128,-1,36
 536.5 253 536.5 253 565.5 214 c 1,37,38
 577.5 238 577.5 238 586.5 265 c 0,39,40
 591.5 282 591.5 282 603.5 290.5 c 128,-1,41
 615.5 299 615.5 299 628.5 299 c 256,42,43
 641.5 299 641.5 299 651.5 289.5 c 128,-1,44
 661.5 280 661.5 280 661.5 260 c 0,45,46
 661.5 248 661.5 248 656.5 232.5 c 128,-1,47
 651.5 217 651.5 217 644 201 c 128,-1,48
 636.5 185 636.5 185 628.5 170 c 128,-1,49
 620.5 155 620.5 155 614.5 146 c 1,50,51
 644.5 104 644.5 104 664 71.5 c 128,-1,52
 683.5 39 683.5 39 683.5 23 c 0,53,54
 683.5 13 683.5 13 678 6 c 128,-1,55
 672.5 -1 672.5 -1 664.5 -5 c 128,-1,56
 656.5 -9 656.5 -9 646.5 -10.5 c 128,-1,57
 636.5 -12 636.5 -12 628.5 -12 c 0,58,59
 619.5 -12 619.5 -12 599.5 10.5 c 128,-1,60
 579.5 33 579.5 33 553.5 67 c 1,61,62
 521.5 35 521.5 35 485 14.5 c 128,-1,63
 448.5 -6 448.5 -6 407.5 -6 c 0,0,1
329.5 499 m 0,64,65
 336.5 499 336.5 499 340 509.5 c 128,-1,66
 343.5 520 343.5 520 345.5 525 c 0,67,68
 350.5 537 350.5 537 356.5 548.5 c 128,-1,69
 362.5 560 362.5 560 371.5 570 c 0,70,71
 372.5 572 372.5 572 379.5 579 c 128,-1,72
 386.5 586 386.5 586 386.5 588 c 256,73,74
 386.5 590 386.5 590 385.5 590 c 0,75,76
 375.5 590 375.5 590 364.5 580 c 128,-1,77
 353.5 570 353.5 570 345 556 c 128,-1,78
 336.5 542 336.5 542 331 528.5 c 128,-1,79
 325.5 515 325.5 515 325.5 507 c 0,80,81
 325.5 505 325.5 505 326.5 502 c 128,-1,82
 327.5 499 327.5 499 329.5 499 c 0,64,65
339.5 472 m 256,83,84
 339.5 474 339.5 474 339 477 c 128,-1,85
 338.5 480 338.5 480 333.5 480 c 0,86,87
 329.5 480 329.5 480 327.5 477 c 128,-1,88
 325.5 474 325.5 474 325.5 472 c 0,89,90
 325.5 464 325.5 464 332.5 464 c 0,91,92
 336.5 464 336.5 464 338 467 c 128,-1,93
 339.5 470 339.5 470 339.5 472 c 256,83,84
504.5 134 m 1,94,95
 481.5 166 481.5 166 458.5 198 c 128,-1,96
 435.5 230 435.5 230 417 255 c 128,-1,97
 398.5 280 398.5 280 385 295.5 c 128,-1,98
 371.5 311 371.5 311 366.5 311 c 0,99,100
 353.5 311 353.5 311 341 301 c 128,-1,101
 328.5 291 328.5 291 319.5 275.5 c 128,-1,102
 310.5 260 310.5 260 305 241 c 128,-1,103
 299.5 222 299.5 222 299.5 204 c 0,104,105
 299.5 183 299.5 183 307.5 162.5 c 128,-1,106
 315.5 142 315.5 142 330 126 c 128,-1,107
 344.5 110 344.5 110 365.5 100.5 c 128,-1,108
 386.5 91 386.5 91 411.5 91 c 0,109,110
 456.5 91 456.5 91 504.5 134 c 1,94,95
250.5 126 m 0,111,112
 255.5 130 255.5 130 253 140.5 c 128,-1,113
 250.5 151 250.5 151 248.5 156 c 0,114,115
 244.5 169 244.5 169 242.5 183.5 c 128,-1,116
 240.5 198 240.5 198 246.5 218 c 0,117,118
 251.5 232 251.5 232 248.5 236 c 128,-1,119
 245.5 240 245.5 240 243.5 238 c 0,120,121
 234.5 232 234.5 232 231 217.5 c 128,-1,122
 227.5 203 227.5 203 227.5 186.5 c 128,-1,123
 227.5 170 227.5 170 231.5 154.5 c 128,-1,124
 235.5 139 235.5 139 242.5 130 c 0,125,126
 243.5 128 243.5 128 246 126 c 128,-1,127
 248.5 124 248.5 124 250.5 126 c 0,111,112
EndSplineSet
EndChar

StartChar: dollar
Encoding: 36 36 69
Width: 890
Flags: W
LayerCount: 2
Fore
SplineSet
436.5 -41 m 256,0,1
 425.5 -41 425.5 -41 419.5 -32.5 c 128,-1,2
 413.5 -24 413.5 -24 411 -12 c 128,-1,3
 408.5 0 408.5 0 408.5 13.5 c 128,-1,4
 408.5 27 408.5 27 408.5 37 c 2,5,-1
 408.5 95 l 1,6,7
 364.5 95 364.5 95 334.5 114.5 c 128,-1,8
 304.5 134 304.5 134 304.5 163 c 0,9,10
 304.5 181 304.5 181 315 187.5 c 128,-1,11
 325.5 194 325.5 194 336.5 194 c 0,12,13
 358.5 194 358.5 194 380.5 186 c 128,-1,14
 402.5 178 402.5 178 432.5 178 c 0,15,16
 441.5 178 441.5 178 453 181 c 128,-1,17
 464.5 184 464.5 184 474.5 190 c 128,-1,18
 484.5 196 484.5 196 491.5 204.5 c 128,-1,19
 498.5 213 498.5 213 498.5 225 c 0,20,21
 498.5 248 498.5 248 479.5 260 c 128,-1,22
 460.5 272 460.5 272 430.5 272 c 0,23,24
 370.5 272 370.5 272 336 303.5 c 128,-1,25
 301.5 335 301.5 335 301.5 401 c 0,26,27
 301.5 460 301.5 460 331 497 c 128,-1,28
 360.5 534 360.5 534 408.5 542 c 1,29,-1
 408.5 587 l 2,30,31
 408.5 594 408.5 594 408 608.5 c 128,-1,32
 407.5 623 407.5 623 409.5 637.5 c 128,-1,33
 411.5 652 411.5 652 418 663 c 128,-1,34
 424.5 674 424.5 674 437.5 674 c 256,35,36
 450.5 674 450.5 674 456.5 647 c 128,-1,37
 462.5 620 462.5 620 462.5 572 c 0,38,39
 462.5 552 462.5 552 464.5 547 c 128,-1,40
 466.5 542 466.5 542 478.5 542 c 256,41,42
 490.5 542 490.5 542 503 538 c 128,-1,43
 515.5 534 515.5 534 526 526.5 c 128,-1,44
 536.5 519 536.5 519 543 508.5 c 128,-1,45
 549.5 498 549.5 498 549.5 485 c 256,46,47
 549.5 472 549.5 472 543.5 467.5 c 128,-1,48
 537.5 463 537.5 463 527 462 c 128,-1,49
 516.5 461 516.5 461 501.5 462.5 c 128,-1,50
 486.5 464 486.5 464 468.5 464 c 0,51,52
 430.5 464 430.5 464 416.5 447.5 c 128,-1,53
 402.5 431 402.5 431 402.5 404 c 0,54,55
 402.5 391 402.5 391 408.5 382.5 c 128,-1,56
 414.5 374 414.5 374 423.5 369.5 c 128,-1,57
 432.5 365 432.5 365 442 362.5 c 128,-1,58
 451.5 360 451.5 360 458.5 359 c 0,59,60
 487.5 355 487.5 355 511.5 346.5 c 128,-1,61
 535.5 338 535.5 338 552.5 323 c 128,-1,62
 569.5 308 569.5 308 579 285 c 128,-1,63
 588.5 262 588.5 262 588.5 230 c 0,64,65
 588.5 172 588.5 172 553.5 137 c 128,-1,66
 518.5 102 518.5 102 462.5 97 c 1,67,-1
 462.5 37 l 2,68,69
 462.5 28 462.5 28 462.5 14.5 c 128,-1,70
 462.5 1 462.5 1 460.5 -11.5 c 128,-1,71
 458.5 -24 458.5 -24 453 -32.5 c 128,-1,72
 447.5 -41 447.5 -41 436.5 -41 c 256,0,1
364.5 476 m 0,73,74
 370.5 485 370.5 485 379.5 490 c 128,-1,75
 388.5 495 388.5 495 388.5 503 c 0,76,77
 388.5 509 388.5 509 381.5 509 c 0,78,79
 373.5 509 373.5 509 365.5 503 c 128,-1,80
 357.5 497 357.5 497 351.5 488.5 c 128,-1,81
 345.5 480 345.5 480 341.5 470.5 c 128,-1,82
 337.5 461 337.5 461 337.5 453 c 0,83,84
 337.5 446 337.5 446 341.5 446 c 0,85,86
 348.5 446 348.5 446 354 457 c 128,-1,87
 359.5 468 359.5 468 364.5 476 c 0,73,74
346.5 425 m 0,88,89
 346.5 434 346.5 434 337.5 434 c 0,90,91
 332.5 434 332.5 434 331 429.5 c 128,-1,92
 329.5 425 329.5 425 331.5 419 c 256,93,94
 333.5 413 333.5 413 338.5 413 c 256,95,96
 343.5 413 343.5 413 345 416.5 c 128,-1,97
 346.5 420 346.5 420 346.5 425 c 0,88,89
EndSplineSet
EndChar

StartChar: grave
Encoding: 96 96 70
Width: 890
Flags: W
LayerCount: 2
Fore
SplineSet
449.5 766 m 1,0,1
 460.5 744 460.5 744 477 716.5 c 128,-1,2
 493.5 689 493.5 689 512 663 c 128,-1,3
 530.5 637 530.5 637 545.5 618 c 1,4,-1
 545.5 606 l 1,5,-1
 486.5 606 l 1,6,7
 469.5 620 469.5 620 448.5 639.5 c 128,-1,8
 427.5 659 427.5 659 407 680.5 c 128,-1,9
 386.5 702 386.5 702 370 722 c 128,-1,10
 353.5 742 353.5 742 344.5 756 c 1,11,-1
 344.5 766 l 1,12,-1
 449.5 766 l 1,0,1
EndSplineSet
EndChar

StartChar: B
Encoding: 66 66 71
Width: 890
Flags: W
LayerCount: 2
Fore
SplineSet
510 546 m 0,0,1
 470 546 470 546 441.5 574 c 128,-1,2
 413 602 413 602 413 646 c 0,3,4
 413 670 413 670 421.5 691.5 c 128,-1,5
 430 713 430 713 445 728.5 c 128,-1,6
 460 744 460 744 481 753.5 c 128,-1,7
 502 763 502 763 527 763 c 0,8,9
 547 763 547 763 564 754.5 c 128,-1,10
 581 746 581 746 593 731 c 128,-1,11
 605 716 605 716 611.5 697 c 128,-1,12
 618 678 618 678 618 657 c 0,13,14
 618 630 618 630 609.5 609.5 c 128,-1,15
 601 589 601 589 586 575 c 128,-1,16
 571 561 571 561 551.5 553.5 c 128,-1,17
 532 546 532 546 510 546 c 0,0,1
473 719 m 0,18,19
 480 726 480 726 481.5 731 c 128,-1,20
 483 736 483 736 481 736 c 0,21,22
 473 736 473 736 464 728.5 c 128,-1,23
 455 721 455 721 447.5 710.5 c 128,-1,24
 440 700 440 700 435 688 c 128,-1,25
 430 676 430 676 430 666 c 0,26,27
 430 664 430 664 431.5 658 c 128,-1,28
 433 652 433 652 436 652 c 0,29,30
 440 652 440 652 446 674 c 0,31,32
 449 688 449 688 457 699.5 c 128,-1,33
 465 711 465 711 473 719 c 0,18,19
514 603 m 0,34,35
 526 603 526 603 542.5 617 c 128,-1,36
 559 631 559 631 559 657 c 0,37,38
 559 677 559 677 548.5 690.5 c 128,-1,39
 538 704 538 704 521 704 c 256,40,41
 504 704 504 704 490 690.5 c 128,-1,42
 476 677 476 677 476 653 c 256,43,44
 476 629 476 629 487 616 c 128,-1,45
 498 603 498 603 514 603 c 0,34,35
317 655 m 0,46,47
 297 655 297 655 280 640 c 128,-1,48
 263 625 263 625 263 586 c 2,49,-1
 263 91 l 2,50,51
 263 70 263 70 271.5 53 c 128,-1,52
 280 36 280 36 294.5 24.5 c 128,-1,53
 309 13 309 13 327.5 7 c 128,-1,54
 346 1 346 1 366 1 c 2,55,-1
 425 1 l 2,56,57
 456 1 456 1 491.5 13 c 128,-1,58
 527 25 527 25 557 51 c 128,-1,59
 587 77 587 77 607 119 c 128,-1,60
 627 161 627 161 627 220 c 256,61,62
 627 279 627 279 607.5 325.5 c 128,-1,63
 588 372 588 372 559 403.5 c 128,-1,64
 530 435 530 435 496 451.5 c 128,-1,65
 462 468 462 468 432 468 c 2,66,-1
 403 468 l 2,67,68
 394 468 394 468 385.5 472 c 128,-1,69
 377 476 377 476 377 485 c 2,70,-1
 377 590 l 2,71,72
 377 608 377 608 371.5 620 c 128,-1,73
 366 632 366 632 357 640 c 128,-1,74
 348 648 348 648 337.5 651.5 c 128,-1,75
 327 655 327 655 317 655 c 0,46,47
421 379 m 2,76,77
 438 379 438 379 454 371 c 128,-1,78
 470 363 470 363 483.5 345.5 c 128,-1,79
 497 328 497 328 505 300 c 128,-1,80
 513 272 513 272 513 232 c 0,81,82
 513 189 513 189 505 160.5 c 128,-1,83
 497 132 497 132 484 115.5 c 128,-1,84
 471 99 471 99 455 92 c 128,-1,85
 439 85 439 85 424 85 c 2,86,-1
 402 85 l 2,87,88
 377 85 377 85 377 119 c 2,89,-1
 377 356 l 2,90,91
 377 379 377 379 408 379 c 2,92,-1
 421 379 l 2,76,77
303 620 m 256,93,94
 298 615 298 615 294.5 602 c 128,-1,95
 291 589 291 589 291 550.5 c 128,-1,96
 291 512 291 512 284 512 c 0,97,98
 279 512 279 512 277.5 520.5 c 128,-1,99
 276 529 276 529 276 541 c 0,100,101
 276 603 276 603 283 619 c 128,-1,102
 290 635 290 635 300 635 c 0,103,104
 302 635 302 635 305 633 c 128,-1,105
 308 631 308 631 308 629 c 0,106,107
 308 625 308 625 303 620 c 256,93,94
EndSplineSet
EndChar

StartChar: C
Encoding: 67 67 72
Width: 890
Flags: W
LayerCount: 2
Fore
SplineSet
491 584 m 0
 451 584 451 584 422.5 612 c 0
 394 640 394 640 394 684 c 0
 394 708 394 708 402.5 729.5 c 0
 411 751 411 751 426 766.5 c 0
 441 782 441 782 462 791.5 c 0
 483 801 483 801 508 801 c 0
 528 801 528 801 545 792.5 c 0
 562 784 562 784 574 769 c 0
 586 754 586 754 592.5 735 c 0
 599 716 599 716 599 695 c 0
 599 668 599 668 590.5 647.5 c 0
 582 627 582 627 567 613 c 0
 552 599 552 599 532.5 591.5 c 0
 513 584 513 584 491 584 c 0
454 757 m 0
 461 764 461 764 462.5 769 c 0
 464 774 464 774 462 774 c 0
 454 774 454 774 445 766.5 c 0
 436 759 436 759 428.5 748.5 c 0
 421 738 421 738 416 726 c 0
 411 714 411 714 411 704 c 0
 411 702 411 702 412.5 696 c 0
 414 690 414 690 417 690 c 0
 421 690 421 690 427 712 c 0
 430 726 430 726 438 737.5 c 0
 446 749 446 749 454 757 c 0
495 641 m 0
 507 641 507 641 523.5 655 c 0
 540 669 540 669 540 695 c 0
 540 715 540 715 529.5 728.5 c 0
 519 742 519 742 502 742 c 256
 485 742 485 742 471 728.5 c 0
 457 715 457 715 457 691 c 256
 457 667 457 667 468 654 c 0
 479 641 479 641 495 641 c 0
EndSplineSet
Refer: 43 99 N 1 0 0 1 0 -15 2
EndChar

StartChar: D
Encoding: 68 68 73
Width: 890
Flags: W
LayerCount: 2
Fore
SplineSet
345.5 0 m 2,0,1
 327.5 0 327.5 0 311 4 c 128,-1,2
 294.5 8 294.5 8 282 18 c 128,-1,3
 269.5 28 269.5 28 262 45 c 128,-1,4
 254.5 62 254.5 62 254.5 88 c 2,5,-1
 254.5 516 l 2,6,7
 254.5 543 254.5 543 264 562.5 c 128,-1,8
 273.5 582 273.5 582 289 594.5 c 128,-1,9
 304.5 607 304.5 607 325.5 612.5 c 128,-1,10
 346.5 618 346.5 618 369.5 618 c 2,11,-1
 414.5 618 l 2,12,13
 457.5 618 457.5 618 497.5 598.5 c 128,-1,14
 537.5 579 537.5 579 568 541.5 c 128,-1,15
 598.5 504 598.5 504 617 449.5 c 128,-1,16
 635.5 395 635.5 395 635.5 326 c 0,17,18
 635.5 253 635.5 253 616.5 192.5 c 128,-1,19
 597.5 132 597.5 132 565.5 89.5 c 128,-1,20
 533.5 47 533.5 47 490.5 23.5 c 128,-1,21
 447.5 0 447.5 0 400.5 0 c 2,22,-1
 345.5 0 l 2,0,1
395.5 96 m 2,23,24
 421.5 96 421.5 96 444.5 112.5 c 128,-1,25
 467.5 129 467.5 129 484 159.5 c 128,-1,26
 500.5 190 500.5 190 510 233 c 128,-1,27
 519.5 276 519.5 276 519.5 329 c 0,28,29
 519.5 424 519.5 424 489.5 472 c 128,-1,30
 459.5 520 459.5 520 411.5 520 c 2,31,-1
 396.5 520 l 2,32,33
 379.5 520 379.5 520 374 512.5 c 128,-1,34
 368.5 505 368.5 505 368.5 480 c 2,35,-1
 368.5 132 l 2,36,37
 368.5 112 368.5 112 372 104 c 128,-1,38
 375.5 96 375.5 96 382.5 96 c 2,39,-1
 395.5 96 l 2,23,24
285.5 83 m 0,40,41
 289.5 83 289.5 83 291 93.5 c 128,-1,42
 292.5 104 292.5 104 292.5 117.5 c 128,-1,43
 292.5 131 292.5 131 292 143.5 c 128,-1,44
 291.5 156 291.5 156 291.5 161 c 0,45,46
 291.5 216 291.5 216 285.5 216 c 0,47,48
 282.5 216 282.5 216 279.5 203.5 c 128,-1,49
 276.5 191 276.5 191 276.5 161 c 0,50,51
 276.5 116 276.5 116 277 99.5 c 128,-1,52
 277.5 83 277.5 83 285.5 83 c 0,40,41
284.5 69 m 0,53,54
 277.5 69 277.5 69 277.5 58 c 0,55,56
 277.5 40 277.5 40 285.5 40 c 0,57,58
 288.5 40 288.5 40 290.5 46 c 128,-1,59
 292.5 52 292.5 52 292.5 58 c 0,60,61
 292.5 69 292.5 69 284.5 69 c 0,53,54
EndSplineSet
EndChar

StartChar: E
Encoding: 69 69 74
Width: 890
Flags: W
AnchorPoint: "Anchor-7" 445 268 basechar 0
AnchorPoint: "Anchor-5" 441 0 basechar 0
AnchorPoint: "Anchor-4" 467 536 basechar 0
LayerCount: 2
Fore
SplineSet
330 333.5 m 0,0,1
 318 349.5 318 349.5 309 365 c 128,-1,2
 300 380.5 300 380.5 298 395.5 c 0,3,4
 295 409.5 295 409.5 289 408.5 c 0,5,6
 281 408.5 281 408.5 284 390.5 c 0,7,8
 285 381.5 285 381.5 289.5 368.5 c 128,-1,9
 294 355.5 294 355.5 300 344.5 c 128,-1,10
 306 333.5 306 333.5 314 326 c 128,-1,11
 322 318.5 322 318.5 331 319.5 c 0,12,13
 339 321.5 339 321.5 330 333.5 c 0,0,1
316 60 m 0,14,15
 304 76 304 76 295 91.5 c 128,-1,16
 286 107 286 107 284 122 c 0,17,18
 281 136 281 136 275 135 c 0,19,20
 267 135 267 135 270 117 c 0,21,22
 271 108 271 108 275.5 95 c 128,-1,23
 280 82 280 82 286 71 c 128,-1,24
 292 60 292 60 300 52.5 c 128,-1,25
 308 45 308 45 317 46 c 0,26,27
 325 48 325 48 316 60 c 0,14,15
554 315 m 1,28,-1
 554 243 l 1,29,-1
 481 243 l 2,30,31
 430 243 430 243 396.5 232.5 c 128,-1,32
 363 222 363 222 346.5 202 c 128,-1,33
 330 182 330 182 330 151 c 0,34,35
 330 118 330 118 349 98.5 c 128,-1,36
 368 79 368 79 400 70.5 c 128,-1,37
 432 62 432 62 472 62 c 0,38,39
 528 62 528 62 570.5 75 c 128,-1,40
 613 88 613 88 646 104 c 1,41,-1
 646 27 l 1,42,43
 615 11 615 11 572 0.5 c 128,-1,44
 529 -10 529 -10 467 -10 c 0,45,46
 352 -10 352 -10 297 34.5 c 128,-1,47
 242 79 242 79 242 146 c 0,48,49
 242 186 242 186 258.5 211.5 c 128,-1,50
 275 237 275 237 302 252.5 c 128,-1,51
 329 268 329 268 361 277 c 1,52,-1
 361 282 l 1,53,54
 316 296 316 296 288.5 325.5 c 128,-1,55
 261 355 261 355 261 404 c 0,56,57
 261 449 261 449 287.5 481 c 128,-1,58
 314 513 314 513 360.5 529.5 c 128,-1,59
 407 546 407 546 467 546 c 0,60,61
 525 546 525 546 566.5 536 c 128,-1,62
 608 526 608 526 648 508 c 1,63,-1
 615 438 l 1,64,65
 582 453 582 453 547.5 463 c 128,-1,66
 513 473 513 473 466 473 c 0,67,68
 406 473 406 473 375.5 454 c 128,-1,69
 345 435 345 435 345 397 c 0,70,71
 345 353 345 353 386.5 334 c 128,-1,72
 428 315 428 315 498 315 c 2,73,-1
 554 315 l 1,28,-1
EndSplineSet
EndChar

StartChar: F
Encoding: 70 70 75
Width: 890
Flags: W
LayerCount: 2
Fore
SplineSet
356.5 0 m 0,0,1
 329.5 0 329.5 0 312 9.5 c 128,-1,2
 294.5 19 294.5 19 294.5 49 c 2,3,-1
 294.5 543 l 2,4,5
 294.5 582 294.5 582 323 599.5 c 128,-1,6
 351.5 617 351.5 617 396.5 617 c 2,7,-1
 566.5 616 l 2,8,9
 577.5 616 577.5 616 586.5 604.5 c 128,-1,10
 595.5 593 595.5 593 595.5 579 c 0,11,12
 595.5 572 595.5 572 594 561.5 c 128,-1,13
 592.5 551 592.5 551 589.5 541.5 c 128,-1,14
 586.5 532 586.5 532 582 525.5 c 128,-1,15
 577.5 519 577.5 519 571.5 519 c 2,16,-1
 434.5 520 l 2,17,18
 408.5 520 408.5 520 408.5 494 c 2,19,-1
 408.5 345 l 2,20,21
 408.5 335 408.5 335 415 330.5 c 128,-1,22
 421.5 326 421.5 326 431.5 326 c 2,23,-1
 537.5 329 l 2,24,25
 545.5 329 545.5 329 551.5 324 c 128,-1,26
 557.5 319 557.5 319 562.5 310.5 c 128,-1,27
 567.5 302 567.5 302 570 293 c 128,-1,28
 572.5 284 572.5 284 572.5 276 c 0,29,30
 572.5 237 572.5 237 534.5 236 c 2,31,-1
 428.5 233 l 2,32,33
 420.5 233 420.5 233 414.5 227 c 128,-1,34
 408.5 221 408.5 221 408.5 213 c 2,35,-1
 408.5 48 l 2,36,37
 408.5 32 408.5 32 404 22.5 c 128,-1,38
 399.5 13 399.5 13 392 8 c 128,-1,39
 384.5 3 384.5 3 375 1.5 c 128,-1,40
 365.5 0 365.5 0 356.5 0 c 0,0,1
344.5 26 m 0,41,42
 343.5 31 343.5 31 335 42 c 128,-1,43
 326.5 53 326.5 53 324.5 78 c 0,44,45
 322.5 91 322.5 91 319 94 c 128,-1,46
 315.5 97 315.5 97 313.5 97 c 256,47,48
 311.5 97 311.5 97 310 91 c 128,-1,49
 308.5 85 308.5 85 310.5 75 c 0,50,51
 310.5 70 310.5 70 312.5 60.5 c 128,-1,52
 314.5 51 314.5 51 318 41.5 c 128,-1,53
 321.5 32 321.5 32 326.5 25 c 128,-1,54
 331.5 18 331.5 18 338.5 19 c 0,55,56
 344.5 19 344.5 19 344.5 26 c 0,41,42
EndSplineSet
EndChar

StartChar: G
Encoding: 71 71 76
Width: 890
Flags: W
LayerCount: 2
Fore
SplineSet
475 621 m 0,0,1
 435 621 435 621 406.5 649 c 128,-1,2
 378 677 378 677 378 721 c 0,3,4
 378 745 378 745 386.5 766.5 c 128,-1,5
 395 788 395 788 410 803.5 c 128,-1,6
 425 819 425 819 446 828.5 c 128,-1,7
 467 838 467 838 492 838 c 0,8,9
 512 838 512 838 529 829.5 c 128,-1,10
 546 821 546 821 558 806 c 128,-1,11
 570 791 570 791 576.5 772 c 128,-1,12
 583 753 583 753 583 732 c 0,13,14
 583 705 583 705 574.5 684.5 c 128,-1,15
 566 664 566 664 551 650 c 128,-1,16
 536 636 536 636 516.5 628.5 c 128,-1,17
 497 621 497 621 475 621 c 0,0,1
438 794 m 0,18,19
 445 801 445 801 446.5 806 c 128,-1,20
 448 811 448 811 446 811 c 0,21,22
 438 811 438 811 429 803.5 c 128,-1,23
 420 796 420 796 412.5 785.5 c 128,-1,24
 405 775 405 775 400 763 c 128,-1,25
 395 751 395 751 395 741 c 0,26,27
 395 739 395 739 396.5 733 c 128,-1,28
 398 727 398 727 401 727 c 0,29,30
 405 727 405 727 411 749 c 0,31,32
 414 763 414 763 422 774.5 c 128,-1,33
 430 786 430 786 438 794 c 0,18,19
479 678 m 0,34,35
 491 678 491 678 507.5 692 c 128,-1,36
 524 706 524 706 524 732 c 0,37,38
 524 752 524 752 513.5 765.5 c 128,-1,39
 503 779 503 779 486 779 c 256,40,41
 469 779 469 779 455 765.5 c 128,-1,42
 441 752 441 752 441 728 c 256,43,44
 441 704 441 704 452 691 c 128,-1,45
 463 678 463 678 479 678 c 0,34,35
444 -37 m 0,46,47
 381 -37 381 -37 340.5 -4 c 128,-1,48
 300 29 300 29 277 79 c 128,-1,49
 254 129 254 129 245.5 187 c 128,-1,50
 237 245 237 245 237 296 c 0,51,52
 237 352 237 352 250.5 405.5 c 128,-1,53
 264 459 264 459 292.5 500.5 c 128,-1,54
 321 542 321 542 366.5 567.5 c 128,-1,55
 412 593 412 593 476 593 c 0,56,57
 503 593 503 593 532.5 587 c 128,-1,58
 562 581 562 581 586.5 564.5 c 128,-1,59
 611 548 611 548 627.5 520 c 128,-1,60
 644 492 644 492 644 448 c 0,61,62
 644 432 644 432 637.5 422.5 c 128,-1,63
 631 413 631 413 621.5 407.5 c 128,-1,64
 612 402 612 402 602 400.5 c 128,-1,65
 592 399 592 399 586 399 c 0,66,67
 572 399 572 399 559.5 409 c 128,-1,68
 547 419 547 419 547 448 c 0,69,70
 547 471 547 471 539 483 c 128,-1,71
 531 495 531 495 520 500.5 c 128,-1,72
 509 506 509 506 498.5 507 c 128,-1,73
 488 508 488 508 482 508 c 0,74,75
 456 508 456 508 433 492.5 c 128,-1,76
 410 477 410 477 392.5 448 c 128,-1,77
 375 419 375 419 365 377 c 128,-1,78
 355 335 355 335 355 282 c 0,79,80
 355 253 355 253 358.5 213 c 128,-1,81
 362 173 362 173 374 137 c 128,-1,82
 386 101 386 101 408 75.5 c 128,-1,83
 430 50 430 50 466 50 c 0,84,85
 489 50 489 50 506 65 c 128,-1,86
 523 80 523 80 534.5 102 c 128,-1,87
 546 124 546 124 552 148.5 c 128,-1,88
 558 173 558 173 557 192 c 0,89,90
 556 208 556 208 537.5 209.5 c 128,-1,91
 519 211 519 211 496 211 c 2,92,-1
 434 211 l 2,93,94
 428 211 428 211 423 217 c 128,-1,95
 418 223 418 223 415 231.5 c 128,-1,96
 412 240 412 240 410 249 c 128,-1,97
 408 258 408 258 408 264 c 0,98,99
 408 280 408 280 418.5 292.5 c 128,-1,100
 429 305 429 305 452 305 c 2,101,-1
 577 304 l 2,102,103
 590 304 590 304 603.5 298.5 c 128,-1,104
 617 293 617 293 627.5 282.5 c 128,-1,105
 638 272 638 272 645 255.5 c 128,-1,106
 652 239 652 239 652 216 c 0,107,108
 652 181 652 181 652.5 151 c 128,-1,109
 653 121 653 121 653 77 c 0,110,111
 653 43 653 43 650.5 22 c 128,-1,112
 648 1 648 1 642 -11 c 128,-1,113
 636 -23 636 -23 627.5 -27.5 c 128,-1,114
 619 -32 619 -32 607 -32 c 0,115,116
 590 -32 590 -32 582 -19.5 c 128,-1,117
 574 -7 574 -7 570.5 8 c 128,-1,118
 567 23 567 23 566 35.5 c 128,-1,119
 565 48 565 48 562 48 c 256,120,121
 559 48 559 48 553 34.5 c 128,-1,122
 547 21 547 21 534 5.5 c 128,-1,123
 521 -10 521 -10 500 -23.5 c 128,-1,124
 479 -37 479 -37 444 -37 c 0,46,47
349 44 m 0,125,126
 349 49 349 49 333 72 c 0,127,128
 326 83 326 83 319 97.5 c 128,-1,129
 312 112 312 112 307 126 c 128,-1,130
 302 140 302 140 299 152 c 128,-1,131
 296 164 296 164 297 168 c 0,132,133
 298 173 298 173 295 175.5 c 128,-1,134
 292 178 292 178 291 178 c 0,135,136
 283 178 283 178 281 167 c 256,137,138
 279 156 279 156 284.5 135 c 128,-1,139
 290 114 290 114 299.5 93 c 128,-1,140
 309 72 309 72 320.5 56 c 128,-1,141
 332 40 332 40 341 39 c 0,142,143
 348 37 348 37 349 44 c 0,125,126
612 -7 m 0,144,145
 612 1 612 1 604 6.5 c 128,-1,146
 596 12 596 12 595 24 c 0,147,148
 595 27 595 27 594.5 35 c 128,-1,149
 594 43 594 43 589 43 c 256,150,151
 584 43 584 43 583 36.5 c 128,-1,152
 582 30 582 30 582 25 c 256,153,154
 582 20 582 20 583.5 12.5 c 128,-1,155
 585 5 585 5 588 -1.5 c 128,-1,156
 591 -8 591 -8 595 -13 c 128,-1,157
 599 -18 599 -18 604 -18 c 256,158,159
 609 -18 609 -18 610.5 -14 c 128,-1,160
 612 -10 612 -10 612 -7 c 0,144,145
369 27 m 0,161,162
 370 30 370 30 367.5 32.5 c 128,-1,163
 365 35 365 35 363 35 c 0,164,165
 359 36 359 36 357.5 33 c 128,-1,166
 356 30 356 30 355 28 c 0,167,168
 354 23 354 23 356.5 21.5 c 128,-1,169
 359 20 359 20 361 20 c 0,170,171
 367 20 367 20 369 27 c 0,161,162
EndSplineSet
EndChar

StartChar: H
Encoding: 72 72 77
Width: 890
Flags: W
LayerCount: 2
Fore
SplineSet
564 0 m 0,0,1
 547 0 547 0 537 9.5 c 128,-1,2
 527 19 527 19 522 32.5 c 128,-1,3
 517 46 517 46 515.5 62.5 c 128,-1,4
 514 79 514 79 514 92 c 2,5,-1
 514 237 l 2,6,7
 514 250 514 250 511.5 256.5 c 128,-1,8
 509 263 509 263 501 263 c 2,9,-1
 394 263 l 2,10,11
 384 263 384 263 380 260 c 128,-1,12
 376 257 376 257 376 247 c 2,13,-1
 376 105 l 2,14,15
 376 91 376 91 374 72.5 c 128,-1,16
 372 54 372 54 366 38 c 128,-1,17
 360 22 360 22 350 11 c 128,-1,18
 340 0 340 0 324 0 c 0,19,20
 306 0 306 0 294 8.5 c 128,-1,21
 282 17 282 17 275.5 31 c 128,-1,22
 269 45 269 45 266.5 64 c 128,-1,23
 264 83 264 83 264 105 c 2,24,-1
 264 546 l 2,25,26
 264 552 264 552 266.5 563.5 c 128,-1,27
 269 575 269 575 275 587 c 128,-1,28
 281 599 281 599 292 607.5 c 128,-1,29
 303 616 303 616 321 616 c 0,30,31
 336 616 336 616 346.5 609 c 128,-1,32
 357 602 357 602 363.5 591 c 128,-1,33
 370 580 370 580 373 567.5 c 128,-1,34
 376 555 376 555 376 544 c 2,35,-1
 376 369 l 2,36,37
 376 361 376 361 378.5 355 c 128,-1,38
 381 349 381 349 389 349 c 2,39,-1
 503 348 l 2,40,41
 508 348 508 348 511 350.5 c 128,-1,42
 514 353 514 353 514 367 c 2,43,-1
 514 540 l 2,44,45
 514 578 514 578 526 597 c 128,-1,46
 538 616 538 616 559 616 c 0,47,48
 570 616 570 616 581.5 612 c 128,-1,49
 593 608 593 608 603 598.5 c 128,-1,50
 613 589 613 589 619.5 574 c 128,-1,51
 626 559 626 559 626 537 c 2,52,-1
 626 91 l 2,53,54
 626 77 626 77 622.5 61 c 128,-1,55
 619 45 619 45 611.5 31.5 c 128,-1,56
 604 18 604 18 592 9 c 128,-1,57
 580 0 580 0 564 0 c 0,0,1
281 555 m 0,58,59
 284 555 284 555 288.5 559.5 c 128,-1,60
 293 564 293 564 297.5 570.5 c 128,-1,61
 302 577 302 577 306 583.5 c 128,-1,62
 310 590 310 590 311 593 c 256,63,64
 312 596 312 596 311.5 600.5 c 128,-1,65
 311 605 311 605 308 604 c 0,66,67
 301 603 301 603 296 597.5 c 128,-1,68
 291 592 291 592 287 585 c 128,-1,69
 283 578 283 578 281 572 c 128,-1,70
 279 566 279 566 279 563 c 0,71,72
 279 561 279 561 279 558.5 c 128,-1,73
 279 556 279 556 281 555 c 0,58,59
551 575 m 0,74,75
 552 583 552 583 557.5 591 c 128,-1,76
 563 599 563 599 557 600 c 0,77,78
 549 601 549 601 540.5 591.5 c 128,-1,79
 532 582 532 582 530 568 c 0,80,81
 529 554 529 554 535 552 c 0,82,83
 543 551 543 551 546.5 561 c 128,-1,84
 550 571 550 571 551 575 c 0,74,75
306 30 m 0,85,86
 306 35 306 35 302 39 c 0,87,88
 297 44 297 44 295 59.5 c 128,-1,89
 293 75 293 75 293 86 c 0,90,91
 293 103 293 103 286 103 c 0,92,93
 282 103 282 103 281 96 c 128,-1,94
 280 89 280 89 280 86 c 0,95,96
 280 82 280 82 281 72 c 128,-1,97
 282 62 282 62 284 52 c 128,-1,98
 286 42 286 42 290 34.5 c 128,-1,99
 294 27 294 27 300 27 c 256,100,101
 306 27 306 27 306 30 c 0,85,86
552 26 m 0,102,103
 546 32 546 32 541.5 50 c 128,-1,104
 537 68 537 68 537 77 c 0,105,106
 537 81 537 81 535 81 c 0,107,108
 532 81 532 81 530 73.5 c 128,-1,109
 528 66 528 66 528 58 c 0,110,111
 528 46 528 46 533 31.5 c 128,-1,112
 538 17 538 17 552 17 c 0,113,114
 555 17 555 17 554.5 20.5 c 128,-1,115
 554 24 554 24 552 26 c 0,102,103
EndSplineSet
EndChar

StartChar: I
Encoding: 73 73 78
Width: 890
Flags: W
LayerCount: 2
Fore
SplineSet
312 484 m 1,0,-1
 422 792 l 1,1,-1
 472 792 l 1,2,-1
 578 484 l 1,3,-1
 500 484 l 1,4,-1
 448 699 l 1,5,-1
 390 484 l 1,6,-1
 312 484 l 1,0,-1
440 -4 m 256,7,8
 416 -4 416 -4 403 6.5 c 128,-1,9
 390 17 390 17 390 32 c 2,10,-1
 390 387 l 2,11,12
 390 396 390 396 392.5 408 c 128,-1,13
 395 420 395 420 400.5 430 c 128,-1,14
 406 440 406 440 415.5 447 c 128,-1,15
 425 454 425 454 440 454 c 256,16,17
 455 454 455 454 465.5 448 c 128,-1,18
 476 442 476 442 482.5 433 c 128,-1,19
 489 424 489 424 492.5 413 c 128,-1,20
 496 402 496 402 496 392 c 2,21,-1
 496 32 l 2,22,23
 496 16 496 16 480 6 c 128,-1,24
 464 -4 464 -4 440 -4 c 256,7,8
408 359 m 0,25,26
 411 359 411 359 412 365 c 128,-1,27
 413 371 413 371 413 379.5 c 128,-1,28
 413 388 413 388 413.5 397.5 c 128,-1,29
 414 407 414 407 416 413 c 0,30,31
 417 417 417 417 419 424 c 128,-1,32
 421 431 421 431 418 431 c 0,33,34
 413 431 413 431 409.5 425.5 c 128,-1,35
 406 420 406 420 403.5 412.5 c 128,-1,36
 401 405 401 405 400 396.5 c 128,-1,37
 399 388 399 388 399 383 c 0,38,39
 399 376 399 376 401 367.5 c 128,-1,40
 403 359 403 359 408 359 c 0,25,26
EndSplineSet
EndChar

StartChar: J
Encoding: 74 74 79
Width: 890
Flags: W
LayerCount: 2
Fore
SplineSet
448 -8 m 0,0,1
 403 -8 403 -8 371 4.5 c 128,-1,2
 339 17 339 17 319 38.5 c 128,-1,3
 299 60 299 60 290 88.5 c 128,-1,4
 281 117 281 117 281 149 c 0,5,6
 281 203 281 203 294 221.5 c 128,-1,7
 307 240 307 240 323 240 c 0,8,9
 331 240 331 240 340 238 c 128,-1,10
 349 236 349 236 357 230.5 c 128,-1,11
 365 225 365 225 370 215 c 128,-1,12
 375 205 375 205 375 188 c 0,13,14
 375 172 375 172 376.5 153 c 128,-1,15
 378 134 378 134 383.5 118 c 128,-1,16
 389 102 389 102 400 91.5 c 128,-1,17
 411 81 411 81 431 81 c 0,18,19
 449 81 449 81 461 86 c 128,-1,20
 473 91 473 91 480.5 104.5 c 128,-1,21
 488 118 488 118 491 141 c 128,-1,22
 494 164 494 164 494 199 c 0,23,24
 494 237 494 237 494.5 290 c 128,-1,25
 495 343 495 343 495 412 c 2,26,-1
 495 517 l 2,27,28
 495 525 495 525 487.5 530.5 c 128,-1,29
 480 536 480 536 472 536 c 2,30,-1
 431 536 l 2,31,32
 377 536 377 536 354.5 546 c 128,-1,33
 332 556 332 556 332 579 c 0,34,35
 332 594 332 594 340 601.5 c 128,-1,36
 348 609 348 609 366 612 c 128,-1,37
 384 615 384 615 413 615.5 c 128,-1,38
 442 616 442 616 484 616 c 0,39,40
 544 616 544 616 573.5 609 c 128,-1,41
 603 602 603 602 608 584 c 0,42,43
 609 581 609 581 609 558.5 c 128,-1,44
 609 536 609 536 609 502.5 c 128,-1,45
 609 469 609 469 608.5 429.5 c 128,-1,46
 608 390 608 390 608 353 c 0,47,48
 607 289 607 289 607 247 c 128,-1,49
 607 205 607 205 606.5 177 c 128,-1,50
 606 149 606 149 603.5 129.5 c 128,-1,51
 601 110 601 110 596 90 c 0,52,53
 589 65 589 65 573 46.5 c 128,-1,54
 557 28 557 28 536 16 c 128,-1,55
 515 4 515 4 492 -2 c 128,-1,56
 469 -8 469 -8 448 -8 c 0,0,1
388 594 m 0,57,58
 390 599 390 599 386 600 c 0,59,60
 379 602 379 602 365.5 598 c 128,-1,61
 352 594 352 594 350 587 c 0,62,63
 349 584 349 584 350 580.5 c 128,-1,64
 351 577 351 577 353 576 c 0,65,66
 361 574 361 574 373.5 581 c 128,-1,67
 386 588 386 588 388 594 c 0,57,58
302 144 m 0,68,69
 307 145 307 145 308.5 157 c 128,-1,70
 310 169 310 169 311 173 c 0,71,72
 313 183 313 183 315.5 194 c 128,-1,73
 318 205 318 205 325 214 c 0,74,75
 330 219 330 219 329 223 c 0,76,77
 329 225 329 225 327 226.5 c 128,-1,78
 325 228 325 228 323 227 c 0,79,80
 314 226 314 226 308 217 c 128,-1,81
 302 208 302 208 299 197 c 128,-1,82
 296 186 296 186 295 176 c 128,-1,83
 294 166 294 166 294 163 c 0,84,85
 295 155 295 155 297 149 c 128,-1,86
 299 143 299 143 302 144 c 0,68,69
EndSplineSet
EndChar

StartChar: K
Encoding: 75 75 80
Width: 890
Flags: W
LayerCount: 2
Fore
SplineSet
396.5 575 m 0,0,1
 356.5 575 356.5 575 328 603 c 128,-1,2
 299.5 631 299.5 631 299.5 675 c 0,3,4
 299.5 699 299.5 699 308 720.5 c 128,-1,5
 316.5 742 316.5 742 331.5 757.5 c 128,-1,6
 346.5 773 346.5 773 367.5 782.5 c 128,-1,7
 388.5 792 388.5 792 413.5 792 c 0,8,9
 433.5 792 433.5 792 450.5 783.5 c 128,-1,10
 467.5 775 467.5 775 479.5 760 c 128,-1,11
 491.5 745 491.5 745 498 726 c 128,-1,12
 504.5 707 504.5 707 504.5 686 c 0,13,14
 504.5 659 504.5 659 496 638.5 c 128,-1,15
 487.5 618 487.5 618 472.5 604 c 128,-1,16
 457.5 590 457.5 590 438 582.5 c 128,-1,17
 418.5 575 418.5 575 396.5 575 c 0,0,1
359.5 748 m 0,18,19
 366.5 755 366.5 755 368 760 c 128,-1,20
 369.5 765 369.5 765 367.5 765 c 0,21,22
 359.5 765 359.5 765 350.5 757.5 c 128,-1,23
 341.5 750 341.5 750 334 739.5 c 128,-1,24
 326.5 729 326.5 729 321.5 717 c 128,-1,25
 316.5 705 316.5 705 316.5 695 c 0,26,27
 316.5 693 316.5 693 318 687 c 128,-1,28
 319.5 681 319.5 681 322.5 681 c 0,29,30
 326.5 681 326.5 681 332.5 703 c 0,31,32
 335.5 717 335.5 717 343.5 728.5 c 128,-1,33
 351.5 740 351.5 740 359.5 748 c 0,18,19
400.5 632 m 0,34,35
 412.5 632 412.5 632 429 646 c 128,-1,36
 445.5 660 445.5 660 445.5 686 c 0,37,38
 445.5 706 445.5 706 435 719.5 c 128,-1,39
 424.5 733 424.5 733 407.5 733 c 256,40,41
 390.5 733 390.5 733 376.5 719.5 c 128,-1,42
 362.5 706 362.5 706 362.5 682 c 256,43,44
 362.5 658 362.5 658 373.5 645 c 128,-1,45
 384.5 632 384.5 632 400.5 632 c 0,34,35
311.5 0 m 0,46,47
 290.5 0 290.5 0 280.5 11 c 128,-1,48
 270.5 22 270.5 22 267 38.5 c 128,-1,49
 263.5 55 263.5 55 263.5 73 c 128,-1,50
 263.5 91 263.5 91 263.5 105 c 2,51,-1
 263.5 204 l 1,52,-1
 262.5 402 l 1,53,-1
 262.5 428 l 2,54,55
 262.5 455 262.5 455 264.5 476 c 128,-1,56
 266.5 497 266.5 497 272.5 512 c 128,-1,57
 278.5 527 278.5 527 290 535 c 128,-1,58
 301.5 543 301.5 543 321.5 543 c 0,59,60
 344.5 543 344.5 543 362 524.5 c 128,-1,61
 379.5 506 379.5 506 379.5 476 c 0,62,63
 379.5 471 379.5 471 379 456 c 128,-1,64
 378.5 441 378.5 441 378.5 421 c 2,65,-1
 378.5 429 l 1,66,-1
 378.5 410 l 2,67,68
 378.5 391 378.5 391 380 379 c 128,-1,69
 381.5 367 381.5 367 383.5 367 c 0,70,71
 387.5 367 387.5 367 399 385.5 c 128,-1,72
 410.5 404 410.5 404 426 431.5 c 128,-1,73
 441.5 459 441.5 459 459.5 491.5 c 128,-1,74
 477.5 524 477.5 524 495.5 551.5 c 128,-1,75
 513.5 579 513.5 579 530 597.5 c 128,-1,76
 546.5 616 546.5 616 557.5 616 c 0,77,78
 566.5 616 566.5 616 577.5 613 c 128,-1,79
 588.5 610 588.5 610 597.5 604 c 128,-1,80
 606.5 598 606.5 598 612.5 589 c 128,-1,81
 618.5 580 618.5 580 618.5 567 c 0,82,83
 618.5 559 618.5 559 607.5 537.5 c 128,-1,84
 596.5 516 596.5 516 580.5 489 c 128,-1,85
 564.5 462 564.5 462 545.5 432 c 128,-1,86
 526.5 402 526.5 402 510.5 376.5 c 128,-1,87
 494.5 351 494.5 351 483.5 333.5 c 128,-1,88
 472.5 316 472.5 316 472.5 313 c 0,89,90
 472.5 309 472.5 309 484 290 c 128,-1,91
 495.5 271 495.5 271 512.5 245 c 128,-1,92
 529.5 219 529.5 219 550 188.5 c 128,-1,93
 570.5 158 570.5 158 587.5 130 c 128,-1,94
 604.5 102 604.5 102 616 80 c 128,-1,95
 627.5 58 627.5 58 627.5 48 c 0,96,97
 627.5 35 627.5 35 619 26 c 128,-1,98
 610.5 17 610.5 17 598.5 11 c 128,-1,99
 586.5 5 586.5 5 574.5 2 c 128,-1,100
 562.5 -1 562.5 -1 554.5 -1 c 0,101,102
 540.5 -1 540.5 -1 525.5 17.5 c 128,-1,103
 510.5 36 510.5 36 498.5 57 c 0,104,105
 494.5 64 494.5 64 486 80.5 c 128,-1,106
 477.5 97 477.5 97 466 118 c 128,-1,107
 454.5 139 454.5 139 442 161.5 c 128,-1,108
 429.5 184 429.5 184 418 203 c 128,-1,109
 406.5 222 406.5 222 398 234 c 128,-1,110
 389.5 246 389.5 246 385.5 246 c 0,111,112
 377.5 246 377.5 246 377.5 234.5 c 128,-1,113
 377.5 223 377.5 223 377.5 215 c 2,114,-1
 377.5 164 l 1,115,-1
 378.5 125 l 1,116,-1
 378.5 102 l 2,117,118
 378.5 51 378.5 51 362.5 25.5 c 128,-1,119
 346.5 0 346.5 0 311.5 0 c 0,46,47
281.5 488 m 0,120,121
 286.5 487 286.5 487 291 491 c 128,-1,122
 295.5 495 295.5 495 299 500.5 c 128,-1,123
 302.5 506 302.5 506 305.5 512.5 c 128,-1,124
 308.5 519 308.5 519 309.5 523 c 0,125,126
 310.5 526 310.5 526 307.5 528.5 c 128,-1,127
 304.5 531 304.5 531 301.5 531 c 0,128,129
 297.5 531 297.5 531 293.5 526 c 128,-1,130
 289.5 521 289.5 521 286 514.5 c 128,-1,131
 282.5 508 282.5 508 280.5 501.5 c 128,-1,132
 278.5 495 278.5 495 278.5 492 c 0,133,134
 278.5 488 278.5 488 281.5 488 c 0,120,121
531.5 558 m 0,135,136
 534.5 558 534.5 558 540.5 562.5 c 128,-1,137
 546.5 567 546.5 567 552.5 573 c 128,-1,138
 558.5 579 558.5 579 562.5 585.5 c 128,-1,139
 566.5 592 566.5 592 565.5 596 c 0,140,141
 565.5 600 565.5 600 561.5 600 c 0,142,143
 558.5 601 558.5 601 552 596.5 c 128,-1,144
 545.5 592 545.5 592 539 585.5 c 128,-1,145
 532.5 579 532.5 579 528 573 c 128,-1,146
 523.5 567 523.5 567 524.5 564 c 0,147,148
 526.5 559 526.5 559 531.5 558 c 0,135,136
296.5 70 m 0,149,150
 296.5 74 296.5 74 296.5 84.5 c 128,-1,151
 296.5 95 296.5 95 295.5 106 c 128,-1,152
 294.5 117 294.5 117 292.5 125.5 c 128,-1,153
 290.5 134 290.5 134 286.5 134 c 0,154,155
 283.5 134 283.5 134 281 129 c 128,-1,156
 278.5 124 278.5 124 277.5 117 c 128,-1,157
 276.5 110 276.5 110 276 103.5 c 128,-1,158
 275.5 97 275.5 97 275.5 95 c 0,159,160
 275.5 91 275.5 91 275.5 82.5 c 128,-1,161
 275.5 74 275.5 74 277 65 c 128,-1,162
 278.5 56 278.5 56 281.5 49.5 c 128,-1,163
 284.5 43 284.5 43 290.5 43 c 0,164,165
 292.5 43 292.5 43 294 47 c 128,-1,166
 295.5 51 295.5 51 296 55.5 c 128,-1,167
 296.5 60 296.5 60 296.5 64.5 c 128,-1,168
 296.5 69 296.5 69 296.5 70 c 0,149,150
557.5 21 m 0,169,170
 557.5 24 557.5 24 554.5 30.5 c 128,-1,171
 551.5 37 551.5 37 547 43 c 128,-1,172
 542.5 49 542.5 49 537.5 54 c 128,-1,173
 532.5 59 532.5 59 529.5 59 c 0,174,175
 527.5 59 527.5 59 526.5 55.5 c 128,-1,176
 525.5 52 525.5 52 525.5 50 c 0,177,178
 525.5 47 525.5 47 528 41 c 128,-1,179
 530.5 35 530.5 35 534 29 c 128,-1,180
 537.5 23 537.5 23 542.5 19 c 128,-1,181
 547.5 15 547.5 15 551.5 15 c 0,182,183
 557.5 15 557.5 15 557.5 21 c 0,169,170
306.5 25 m 0,184,185
 308.5 29 308.5 29 305.5 32.5 c 128,-1,186
 302.5 36 302.5 36 298.5 36 c 0,187,188
 293.5 36 293.5 36 291 32.5 c 128,-1,189
 288.5 29 288.5 29 290.5 25 c 0,190,191
 292.5 17 292.5 17 298.5 17 c 256,192,193
 304.5 17 304.5 17 306.5 25 c 0,184,185
EndSplineSet
EndChar

StartChar: L
Encoding: 76 76 81
Width: 890
Flags: W
LayerCount: 2
Fore
SplineSet
463 569 m 0,0,1
 423 569 423 569 394.5 597 c 128,-1,2
 366 625 366 625 366 669 c 0,3,4
 366 693 366 693 374.5 714.5 c 128,-1,5
 383 736 383 736 398 751.5 c 128,-1,6
 413 767 413 767 434 776.5 c 128,-1,7
 455 786 455 786 480 786 c 0,8,9
 500 786 500 786 517 777.5 c 128,-1,10
 534 769 534 769 546 754 c 128,-1,11
 558 739 558 739 564.5 720 c 128,-1,12
 571 701 571 701 571 680 c 0,13,14
 571 653 571 653 562.5 632.5 c 128,-1,15
 554 612 554 612 539 598 c 128,-1,16
 524 584 524 584 504.5 576.5 c 128,-1,17
 485 569 485 569 463 569 c 0,0,1
426 742 m 0,18,19
 433 749 433 749 434.5 754 c 128,-1,20
 436 759 436 759 434 759 c 0,21,22
 426 759 426 759 417 751.5 c 128,-1,23
 408 744 408 744 400.5 733.5 c 128,-1,24
 393 723 393 723 388 711 c 128,-1,25
 383 699 383 699 383 689 c 0,26,27
 383 687 383 687 384.5 681 c 128,-1,28
 386 675 386 675 389 675 c 0,29,30
 393 675 393 675 399 697 c 0,31,32
 402 711 402 711 410 722.5 c 128,-1,33
 418 734 418 734 426 742 c 0,18,19
467 626 m 0,34,35
 479 626 479 626 495.5 640 c 128,-1,36
 512 654 512 654 512 680 c 0,37,38
 512 700 512 700 501.5 713.5 c 128,-1,39
 491 727 491 727 474 727 c 256,40,41
 457 727 457 727 443 713.5 c 128,-1,42
 429 700 429 700 429 676 c 256,43,44
 429 652 429 652 440 639 c 128,-1,45
 451 626 451 626 467 626 c 0,34,35
336 0 m 2,46,47
 325 0 325 0 316.5 8 c 128,-1,48
 308 16 308 16 308 27 c 2,49,-1
 308 492 l 2,50,51
 308 503 308 503 309.5 514 c 128,-1,52
 311 525 311 525 317 534 c 128,-1,53
 323 543 323 543 334.5 549 c 128,-1,54
 346 555 346 555 366 555 c 0,55,56
 389 555 389 555 405.5 537 c 128,-1,57
 422 519 422 519 422 499 c 2,58,-1
 422 121 l 2,59,60
 422 103 422 103 429 98.5 c 128,-1,61
 436 94 436 94 445 94 c 0,62,63
 462 94 462 94 475.5 94.5 c 128,-1,64
 489 95 489 95 501.5 95.5 c 128,-1,65
 514 96 514 96 527.5 96.5 c 128,-1,66
 541 97 541 97 558 97 c 0,67,68
 572 97 572 97 577 82.5 c 128,-1,69
 582 68 582 68 582 54 c 0,70,71
 582 34 582 34 569.5 16.5 c 128,-1,72
 557 -1 557 -1 543 -1 c 2,73,-1
 496 -1 l 1,74,-1
 413 0 l 1,75,-1
 336 0 l 2,46,47
326 488 m 0,76,77
 329 488 329 488 333.5 494.5 c 128,-1,78
 338 501 338 501 342.5 510 c 128,-1,79
 347 519 347 519 350.5 527 c 128,-1,80
 354 535 354 535 354 538 c 0,81,82
 354 543 354 543 346 543 c 0,83,84
 341 543 341 543 336 536.5 c 128,-1,85
 331 530 331 530 327.5 522 c 128,-1,86
 324 514 324 514 322 506 c 128,-1,87
 320 498 320 498 321 494 c 0,88,89
 321 488 321 488 326 488 c 0,76,77
337 59 m 0,90,91
 342 59 342 59 344 70 c 128,-1,92
 346 81 346 81 347 96.5 c 128,-1,93
 348 112 348 112 347.5 128.5 c 128,-1,94
 347 145 347 145 347 155 c 0,95,96
 347 159 347 159 346.5 165 c 128,-1,97
 346 171 346 171 344.5 177 c 128,-1,98
 343 183 343 183 340.5 187 c 128,-1,99
 338 191 338 191 333 191 c 0,100,101
 330 191 330 191 328.5 182.5 c 128,-1,102
 327 174 327 174 326 163 c 128,-1,103
 325 152 325 152 325 142.5 c 128,-1,104
 325 133 325 133 325 130 c 256,105,106
 325 127 325 127 325.5 115.5 c 128,-1,107
 326 104 326 104 327.5 91.5 c 128,-1,108
 329 79 329 79 331 69 c 128,-1,109
 333 59 333 59 337 59 c 0,90,91
354 30 m 0,110,111
 354 41 354 41 347 41 c 0,112,113
 337 41 337 41 337 30 c 0,114,115
 337 22 337 22 345 22 c 0,116,117
 348 22 348 22 351 24 c 128,-1,118
 354 26 354 26 354 30 c 0,110,111
EndSplineSet
EndChar

StartChar: M
Encoding: 77 77 82
Width: 890
Flags: W
LayerCount: 2
Fore
SplineSet
468.5 599 m 0,0,1
 428.5 599 428.5 599 400 627 c 128,-1,2
 371.5 655 371.5 655 371.5 699 c 0,3,4
 371.5 723 371.5 723 380 744.5 c 128,-1,5
 388.5 766 388.5 766 403.5 781.5 c 128,-1,6
 418.5 797 418.5 797 439.5 806.5 c 128,-1,7
 460.5 816 460.5 816 485.5 816 c 0,8,9
 505.5 816 505.5 816 522.5 807.5 c 128,-1,10
 539.5 799 539.5 799 551.5 784 c 128,-1,11
 563.5 769 563.5 769 570 750 c 128,-1,12
 576.5 731 576.5 731 576.5 710 c 0,13,14
 576.5 683 576.5 683 568 662.5 c 128,-1,15
 559.5 642 559.5 642 544.5 628 c 128,-1,16
 529.5 614 529.5 614 510 606.5 c 128,-1,17
 490.5 599 490.5 599 468.5 599 c 0,0,1
431.5 772 m 0,18,19
 438.5 779 438.5 779 440 784 c 128,-1,20
 441.5 789 441.5 789 439.5 789 c 0,21,22
 431.5 789 431.5 789 422.5 781.5 c 128,-1,23
 413.5 774 413.5 774 406 763.5 c 128,-1,24
 398.5 753 398.5 753 393.5 741 c 128,-1,25
 388.5 729 388.5 729 388.5 719 c 0,26,27
 388.5 717 388.5 717 390 711 c 128,-1,28
 391.5 705 391.5 705 394.5 705 c 0,29,30
 398.5 705 398.5 705 404.5 727 c 0,31,32
 407.5 741 407.5 741 415.5 752.5 c 128,-1,33
 423.5 764 423.5 764 431.5 772 c 0,18,19
472.5 656 m 0,34,35
 484.5 656 484.5 656 501 670 c 128,-1,36
 517.5 684 517.5 684 517.5 710 c 0,37,38
 517.5 730 517.5 730 507 743.5 c 128,-1,39
 496.5 757 496.5 757 479.5 757 c 256,40,41
 462.5 757 462.5 757 448.5 743.5 c 128,-1,42
 434.5 730 434.5 730 434.5 706 c 256,43,44
 434.5 682 434.5 682 445.5 669 c 128,-1,45
 456.5 656 456.5 656 472.5 656 c 0,34,35
220.5 0 m 0,46,47
 205.5 0 205.5 0 196.5 5.5 c 128,-1,48
 187.5 11 187.5 11 183 20 c 128,-1,49
 178.5 29 178.5 29 177 40.5 c 128,-1,50
 175.5 52 175.5 52 175.5 65 c 2,51,-1
 175.5 496 l 2,52,53
 175.5 507 175.5 507 176 520 c 128,-1,54
 176.5 533 176.5 533 180.5 544 c 128,-1,55
 184.5 555 184.5 555 193.5 562.5 c 128,-1,56
 202.5 570 202.5 570 218.5 570 c 0,57,58
 238.5 570 238.5 570 248.5 555.5 c 128,-1,59
 258.5 541 258.5 541 263 523 c 128,-1,60
 267.5 505 267.5 505 268.5 490.5 c 128,-1,61
 269.5 476 269.5 476 271.5 476 c 256,62,63
 273.5 476 273.5 476 277.5 491.5 c 128,-1,64
 281.5 507 281.5 507 292 525 c 128,-1,65
 302.5 543 302.5 543 321.5 558.5 c 128,-1,66
 340.5 574 340.5 574 373.5 574 c 0,67,68
 401.5 574 401.5 574 419.5 559 c 128,-1,69
 437.5 544 437.5 544 448.5 525.5 c 128,-1,70
 459.5 507 459.5 507 465.5 492 c 128,-1,71
 471.5 477 471.5 477 474.5 477 c 256,72,73
 477.5 477 477.5 477 483 492 c 128,-1,74
 488.5 507 488.5 507 499.5 525.5 c 128,-1,75
 510.5 544 510.5 544 530 559 c 128,-1,76
 549.5 574 549.5 574 581.5 574 c 0,77,78
 622.5 574 622.5 574 648.5 554 c 128,-1,79
 674.5 534 674.5 534 689 498.5 c 128,-1,80
 703.5 463 703.5 463 709 414.5 c 128,-1,81
 714.5 366 714.5 366 714.5 310 c 2,82,-1
 714.5 27 l 2,83,84
 714.5 13 714.5 13 695.5 6.5 c 128,-1,85
 676.5 0 676.5 0 656.5 0 c 256,86,87
 636.5 0 636.5 0 625.5 5.5 c 128,-1,88
 614.5 11 614.5 11 614.5 26 c 2,89,-1
 614.5 301 l 2,90,91
 614.5 313 614.5 313 614.5 341.5 c 128,-1,92
 614.5 370 614.5 370 610 400 c 128,-1,93
 605.5 430 605.5 430 595 452.5 c 128,-1,94
 584.5 475 584.5 475 563.5 475 c 0,95,96
 545.5 475 545.5 475 534 461 c 128,-1,97
 522.5 447 522.5 447 515.5 422.5 c 128,-1,98
 508.5 398 508.5 398 505 363.5 c 128,-1,99
 501.5 329 501.5 329 499.5 287 c 0,100,101
 496.5 238 496.5 238 495.5 211 c 128,-1,102
 494.5 184 494.5 184 495 141.5 c 128,-1,103
 495.5 99 495.5 99 496 69.5 c 128,-1,104
 496.5 40 496.5 40 496.5 31 c 0,105,106
 496.5 17 496.5 17 480 8.5 c 128,-1,107
 463.5 0 463.5 0 439.5 0 c 256,108,109
 415.5 0 415.5 0 405.5 7 c 128,-1,110
 395.5 14 395.5 14 395.5 38 c 2,111,-1
 395.5 301 l 2,112,113
 395.5 312 395.5 312 395.5 341 c 128,-1,114
 395.5 370 395.5 370 391.5 400 c 128,-1,115
 387.5 430 387.5 430 377.5 453 c 128,-1,116
 367.5 476 367.5 476 347.5 476 c 0,117,118
 329.5 476 329.5 476 317 460.5 c 128,-1,119
 304.5 445 304.5 445 296.5 421 c 128,-1,120
 288.5 397 288.5 397 284 367 c 128,-1,121
 279.5 337 279.5 337 277.5 309 c 128,-1,122
 275.5 281 275.5 281 275 257 c 128,-1,123
 274.5 233 274.5 233 274.5 221 c 2,124,-1
 274.5 45 l 2,125,126
 274.5 26 274.5 26 258.5 13 c 128,-1,127
 242.5 0 242.5 0 220.5 0 c 0,46,47
199.5 476 m 0,128,129
 205.5 477 205.5 477 206 487.5 c 128,-1,130
 206.5 498 206.5 498 206.5 506 c 0,131,132
 206.5 513 206.5 513 208.5 521.5 c 128,-1,133
 210.5 530 210.5 530 212 537 c 128,-1,134
 213.5 544 213.5 544 213.5 549 c 128,-1,135
 213.5 554 213.5 554 209.5 554 c 0,136,137
 202.5 554 202.5 554 198 547.5 c 128,-1,138
 193.5 541 193.5 541 191.5 532 c 128,-1,139
 189.5 523 189.5 523 188.5 515 c 128,-1,140
 187.5 507 187.5 507 187.5 504 c 0,141,142
 187.5 496 187.5 496 189.5 485.5 c 128,-1,143
 191.5 475 191.5 475 199.5 476 c 0,128,129
430.5 23 m 0,144,145
 430.5 33 430.5 33 424 36.5 c 128,-1,146
 417.5 40 417.5 40 417.5 51 c 0,147,148
 417.5 53 417.5 53 417.5 58.5 c 128,-1,149
 417.5 64 417.5 64 417 69.5 c 128,-1,150
 416.5 75 416.5 75 414.5 79.5 c 128,-1,151
 412.5 84 412.5 84 409.5 84 c 0,152,153
 407.5 84 407.5 84 406.5 79.5 c 128,-1,154
 405.5 75 405.5 75 405 69 c 128,-1,155
 404.5 63 404.5 63 404.5 57.5 c 128,-1,156
 404.5 52 404.5 52 404.5 50 c 0,157,158
 404.5 38 404.5 38 408 24.5 c 128,-1,159
 411.5 11 411.5 11 421.5 11 c 0,160,161
 430.5 11 430.5 11 430.5 23 c 0,144,145
646.5 24 m 0,162,163
 646.5 34 646.5 34 641 41.5 c 128,-1,164
 635.5 49 635.5 49 635.5 60 c 0,165,166
 635.5 64 635.5 64 635 74 c 128,-1,167
 634.5 84 634.5 84 628.5 84 c 0,168,169
 623.5 84 623.5 84 623 73 c 128,-1,170
 622.5 62 622.5 62 622.5 59 c 256,171,172
 622.5 56 622.5 56 623 48 c 128,-1,173
 623.5 40 623.5 40 625.5 32.5 c 128,-1,174
 627.5 25 627.5 25 630.5 19 c 128,-1,175
 633.5 13 633.5 13 638.5 13 c 0,176,177
 642.5 13 642.5 13 644.5 17.5 c 128,-1,178
 646.5 22 646.5 22 646.5 24 c 0,162,163
218.5 24 m 0,179,180
 218.5 35 218.5 35 214 36 c 128,-1,181
 209.5 37 209.5 37 204.5 44 c 0,182,183
 203.5 46 203.5 46 203 51.5 c 128,-1,184
 202.5 57 202.5 57 202.5 62.5 c 128,-1,185
 202.5 68 202.5 68 201 72.5 c 128,-1,186
 199.5 77 199.5 77 196.5 77 c 0,187,188
 191.5 77 191.5 77 191 67.5 c 128,-1,189
 190.5 58 190.5 58 190.5 51 c 0,190,191
 190.5 47 190.5 47 191.5 41 c 128,-1,192
 192.5 35 192.5 35 195 29 c 128,-1,193
 197.5 23 197.5 23 201 18.5 c 128,-1,194
 204.5 14 204.5 14 209.5 14 c 0,195,196
 218.5 14 218.5 14 218.5 24 c 0,179,180
EndSplineSet
EndChar

